<?xml version="1.0" encoding="utf-8"?>
<!-- Generator: Adobe Illustrator 22.0.0, SVG Export Plug-In . SVG Version: 6.00 Build 0)  -->
<svg version="1.1" id="레이어_1" xmlns="http://www.w3.org/2000/svg" xmlns:xlink="http://www.w3.org/1999/xlink" x="0px"
	 y="0px" viewBox="0 0 7.9 10" style="enable-background:new 0 0 7.9 10;" xml:space="preserve">
<style type="text/css">
	.st0{fill:#FFFFFF;}
</style>
<path class="st0" d="M1.1,0.1C0.9,0.1,0.8,0,0.7,0c0,0-0.1,0-0.1,0C0.4,0,0.2,0.1,0.1,0.3C0,0.4,0,0.6,0,0.8c0,0.2,0.1,0.4,0.3,0.5
	c0.7,0.4,1.4,1,2.1,1.5C2.8,3,3.1,3.3,3.5,3.6c0.4,0.3,0.8,0.5,1.1,0.7C5,4.5,5.5,4.8,5.8,5.1c0,0,0.1,0.1,0.1,0.1
	c-0.5,0.5-1.1,1-1.7,1.4C3.6,6.9,3,7.2,2.4,7.5C2.1,7.6,1.8,7.7,1.5,7.8C1.2,7.9,0.9,8,0.7,8.1C0.3,8.3,0,8.7,0.1,9.1
	C0.1,9.5,0.5,9.9,0.9,10c0.2,0,0.3,0,0.5,0c0.1,0,0.3-0.1,0.4-0.1c0.1,0,0.2-0.1,0.3-0.1c0.4-0.2,0.8-0.3,1.1-0.5
	c0.4-0.2,0.9-0.4,1.3-0.6C5,8.5,5.4,8.2,5.8,7.9c0.3-0.2,0.6-0.5,0.9-0.8c0.2-0.2,0.4-0.4,0.6-0.6c0.1-0.1,0.2-0.2,0.3-0.4
	C7.7,6,7.9,5.7,7.9,5.5c0-0.2,0-0.5-0.1-0.7C7.7,4.6,7.6,4.4,7.4,4.2C6.9,3.5,6.1,3,5.3,2.6c0,0,0.1,0,0.1,0.1
	c-0.3-0.2-0.6-0.4-1-0.6C4.2,1.9,4,1.8,3.7,1.6c-0.1,0-0.1-0.1-0.2-0.1c-0.1,0-0.1-0.1-0.2-0.1C3.1,1.3,3,1.2,2.8,1.1
	c-0.3-0.2-0.6-0.3-1-0.5C1.6,0.4,1.3,0.3,1.1,0.1 M1.9,0.6C1.9,0.6,1.9,0.6,1.9,0.6C1.9,0.6,1.9,0.6,1.9,0.6 M6,5.4
	C6,5.4,6,5.4,6,5.4C6,5.4,6,5.4,6,5.4L6,5.4 M3.5,1.5C3.5,1.5,3.5,1.5,3.5,1.5L3.5,1.5C3.5,1.5,3.5,1.5,3.5,1.5 M3.5,1.5
	c-0.1,0-0.1-0.1-0.2-0.1C3.4,1.5,3.4,1.5,3.5,1.5 M2.9,1.2c-0.1,0-0.1-0.1-0.2-0.1C2.7,1.1,2.8,1.1,2.9,1.2C2.8,1.1,2.9,1.1,2.9,1.2
	"/>
</svg>
