<?xml version="1.0" encoding="utf-8"?>
<!-- Generator: Adobe Illustrator 22.0.0, SVG Export Plug-In . SVG Version: 6.00 Build 0)  -->
<svg version="1.1" id="레이어_1" xmlns="http://www.w3.org/2000/svg" xmlns:xlink="http://www.w3.org/1999/xlink" x="0px"
	 y="0px" viewBox="0 0 188.9 65.3" style="enable-background:new 0 0 188.9 65.3;" xml:space="preserve">
<style type="text/css">
	.st0{fill:#CACACA;}
</style>
<polyline class="st0" points="60.9,1.8 69.4,2.3 69.4,1.4 68.1,0.9 "/>
<path class="st0" d="M144.7,2.8l9.6,2.5c0,0,4.9,1.4,5.3,1.6c0.4,0.2,6.4,2.3,6.4,2.3l8.3,4.9L181,20l-2.9,6.8L147.8,26L136,10.6
	l8.4-7.3L144.7,2.8z"/>
<path class="st0" d="M188.9,36.1c-0.1-1.6-0.1-3.2-0.4-4.7c-0.2-1.6-0.7-3.2-1.5-4.7c-0.4-0.7-0.8-1.3-1.1-2
	c-0.2-0.4-0.4-0.8-0.6-1.2c-0.2-0.4-0.5-0.9-0.8-1.3c-0.4-0.7-0.9-1.4-1.5-2.1c-0.5-0.7-1.2-1.3-1.9-1.9c-0.6-0.6-1.3-1.1-1.9-1.7
	c-0.6-0.5-1.3-1.1-1.9-1.6c-0.6-0.6-1.3-1.1-2-1.6c-0.7-0.5-1.5-1-2.3-1.5c-0.8-0.5-1.7-0.9-2.5-1.4c-0.8-0.4-1.6-0.8-2.3-1.2
	L165.7,8c-0.9-0.4-1.8-0.8-2.7-1.2c-0.9-0.4-1.7-0.7-2.6-1.1c-0.4-0.2-0.9-0.3-1.3-0.5c-0.5-0.2-0.9-0.3-1.4-0.5
	c-0.9-0.3-1.8-0.5-2.7-0.8c-1-0.3-1.9-0.5-2.9-0.8c-1.8-0.4-3.5-0.8-5.4-1.1c-1.9-0.3-3.9-0.4-5.9-0.6c-0.9-0.1-1.8-0.1-2.7-0.1
	c-1,0-1.9-0.1-2.9-0.2c-0.8-0.1-1.6-0.1-2.4-0.2c-0.8-0.1-1.7-0.1-2.5-0.1c-1.6,0-3.2,0-4.8-0.1c-1.8,0-3.5-0.2-5.3-0.3
	c-1.9-0.1-3.8-0.1-5.7-0.1c-1.8,0-3.7,0-5.5,0c-1.8,0-3.5,0-5.3,0c-0.2,0-0.5,0-0.7,0h0c-1.8,0-3.6-0.2-5.4-0.2c-1,0-2,0-3,0
	c-0.9,0-1.8,0-2.7,0c-1.7,0-3.4,0-5.1,0c-0.8,0-1.6,0-2.4,0c-0.7,0-1.5,0.1-2.2,0.1c-0.6,0-1.3,0.1-1.9,0.1c-0.5,0-0.9,0-1.4,0
	c-1.1,0-2.1-0.1-3.1-0.2c-1.1-0.1-2.1-0.2-3.2-0.2c-0.2,0-0.4,0-0.7,0L61.6,0.2l-0.1,0l-0.9,0c-0.4,0-0.7,0-1.1-0.1
	c-0.5,0-1.1-0.1-1.6-0.1c-0.8,0-1.6,0-2.3,0c-1.7,0-3.4-0.1-5,0c-0.9,0-1.8,0.1-2.7,0.2c-0.8,0.1-1.7,0.1-2.5,0.1
	c-0.9,0-1.9,0-2.8,0c-0.9,0-1.8,0.1-2.7,0.2c-1,0.1-2,0.2-2.9,0.3C35.9,0.9,35,1,34,1.1c-0.9,0.1-1.8,0.3-2.7,0.4
	c-1,0.1-1.9,0.3-2.8,0.4c-1.9,0.3-3.8,0.8-5.7,1.3C21,3.7,19.1,4.3,17.4,5c-0.9,0.4-1.8,0.7-2.7,1.2c-0.4,0.2-0.8,0.4-1.2,0.6
	c-0.4,0.2-0.9,0.5-1.3,0.8c-0.8,0.5-1.5,1-2.2,1.5c-0.7,0.5-1.4,1.2-2,1.8c-1.2,1.3-2.4,2.6-3.4,4.1c-0.5,0.7-1,1.5-1.4,2.3
	c-0.4,0.7-0.8,1.5-1.1,2.3c-0.3,0.8-0.6,1.6-0.8,2.4c-0.2,0.8-0.4,1.6-0.6,2.4c-0.2,0.8-0.4,1.5-0.5,2.3C0.1,27.6,0,28.5,0,29.4
	c0,0.9,0,1.8,0.1,2.6c0.1,0.8,0.2,1.7,0.4,2.5c0.3,1.7,0.7,3.4,1.2,5c0.5,1.6,1.1,3.3,1.8,4.8c0.3,0.7,0.7,1.3,1.1,1.9l0,0l0,0
	c0.6,0.9,1.2,1.7,1.9,2.6c2.3,2.7,5.3,4.8,8.6,6.5c1.6,0.8,3.1,1.7,4.7,2.5c0.8,0.4,1.6,0.8,2.4,1.2c0.9,0.4,1.7,0.7,2.6,1
	c0.8,0.3,1.7,0.6,2.5,0.8c0.9,0.3,1.8,0.5,2.8,0.7c1.8,0.3,3.6,0.4,5.4,0.6c1.7,0.2,3.4,0.3,5,0.4c0,0,0,0,0,0l0,0
	c2.1,0.1,4.1,0.3,6.2,0.4c1,0.1,2,0.1,3.1,0.1c1,0,1.9,0,2.9,0c1.8,0,3.7,0,5.5,0c0.8,0,1.6,0,2.4,0c0.8,0,1.6,0,2.5,0
	c0.9,0,1.9,0,2.8,0.1c1,0.1,2,0.1,2.9,0.2c1.9,0.2,3.9,0.3,5.8,0.5c1.9,0.1,3.8,0.3,5.7,0.4c1,0.1,1.9,0.1,2.9,0.1
	c1,0,1.9,0.1,2.9,0.2c1,0.1,1.9,0.1,2.9,0.2c1,0.1,2,0.1,2.9,0.1c0,0,0.1,0,0.1,0c3.6,0.4,6.8,0.6,7.6,0.2c1,0,2.1,0,3.1,0
	c0.9,0,1.8,0,2.7-0.1c1,0,1.9-0.2,2.8-0.3c1-0.1,2-0.2,3-0.3c1-0.1,1.9-0.2,2.9-0.4c1.8-0.3,3.7-0.5,5.5-0.7
	c1.8-0.2,3.5-0.3,5.3-0.4c0.9-0.1,1.8-0.2,2.7-0.3c0.9-0.1,1.9-0.3,2.8-0.5c1.7-0.3,3.4-0.6,5.1-0.7c0.9-0.1,1.8-0.1,2.7-0.1
	c1,0,1.9-0.1,2.9-0.1c0.3,0,0.6,0,0.8,0c0.9,0,1.9,0.1,2.8,0.1c0.9,0,1.8,0,2.7,0c1.7,0,3.5,0,5.2,0c1.9,0,3.8-0.1,5.7-0.3
	c1.9-0.2,3.8-0.5,5.6-0.9c0.9-0.2,1.7-0.5,2.6-0.7c0.9-0.2,1.7-0.5,2.6-0.7c1.8-0.5,3.6-1.1,5.3-1.9c0.9-0.4,1.7-0.8,2.6-1.2
	c0.8-0.4,1.6-0.8,2.3-1.3c1.5-1.1,2.8-2.3,4-3.7c0.6-0.6,1.1-1.3,1.6-2c0.6-0.8,1.2-1.6,1.6-2.4c0.6-1.1,1-2.3,1.4-3.5l0,0l0,0
	c0.1-0.4,0.3-0.9,0.4-1.3c0.3-0.9,0.5-1.7,0.6-2.6C188.9,37.8,188.9,36.9,188.9,36.1z M147.2,4.2c1.8,0.3,3.6,0.7,5.4,1.2
	c0,0,0,0,0,0c0,0,0.1,0,0.1,0c0,0,0,0,0,0c0,0,0,0,0,0c0,0,0,0,0,0c0,0,0.1,0,0.1,0c1.5,0.4,3,0.8,4.4,1.3c0.8,0.3,1.6,0.5,2.4,0.9
	c0.8,0.3,1.6,0.7,2.4,1c0.8,0.3,1.5,0.7,2.2,1c0.7,0.3,1.5,0.7,2.2,1.1c1.4,0.7,2.7,1.4,4.1,2.1c1.7,1,3.4,2,4.9,3.3
	c1.4,1.3,2.9,2.5,4.3,3.8l-4.3-3.8l-11.2-6.5L147.2,4.2l-2.1-0.3C145.8,4,146.5,4.1,147.2,4.2z M117.4,2.5l-5.2,0
	C114,2.5,115.7,2.5,117.4,2.5z M83,2.5c0.8,0,1.6-0.1,2.3-0.1c0.5,0,1.1,0,1.6,0c0.3,0,0.5,0,0.8,0c0.7,0,1.3,0,2,0
	c1.1,0,2.1,0,3.2,0c1.2,0,2.4,0,3.6,0c1.7,0,3.4,0.1,5.1,0.2c0.9,0,1.7,0,2.6,0L80.7,2.6C81.5,2.6,82.3,2.5,83,2.5z M8.9,13
	c0.7-0.8,1.4-1.5,2.2-2.2l-4.9,5.9c0.3-0.5,0.6-0.9,0.9-1.4C7.6,14.5,8.2,13.7,8.9,13z M53.8,60.8L53.8,60.8l0.2,0
	C54,60.8,53.9,60.8,53.8,60.8z"/>
<polygon class="st0" points="10.6,10 7.7,13 6.1,16.3 6.6,19.9 14.1,15.9 12.6,11.5 "/>
<polyline class="st0" points="78.1,2 86.1,1.4 95.5,0.9 107,1.4 117.5,1.7 120.3,2.8 121.3,7.3 97.3,14 91.4,12.2 78.7,8 76.8,3.3 
	"/>
</svg>
