<?xml version="1.0" encoding="utf-8"?>
<!-- Generator: Adobe Illustrator 22.0.0, SVG Export Plug-In . SVG Version: 6.00 Build 0)  -->
<svg version="1.1" id="레이어_1" xmlns="http://www.w3.org/2000/svg" xmlns:xlink="http://www.w3.org/1999/xlink" x="0px"
	 y="0px" viewBox="0 0 49 121.6" style="enable-background:new 0 0 49 121.6;" xml:space="preserve">
<style type="text/css">
	.st0{fill:#FFFFFF;}
</style>
<g>
	<g>
		<g>
			<g>
				<g>
					<path class="st0" d="M36.7,11c0.1-0.1,0.1-0.3,0.1-0.2l-0.2,0.3L36.7,11z"/>
					<path class="st0" d="M36.7,10.3c-0.1,0.1-0.3,0.3-0.4,0.6c0.2-0.3,0.1-0.1,0.4-0.5c0.1,0,0,0.1,0,0.2c0.1-0.1,0,0.1,0.1-0.1
						c0.1-0.3,0-0.3-0.2-0.1C36.6,10.5,36.6,10.4,36.7,10.3z"/>
					<path class="st0" d="M33.1,7.6L33.1,7.6C33.1,7.6,33.1,7.6,33.1,7.6z"/>
					<path class="st0" d="M31.1,5.7C31.1,5.7,31.2,5.7,31.1,5.7C31.1,5.7,31.1,5.7,31.1,5.7z"/>
					<path class="st0" d="M31,5.1C31,5.1,31,5.1,31,5.1C31,5.1,31,5.1,31,5.1z"/>
					<path class="st0" d="M33.1,7.6l0-0.1C33,7.5,33.1,7.5,33.1,7.6z"/>
					<path class="st0" d="M35.7,10.8C35.8,10.8,35.8,10.7,35.7,10.8C35.8,10.7,35.8,10.7,35.7,10.8L35.7,10.8z"/>
					<path class="st0" d="M34.2,8L34.2,8c0,0,0.1-0.1,0.1-0.1L34.2,8z"/>
					<path class="st0" d="M35,8.5c0,0-0.2,0.2-0.2,0.3c0.1-0.1,0.1-0.1,0.1-0.1C35,8.6,35,8.6,35,8.5z"/>
					<path class="st0" d="M36.1,9.7L36.1,9.7L36.1,9.7z"/>
					<path class="st0" d="M33.7,7.6C33.7,7.6,33.8,7.6,33.7,7.6C33.8,7.6,33.7,7.6,33.7,7.6z"/>
					<path class="st0" d="M17.7,14.8C17.6,14.8,17.6,14.8,17.7,14.8C17.6,14.8,17.6,14.8,17.7,14.8z"/>
					<polygon class="st0" points="15.9,15 15.9,15 15.8,14.9 					"/>
					<path class="st0" d="M30.7,4.3L30.7,4.3C30.7,4.3,30.7,4.3,30.7,4.3z"/>
					<path class="st0" d="M23.3,2c0.3,0.1,0.2,0.3,0.5,0.4C23.6,2.3,23.5,2,23.3,2z"/>
					<path class="st0" d="M35.7,10.7C35.7,10.7,35.7,10.7,35.7,10.7C35.7,10.7,35.7,10.7,35.7,10.7z"/>
					<path class="st0" d="M23.7,2.4L23.7,2.4L23.7,2.4C23.7,2.4,23.7,2.4,23.7,2.4z"/>
					<path class="st0" d="M29.3,3C29.3,3,29.2,3,29.3,3C29.2,3,29.3,3,29.3,3z"/>
					<path class="st0" d="M29.9,4.3L29.9,4.3C29.9,4.3,29.9,4.3,29.9,4.3z"/>
					<path class="st0" d="M28.5,2.6C28.5,2.6,28.5,2.6,28.5,2.6C28.5,2.6,28.5,2.6,28.5,2.6C28.5,2.6,28.5,2.6,28.5,2.6z"/>
					<path class="st0" d="M28,2C28,2,28,2,28,2L28,2L28,2z"/>
					<path class="st0" d="M18.8,12.6c-0.1,0-0.2-0.1-0.2-0.1C18.8,12.6,18.8,12.8,18.8,12.6z"/>
					<path class="st0" d="M35.8,10.6C35.8,10.7,35.7,10.7,35.8,10.6C35.7,10.7,35.7,10.7,35.8,10.6C35.8,10.7,35.8,10.6,35.8,10.6z"
						/>
					<path class="st0" d="M26.7,3.9l-0.1-0.1C26.7,3.8,26.7,3.9,26.7,3.9z"/>
					<path class="st0" d="M21.9,7.8L21.9,7.8C22,7.8,22,7.8,21.9,7.8z"/>
					<path class="st0" d="M26.4,3.5c0.1-0.1,0.1-0.1,0.1-0.2c0,0,0,0-0.1,0L26.4,3.5z"/>
					<path class="st0" d="M18.6,12.5L18.6,12.5L18.6,12.5z"/>
					<path class="st0" d="M18.7,13.6c0.1-0.1-0.3-0.2-0.4-0.4c0-0.2,0.3,0.1,0.5,0.1c0-0.1-0.3-0.4-0.2-0.4c0.1,0,0.1,0,0.1,0.1
						c-0.2-0.2,0.1-0.2-0.1-0.5c0,0,0.1,0,0.1,0c-0.2-0.1-0.3-0.2-0.4-0.3c0,0-0.1-0.2,0.1-0.1c0,0,0.1,0.1,0.1,0.1l-0.1-0.1
						c0.3,0.1,0.1,0.1,0.3,0.3c0-0.2-0.2-0.4-0.1-0.4c0.3,0.2,0,0.2,0.3,0.3l-0.2,0c0.5,0.2-0.1,0,0.5,0.3c0.2-0.1,0-0.3,0.1-0.4
						c-0.1-0.1-0.2-0.1-0.4-0.3c-0.2-0.4,0.8,0.3,0.5-0.1c-0.2-0.2-0.5-0.4-0.3-0.4l0.3,0.2c0.1-0.1-0.4-0.4-0.1-0.4
						c0.1,0.1,0,0.2,0.1,0.2c0.3,0.1-0.1-0.2-0.1-0.3l0.3,0.2c0.1-0.2,0-0.5,0-0.7c0.1,0.1,0.1,0.2,0.3,0.2c0-0.3,0.3-0.4,0.6-0.5
						l-0.2-0.2c0,0,0.1,0,0.2,0.1c0.1,0-0.2-0.1-0.2-0.2c0-0.1,0.2,0,0.2,0.1c-0.1-0.3-0.2-0.7,0.2-0.7l0.1,0.1
						c0.2,0-0.4-0.5-0.1-0.4l0,0c0.3-0.2,0.2-0.6,0.7-0.5c-0.3-0.3,0.3-0.1-0.2-0.5c0.3,0,0.4,0.1,0.7,0c0.1,0-0.3-0.3-0.3-0.4
						L21.9,8l-0.2-0.3L22,7.9l0-0.1c0,0-0.1,0-0.2-0.1c0-0.2,0.3-0.1,0.5,0l-0.1-0.4c0.1,0.1,0.1,0.1,0.2,0.2
						c-0.2-0.3,0.3,0.2,0.1-0.1c-0.1,0-0.1-0.1-0.2-0.2c0.2,0.1,0.3-0.1,0.3-0.2l0.2,0.1c0.2-0.1,0.2-0.4,0.3-0.6
						c-0.1,0-0.4-0.2-0.4-0.3l0.3,0.2c-0.1-0.2-0.1,0-0.3-0.2c0.1,0,0.3,0.2,0.4,0.3l0-0.1C23,6.5,23,6.5,23.1,6.6
						c-0.1-0.2,0.4,0,0.1-0.2l0.1,0.1c0.1-0.2,0.1-0.3,0.2-0.5c-0.2-0.2-0.1-0.2-0.3-0.4c0.2-0.1,0.4-0.1,0.5-0.2
						c0-0.2-0.2-0.2-0.3-0.3c0.2,0.1,0.3,0,0.4,0.2c0.1-0.2,0.1-0.2,0.1-0.6c-0.1,0-0.2,0-0.2-0.1c0-0.1,0.1,0,0.2,0.1l0,0
						c-0.1-0.5,1-0.1,0.7-0.6l0,0l-0.1-0.4c0.1-0.1,0.1,0.2,0.3,0.2c-0.2-0.5,0.3-0.3,0.2-0.6c0.3,0.2,0.4,0,0.5-0.1
						c0-0.1,0-0.2,0.1-0.2C25.6,3,25.7,3,25.8,3l-0.1-0.1C25.5,2.8,25.7,3,25.8,3c-0.1-0.1-0.1-0.1-0.2-0.2
						c-0.1-0.2,0.2-0.1,0.2,0.1c0,0.1,0.1,0.2,0.1,0.2c0,0.1,0-1.1,0.1-0.6c0,0.1,0,0.3-0.1,0.4c0-0.2,0.1-0.2,0.1-0.2
						c0,0,0,0.1,0.2,0c-0.1,0.1-0.1,0.1-0.1,0.1c-0.1,0.2,0,0,0.2-0.1c0,0-0.1,0.1-0.2,0.2c-0.1,0.1,0.3-0.2,0.1,0c0,0-0.1,0-0.1,0
						c0.1,0,0.1,0.2,0.3,0c0,0.2,0.3,0.1,0.2,0.3c0.3-0.1,0,0.3,0.4,0c-0.4,0.3-0.2,0.4,0.1,0.4c-0.1,0.1-0.1,0.1-0.2,0.2
						C26.8,4,26.9,4,27.1,3.9c-0.3,0.5,0.6,0,0.1,0.5c0.4,0.1,0.7,0.2,0.9,0.3c-0.3,0.3-0.2-0.2-0.6,0.1c0.3,0.1,0.7-0.1,0.8,0.2
						c0,0.1-0.2,0.1-0.2,0.1c0.3,0.1,0.3,0.4,0.6,0.4c0,0-0.1,0-0.1,0c0,0,0,0.1,0.2,0l-0.1,0c0.2-0.3,0.6-0.3,0.7-0.4
						c-0.5,0.4,0,0.3-0.6,0.7c0,0,0.1,0,0.2-0.1c0,0.1,0,0.1-0.2,0.2c0.2,0,0.3-0.2,0.4-0.1C29.2,5.9,29.1,5.9,29,6
						c0.2-0.1,0.4-0.2,0.4,0c0,0-0.1,0.1-0.1,0.1c0.2,0.1,0.6-0.1,0.6,0.2c-0.3,0.3,0,0.2-0.3,0.4l0.2,0l0.1-0.2
						c0.1,0.1,0.3-0.1,0.3,0.1L30,6.7l0.2,0.1l0-0.2c0.2-0.1,0.3-0.4,0.3-0.2c0,0,0.1,0.1,0,0.3l0,0c0.1-0.1,0.2-0.1,0.2,0
						C30.7,6.8,30.5,7,30.5,7c0.2-0.2,0.2,0.1,0.5-0.1c-0.1,0-0.2,0.2-0.2,0.2L31,7c0,0.1,0,0.1-0.1,0.2c0.1,0.1,0.3-0.4,0.3-0.1
						c0,0,0,0-0.1,0.1c0.1,0.2,0.4,0.1,0.4,0.3c-0.2,0.3-0.2,0-0.3,0.3c0.2,0.1,0.7,0,0.8,0.2l0-0.1c0.4-0.4,0,0.3,0.2,0.2
						c0,0-0.2,0.2-0.2,0.2c0.1,0.2,0.3,0.1,0.6,0.1l-0.1,0.1c0,0.2,0.1,0.2,0.2,0.3c0.1-0.1,0.1,0,0.2-0.2c-0.2,0.8,0.7,0,0.6,0.7
						c0,0-0.1,0.1-0.1,0.1l0.3,0C33.6,9,33.6,9,33.6,8.9c0.1-0.1,0.2-0.2,0.3-0.1c-0.2,0.1-0.2,0.3-0.2,0.4c0-0.1,0.1-0.1,0.1-0.2
						C33.6,9.4,34,8.6,34,8.9L33.9,9C34,9,34.2,8.9,34.2,9c-0.1,0.2-0.1,0.1-0.2,0.3c0.1,0,0.4-0.3,0.3-0.1c-0.1,0-0.1,0-0.2,0.1
						c-0.1,0.3,0,0.3,0,0.3l0,0l0.1,0.2l0-0.1c0.5-0.5,0.3,0,0.6-0.3c-0.3,0.3-0.1,0.2-0.3,0.5c0,0.1,0,0.2-0.1,0.3
						c0.2-0.2,0,0.2,0.3,0c0,0.1,0.1,0-0.1,0.3c0.1,0,0.1-0.2,0.1-0.3c0.3-0.2,0.1,0.5,0.5,0.2c0.3-0.1,0.4-0.4,0.7-0.4
						c0,0.2-0.2,0.3-0.2,0.3c0,0.2,0.1,0.2,0.2,0.1c-0.1,0.1-0.1,0.1-0.1,0.2c0.1,0,0.2-0.3,0.2-0.1c-0.1,0.1-0.2,0.2-0.2,0.3
						c0.1,0,0.3-0.2,0.4-0.2c-0.1,0.2-0.2,0.2-0.2,0.3c0.1,0,0.3,0,0.4-0.3l0-0.1c0,0-0.1,0.2-0.1,0.2c-0.2,0.2-0.1-0.1,0-0.2l0.1,0
						c0.2-0.5-0.3,0-0.3-0.1l0.2-0.3l-0.3,0.2c0-0.1,0.1-0.3,0.2-0.4c0-0.2-0.1,0.1-0.1-0.1c0,0,0-0.1,0-0.1l-0.1,0.1
						c0.1-0.1,0.1-0.3,0.1-0.2c0-0.3-0.4,0.2-0.3-0.1l0,0c-0.2,0-0.2,0.3-0.5,0.5l0.3-0.7l-0.2,0.3c0,0,0-0.1,0-0.2
						c-0.2,0.1-0.1,0.1-0.2,0.3c0-0.3-0.3,0-0.1-0.5c-0.1,0.2,0,0.2-0.2,0.3c0.2-0.5-0.2,0-0.1-0.2c0.2-0.2,0.2-0.1,0.2-0.3
						c-0.3,0.4-0.1-0.2-0.2-0.1c-0.2,0.3-0.2,0-0.4,0.1c0.1-0.1-0.1-0.3-0.1-0.5l0,0c-0.2,0.3-0.3,0.2-0.4,0.2
						c0.1-0.2,0.2-0.2,0.3-0.3l-0.1,0c-0.1,0.1-0.1,0.1-0.2,0.1L34.2,8c-0.1,0-0.4,0.1-0.4-0.1c-0.2,0.2-0.3,0.7-0.5,0.7
						c0.1-0.1,0.2-0.3,0.3-0.3c0,0-0.1,0.1-0.1,0l0.2-0.2c0-0.1-0.1,0.1-0.2,0.1c0.1-0.2,0-0.1,0.1-0.3c0,0,0,0.1,0.1,0
						c0-0.1,0-0.2,0-0.3c-0.1,0.1-0.2,0.2-0.2,0.2c-0.1-0.1,0.1-0.2,0.1-0.3c-0.1,0.1-0.1-0.1-0.3,0.2c0,0,0-0.1,0.1-0.2
						c-0.1,0.1-0.2-0.1-0.4,0.2l0,0c0,0,0,0,0,0l0,0l0,0c-0.3,0.1-0.2-0.4-0.4-0.4l0.1-0.1c-0.2,0-0.2-0.1-0.4,0
						c0,0,0.1-0.2,0.1-0.3c-0.1,0-0.2,0.1-0.2-0.1c0.2-0.1,0.1-0.1,0.1,0c0-0.1,0-0.3-0.2-0.1c0.2-0.2,0.1-0.3,0-0.3l-0.1,0.2
						c-0.1,0-0.1-0.1-0.1-0.1l0.2-0.2c0.1-0.5-0.8,0.3-0.4-0.4c-0.2,0.1,0,0.2-0.2,0.4c-0.1-0.1,0.2-0.5,0.2-0.6
						c0-0.2-0.4,0.3-0.5,0.1c-0.1,0.1-0.3,0.3-0.4,0.4c0-0.1,0.2-0.5,0.4-0.5c0,0,0,0,0,0.1c0.1,0,0.1,0,0.2-0.1l-0.1,0.1
						c0-0.1-0.1-0.2,0.1-0.3c-0.1,0-0.2,0.1-0.2,0.2c0-0.2-0.2-0.1-0.2-0.3c0,0.1-0.1,0.2-0.1,0.2c0-0.2-0.2,0.1-0.4,0
						c0.1-0.2,0.3-0.3,0.1-0.3c0-0.1,0.2-0.2,0.3-0.3c-0.3,0.1-0.1-0.3-0.1-0.3l0.1,0c-0.1,0-0.1,0-0.1,0l-0.1,0.2
						c0-0.1,0-0.1,0.1-0.1c-0.1,0.1-0.3,0.3-0.5,0.4c0.1-0.1-0.2,0,0-0.3c0,0.2,0.2-0.2,0.3-0.2c0,0-0.1,0-0.1-0.1c0,0,0.1,0,0.1,0
						c0.1-0.3-0.3,0.2-0.4,0.1c0.1-0.1,0.2-0.3,0.2-0.3c0,0-0.2,0.2-0.3,0.3c0-0.2-0.2,0-0.2-0.1l0,0.1c-0.1,0.1-0.2,0.1-0.3,0
						c0.1-0.1,0.1,0,0.1-0.1c-0.3,0.2,0.1-0.4-0.1-0.3c0.1-0.1,0.2-0.2,0.3-0.3c-0.3,0.1,0.1-0.3-0.1-0.2c-0.2,0.2-0.1,0.2-0.3,0.2
						l0.3,0.1l-0.4,0.1c0,0.1,0.2,0,0.2,0.1c-0.2,0.1-0.1,0-0.3,0.2c0.2-0.3-0.3,0-0.2-0.2l0.4-0.4c0.1-0.3-0.4,0-0.4-0.3l0,0.1
						c-0.2,0.1-0.1-0.1-0.2-0.1c0.2-0.1,0.2-0.2,0.3-0.3c-0.1,0.1-0.1-0.1-0.4,0.1L29,2.9c0-0.2-0.6,0.2-0.6,0
						c0.2-0.1,0.3-0.2,0.5-0.2c0,0,0-0.1-0.1,0c0.1-0.1-0.3,0-0.2-0.1c-0.1,0-0.3,0.2-0.3,0.1c0,0,0.1-0.1,0.1-0.1
						c-0.1,0.1-0.2,0-0.3,0.2c0.4-0.5-0.3-0.3,0-0.8c-0.1-0.1-0.3-0.1-0.3-0.2c0.1,0,0.1-0.1,0.1,0c0-0.3-0.5,0.3-0.5,0
						c0.2-0.3,0.2,0,0.2-0.2c0.4-0.5-0.2-0.2-0.1-0.6l0.1,0c0-0.3-0.4,0-0.5-0.2c0,0,0,0,0-0.1C26.7,1,26.5,1,26.3,1
						c0.1-0.2,0.1-0.1,0.1-0.4c-0.1,0-0.1,0.4-0.2,0.4c0-0.2-0.1-0.3-0.1-0.6c0.1,0,0.1,0,0.2,0c0-0.4-0.2,0-0.3-0.1l0-0.2
						c-0.3,0-0.3,0.4-0.5,0.4l0,0.1c-0.1,0.4-0.1-0.2-0.2,0.1l-0.1-0.4c0,0,0,0.1-0.1,0.1c-0.1,0.2-0.1,0.4-0.2,0.5
						c-0.1-0.3,0-0.5,0.1-0.8l0,0l0,0c-0.1,0-0.3,0.2-0.2,0.4c0-0.1,0-0.2,0.1-0.1c0,0.4,0,0.6-0.1,0.7c-0.4-0.7-0.4,0.2-0.9-0.1
						c-0.1,0.6-0.5,0.4-0.6,0.7c0.5,0.3,0,0.1,0.5,0.4c0,0.1,0,0.1-0.1,0.1l-0.4-0.1c-0.2-0.1-0.1-0.1-0.2-0.2C23,2.2,22.9,2,22.7,2
						c0.2,0.1,0.2,0.2,0.1,0.2l0.3,0.1c0.1,0.4-0.5-0.2-0.4,0.2l-0.1-0.2c0,0.2-0.2,0.3,0.1,0.7c-0.1,0-0.2-0.1-0.2-0.2
						c-0.2,0.2,0.1,0.8-0.3,0.7l-0.1-0.1c0,0.1,0.2,0.2,0,0.2c0,0-0.1-0.1-0.1-0.1c0,0.1,0.1,0.3,0,0.3l-0.1-0.1
						c-0.3,0.1,0.1,0.5,0.1,0.8c-0.4-0.3-0.6-0.2-0.7-0.1l0,0c-0.2,0.2,0,0.6,0,0.9c-0.5-0.1-0.5,0.3-0.8,0.4c0.1,0,0.3,0.2,0.3,0.3
						c-0.1,0,0.2,0.3-0.2,0.1l0,0c-0.4-0.2-0.3,0-0.4,0.1l0.4,0.3C19.8,6,20.4,7,19.8,6.7c0.1,0.1,0,0.2,0.1,0.3l-0.2-0.2
						c-0.2,0.1-0.2,0.2-0.3,0.4l-0.1-0.1c-0.1,0.1,0.6,0.6,0.5,0.7l-0.4-0.2c-0.1,0.2-0.5,0.1-0.3,0.5c0,0-0.1-0.1-0.1-0.1
						C18.9,8,18.5,8.1,19,8.4c-0.3-0.2-0.2,0.2-0.1,0.3l-0.2-0.2C18.9,8.8,19,8.9,19,9c0,0-0.2-0.1-0.1-0.1c-0.2,0,0.2,0.2,0,0.2
						L18.8,9c-0.1,0.1,0,0.1,0.1,0.3c0.1,0.1-0.2,0.1-0.4,0c0.1,0.1,0.3,0.3,0.2,0.3c-0.1,0-0.1-0.1-0.1-0.1c-0.3,0,0.1,0.4-0.2,0.4
						c-0.1,0-0.1-0.1-0.2-0.1c0.1-0.1,0.2-0.2,0.2-0.2c-0.2-0.1-0.3-0.1-0.6-0.3c0.1,0.2,0.4,0.5,0.2,0.6c0,0,0,0-0.1,0l0,0
						c0,0,0,0,0,0.1c-0.1,0-0.1,0-0.1,0c-0.2-0.1-0.2,0-0.2,0.1c0.2,0.1,0.2,0.2,0.4,0.3c0,0,0,0,0-0.1c0,0,0,0,0,0l0,0
						c0,0,0-0.1,0.1-0.1c0.1,0.1,0.2,0.2,0,0.2c0.1,0.1,0.3,0.3,0.3,0.3c-0.4-0.1-0.6-0.1-0.8-0.2c0,0.2-0.1,0.4,0.3,0.8
						c0,0.1-0.2,0-0.2-0.1c0-0.1,0-0.1-0.1-0.1c0.1,0.2-0.1,0.3,0.2,0.5c-0.2,0-0.2-0.2-0.3-0.1l-0.1-0.1c-0.7,0,0.5,1-0.3,0.9
						c0.1,0,0.1,0,0.1,0c-0.5,0.2-0.2,0.9-0.9,1c-0.2,0,0,0.2,0.2,0.3l-0.3-0.1l0.2,0.3c0.1,0.3-0.8-0.1-0.5,0.3L16,14
						c-0.1,0,0,0.3-0.2,0.2c0,0,0.2,0.1,0.1,0.1l-0.1-0.1l0.1,0.3c-0.2,0.1-0.5-0.3-0.7-0.2c0,0.1,0.3,0.4,0.4,0.5
						c0,0,0.1,0,0.3,0.1l0,0.1c0.4,0.2,0.8,0.5,1.1,0.5l-0.2-0.3l0.2,0.1l0,0.1c0.2,0.1,0.1-0.1,0-0.2c0.1,0.1,0.2,0.1,0.2,0.1
						L16.9,15c0.2,0.1,0.3,0.2,0.4,0.2c-0.1-0.2-0.4-0.2-0.4-0.3c0.2,0.1,0.4,0.2,0.2,0c0.1,0.1,0.2,0.1,0.2,0.2
						c-0.1-0.1,0-0.2-0.2-0.3c0.3,0.1,0.1-0.2,0.4,0c-0.1-0.1-0.2-0.3-0.2-0.3c0.4,0.4,0.1-0.2,0.6,0.1c-0.4-0.3,0-0.4-0.2-0.6
						c0,0,0.1,0.1,0.1,0.1c0.1,0,0.2,0,0.3,0c-0.3-0.2-0.3-0.4-0.5-0.6c0.4,0.1,0.4,0.3,0.7,0.5c-0.3-0.2-0.2-0.3-0.4-0.4
						c0.2,0.1,0.1,0,0.4,0.1c-0.4-0.3,0-0.1-0.3-0.3c0.3,0,0.4,0.2,0.3,0C18.6,13.4,18.7,13.6,18.7,13.6z M19.5,10.7L19.5,10.7
						C19.5,10.8,19.5,10.8,19.5,10.7C19.5,10.8,19.5,10.8,19.5,10.7z M19.6,10.5C19.6,10.6,19.6,10.6,19.6,10.5c-0.2,0-0.2,0-0.2,0
						C19.5,10.5,19.5,10.5,19.6,10.5z M17.7,9.9C17.7,9.9,17.8,9.9,17.7,9.9C17.8,9.9,17.8,9.9,17.7,9.9l0.1,0.1
						C17.8,10,17.7,9.9,17.7,9.9z"/>
					<path class="st0" d="M18,10.2C18,10.2,18,10.2,18,10.2C18,10.2,18,10.2,18,10.2L18,10.2L18,10.2z"/>
					<path class="st0" d="M33.1,7.6L33.1,7.6C33.1,7.6,33.1,7.6,33.1,7.6C33.1,7.7,33.1,7.6,33.1,7.6z"/>
					<polygon class="st0" points="21.9,8.1 21.9,8 21.9,8.1 					"/>
					<path class="st0" d="M33.6,9.2C33.6,9.2,33.6,9.2,33.6,9.2C33.6,9.2,33.6,9.2,33.6,9.2z"/>
					<path class="st0" d="M34.1,9.6l0,0.1C34.1,9.6,34.1,9.6,34.1,9.6z"/>
					<path class="st0" d="M34.4,9.9C34.4,9.9,34.5,9.8,34.4,9.9l0.1-0.1L34.4,9.9z"/>
					<path class="st0" d="M28.6,5.6C28.6,5.6,28.6,5.6,28.6,5.6C28.5,5.6,28.5,5.6,28.6,5.6z"/>
					<path class="st0" d="M30.6,6.6c-0.1,0-0.1,0-0.1,0.1C30.4,6.7,30.5,6.8,30.6,6.6z"/>
					<polygon class="st0" points="26.7,3.9 26.7,3.9 26.7,3.9 					"/>
					<path class="st0" d="M30.4,6.6C30.3,6.7,30.4,6.7,30.4,6.6C30.4,6.7,30.4,6.6,30.4,6.6z"/>
					<path class="st0" d="M36.1,11L36.1,11C36.1,11,36.1,11,36.1,11L36.1,11z"/>
					<path class="st0" d="M36.1,10.9L36.1,10.9C36.1,10.9,36.1,10.9,36.1,10.9z"/>
					<path class="st0" d="M36.2,10.9L36.2,10.9C36.2,10.9,36.2,11,36.2,10.9z"/>
					<path class="st0" d="M35.6,10.6L35.6,10.6C35.6,10.6,35.6,10.6,35.6,10.6z"/>
					<path class="st0" d="M35.4,10.5c0,0,0,0.2,0.1,0.2l0-0.1C35.5,10.8,35.5,10.4,35.4,10.5z"/>
					<path class="st0" d="M35.4,9.1l0.1,0.1c0-0.1,0.1-0.3,0.1-0.2C35.6,8.6,35.5,9.2,35.4,9.1z"/>
					<path class="st0" d="M35.1,8.7c0.1,0,0.1-0.1,0.1-0.2C35.1,8.6,35.1,8.6,35.1,8.7z"/>
					<path class="st0" d="M32.4,6.8l0.2-0.2C32.5,6.6,32.5,6.7,32.4,6.8z"/>
					<polygon class="st0" points="31.1,7.5 31,7.6 31.2,7.5 					"/>
					<polygon class="st0" points="32,5.8 32,5.8 31.9,5.8 					"/>
					<path class="st0" d="M28.3,1.9l-0.2,0.2C28.2,2.1,28.4,1.9,28.3,1.9z"/>
					<path class="st0" d="M25.6,0.5c-0.1-0.2-0.2-0.2-0.2-0.1C25.4,0.4,25.5,0.5,25.6,0.5z"/>
					<polygon class="st0" points="20.2,6.1 20.1,6 20.2,6.2 					"/>
				</g>
			</g>
		</g>
	</g>
</g>
<g>
	<g>
		<g>
			<g>
				<g>
					<path class="st0" d="M26.6,68.2c0.1,0.1,0.3,0.1,0.3,0L26.6,68L26.6,68.2z"/>
					<path class="st0" d="M27.4,67.7c-0.1-0.1-0.4-0.3-0.7-0.3c0.3,0.2,0.2,0.2,0.5,0.4c0,0.1-0.1,0.1-0.3,0.1
						c0.1,0.1-0.1,0.1,0.1,0.2c0.3-0.1,0.3-0.2,0.2-0.4C27.2,67.6,27.3,67.6,27.4,67.7z"/>
					<path class="st0" d="M29.5,58.1L29.5,58.1C29.5,58.1,29.5,58.1,29.5,58.1z"/>
					<path class="st0" d="M29.9,52C30,52,30,52,29.9,52C30,52,30,51.9,29.9,52z"/>
					<path class="st0" d="M30.3,50.9C30.3,50.9,30.3,50.9,30.3,50.9C30.3,50.9,30.3,50.9,30.3,50.9z"/>
					<path class="st0" d="M29.5,58.1l0.1-0.2C29.5,57.9,29.5,58,29.5,58.1z"/>
					<path class="st0" d="M26.9,66.2c0,0,0,0.1,0.1,0.1C26.9,66.3,26.9,66.2,26.9,66.2L26.9,66.2z"/>
					<path class="st0" d="M29.4,60.8L29.4,60.8c0,0.1,0.1,0.1,0.1,0.1L29.4,60.8z"/>
					<path class="st0" d="M29.2,62.8c0,0-0.3-0.1-0.4-0.1c0.1,0,0.2,0.1,0.2,0.1C29,62.8,29.1,62.8,29.2,62.8z"/>
					<path class="st0" d="M28.1,66L28.1,66C28.1,66,28.1,66,28.1,66z"/>
					<path class="st0" d="M29.7,59.3c0,0,0.1,0,0.1,0C29.8,59.3,29.7,59.3,29.7,59.3z"/>
					<path class="st0" d="M25,2.6C25,2.6,25,2.6,25,2.6C25,2.6,25,2.6,25,2.6z"/>
					<polygon class="st0" points="26,0.1 26,0.1 26.2,0.1 					"/>
					<path class="st0" d="M30.5,48.9C30.5,48.9,30.5,48.9,30.5,48.9C30.5,49,30.5,48.9,30.5,48.9z"/>
					<path class="st0" d="M27,32.1c-0.3,0.2-0.3-0.3-0.6,0C26.5,32,26.8,32.3,27,32.1z"/>
					<path class="st0" d="M26.9,66.1C26.9,66.1,26.9,66.1,26.9,66.1C26.9,66.1,26.9,66.1,26.9,66.1z"/>
					<path class="st0" d="M26.4,32L26.4,32L26.4,32C26.4,32.1,26.4,32.1,26.4,32z"/>
					<path class="st0" d="M29.5,44.5c0,0-0.1,0-0.1,0.1C29.4,44.5,29.5,44.5,29.5,44.5z"/>
					<path class="st0" d="M29.8,47.8L29.8,47.8C29.8,47.8,29.8,47.8,29.8,47.8z"/>
					<path class="st0" d="M28.7,42.9c0,0,0-0.1,0-0.1C28.7,42.8,28.7,42.8,28.7,42.9C28.7,42.8,28.7,42.8,28.7,42.9z"/>
					<polygon class="st0" points="28.2,41.2 28.1,41.3 28.2,41.3 					"/>
					<path class="st0" d="M25.8,7.8c0.1,0,0.2-0.1,0.2-0.1C25.8,7.8,25.7,7.5,25.8,7.8z"/>
					<path class="st0" d="M27,66.2c-0.1,0-0.1,0-0.1-0.1c0,0,0,0,0,0.1C27,66.2,27,66.2,27,66.2z"/>
					<path class="st0" d="M26.5,43.5l0-0.3C26.5,43.3,26.5,43.4,26.5,43.5z"/>
					<path class="st0" d="M26,20.2L26,20.2C26,20.1,26,20.2,26,20.2z"/>
					<path class="st0" d="M26.2,42.4c0.1-0.1,0.1-0.1,0.1-0.2c0,0,0,0-0.1,0L26.2,42.4z"/>
					<path class="st0" d="M26,7.7L26,7.7L26,7.7z"/>
					<path class="st0" d="M25.1,6c0,0.3,0.4,0.1,0.6,0.1c0.1,0.3-0.3,0.2-0.4,0.3c0.1,0.2,0.5,0.3,0.5,0.4c-0.1,0-0.1,0-0.2,0
						c0.3,0.2,0.1,0.6,0.5,0.8c0,0-0.1,0-0.1,0c0.2-0.1,0.4-0.1,0.5-0.1c0,0.1,0.3,0.2,0,0.3c0-0.1-0.1-0.1-0.2-0.1l0.1,0.1
						c-0.3,0.1-0.1-0.2-0.4-0.1c0.1,0.2,0.5,0.5,0.4,0.7c-0.3,0.1-0.2-0.4-0.4-0.1L26.1,8c-0.5,0.3,0-0.2-0.5,0.1
						c-0.1,0.4,0.2,0.4,0.2,0.8c0.2,0.1,0.3-0.1,0.5,0c0.4,0.5-0.8,0.5-0.3,0.8c0.2,0.1,0.7,0.1,0.5,0.4L26,10.1
						c0,0.4,0.6,0.2,0.3,0.6c-0.2-0.1-0.1-0.3-0.2-0.2c-0.3,0.3,0.2,0.2,0.2,0.3L26,10.8c0.1,0.4,0.4,0.8,0.4,1.2
						c-0.1,0-0.2-0.1-0.3,0c0.2,0.5,0,1.2-0.2,1.7l0.3,0.2c0,0-0.1,0.1-0.2,0c-0.1,0.2,0.2,0,0.3,0.1c0,0.1-0.2,0.2-0.3,0.1
						c0.3,0.3,0.6,1,0.2,1.4l-0.1-0.1c-0.1,0.3,0.6,0.3,0.3,0.6L26.6,16c-0.1,0.6,0.1,1.3-0.4,1.8c0.4,0.1-0.2,0.6,0.4,0.7
						c-0.3,0.3-0.4,0.2-0.6,0.7c0,0.1,0.4,0.2,0.4,0.4l-0.3,0l0.3,0.3L25.9,20l0.1,0.2c0-0.1,0.2-0.1,0.2-0.1
						c0.1,0.3-0.3,0.6-0.4,0.6l0.2,0.6c-0.1,0-0.2-0.1-0.2-0.2c0.3,0.3-0.3,0-0.1,0.3c0.1,0,0.2,0,0.2,0.1c-0.2,0.1-0.2,0.4-0.2,0.7
						L25.5,22c-0.1,0.4,0,0.9-0.1,1.4c0.1-0.2,0.5-0.1,0.5,0.1l-0.3,0c0.2,0.1,0.1-0.1,0.4,0.1c-0.1,0.2-0.4,0.1-0.5-0.1l0.1,0.2
						c-0.1,0-0.1-0.1-0.3-0.1c0.2,0.1-0.4,0.3-0.1,0.5l-0.1,0c-0.1,0.5,0,0.7,0,1.1c0.3,0,0.2,0.2,0.4,0.3c-0.1,0.3-0.4,0.6-0.4,0.9
						c0.1,0.3,0.2,0.1,0.4,0.2c-0.3,0-0.3,0.3-0.4,0.1c0,0.4,0,0.6,0.1,1.1c0.1,0,0.2-0.1,0.2-0.1c0,0.1-0.1,0.2-0.3,0.2l0,0
						c0.3,0.6-0.9,1.4-0.4,1.9l0,0l0.2,0.5c-0.1,0.2-0.2-0.2-0.4,0c0.4,0.6-0.1,0.9,0.2,1.4c-0.8,0.4,0,1.3-0.4,1.8l0.2,0
						c0.2,0.1-0.1,0.2-0.1,0.3c0.1,0,0.2-0.1,0.3-0.1c0.3,1-0.1,2.2,0,3.4c0,0.4,0.9,0,0.6,0.6l-0.4-0.1c0.6,0.7,0.4,1.6,0.9,2.3
						c-0.1,0-0.2,0-0.2-0.1c-0.2,0.2,0.2,0.6,0.3,0.5c0,0.1-0.2,0.1-0.2,0.2c-0.1,0.2,0.4,0.3,0.2,0.5c0,0-0.1,0-0.1,0
						c0.1,0.1,0.1,0.5,0.3,0.3c0,0.3,0.3,0.5,0.2,0.7c0.3,0.1,0,0.5,0.4,0.4c-0.4,0.1-0.2,0.6,0,0.7c-0.1,0-0.1,0.2-0.3,0.2
						c0.1,0.2,0.2,0.3,0.4,0.2c-0.4,0.5,0.6,0.6,0,1c0.4,0.5,0.7,1,0.9,1.5c-0.4,0.1-0.2-0.6-0.6-0.4c0.3,0.4,0.7,0.7,0.7,1.2
						c0,0.1-0.2,0-0.3-0.1c0.3,0.5,0.1,1,0.4,1.4c0,0-0.1,0-0.1-0.1c0,0.1,0,0.2,0.2,0.2L28,48.3c0.3-0.2,0.7,0.3,0.8,0.3
						c-0.6-0.1-0.1,0.5-0.9,0.3c0,0.1,0.1,0.1,0.3,0.1c0,0.1-0.1,0.1-0.3,0.1c0.1,0.3,0.4,0.2,0.4,0.5c-0.1,0-0.1,0-0.3-0.1
						c0.2,0.1,0.4,0.3,0.4,0.5c-0.1,0-0.1,0-0.1,0c0.1,0.4,0.6,0.7,0.4,1.2c-0.4-0.1-0.1,0.2-0.5,0.2l0.1,0.2l0.2-0.1
						c0,0.2,0.3,0.4,0.2,0.6l-0.2-0.2l0.1,0.4l0.1-0.2c0.2,0.2,0.5,0,0.4,0.3c0-0.1,0,0.2-0.2,0.3l0,0c0.1,0.1,0.2,0.2,0.1,0.4
						c-0.1,0-0.4,0-0.5,0c0.3,0.1,0.1,0.5,0.4,0.6c-0.1,0-0.3-0.1-0.3,0l0.3,0.1c-0.1,0.1-0.1,0.1-0.3,0.1c0,0.3,0.5-0.1,0.3,0.3
						c0,0-0.1,0-0.1-0.1c-0.1,0.4,0.1,0.7,0,1c-0.4,0.1-0.1-0.3-0.4-0.2c0.1,0.5,0.4,1,0.3,1.5l0-0.1c0.5,0.1-0.3,0.3-0.1,0.6
						c0-0.1-0.3-0.1-0.2-0.1c-0.1,0.3,0.1,0.7,0.2,1.2l-0.1-0.1c-0.1,0.2-0.1,0.5-0.2,0.7c0.1,0.1,0.1,0.2,0.3,0.1
						c-0.8,0.5,0.3,1.2-0.5,1.7c0-0.1-0.1-0.2-0.1-0.1l0.1,0.5c0.2,0,0.1,0,0.3-0.1c0.1,0.1,0.2,0.2,0.2,0.3c-0.1-0.2-0.4-0.1-0.5,0
						c0.1,0,0.1,0,0.2,0c-0.4,0.2,0.5,0.1,0.1,0.4l-0.1,0c0,0.1,0.2,0.3,0.1,0.4c-0.3,0-0.1-0.2-0.3-0.2c0,0.2,0.4,0.5,0.1,0.6
						c-0.1-0.1,0-0.2-0.1-0.3c-0.3,0.1-0.3,0.2-0.3,0.3l0,0l-0.2,0.3l0.1-0.1c0.7,0.4,0,0.5,0.4,0.9c-0.4-0.4-0.2-0.1-0.5-0.2
						c-0.1,0.1-0.2,0.2-0.3,0.1c0.2,0.2-0.2,0.2,0.1,0.5c-0.1,0,0,0.2-0.3,0.1c0,0.2,0.2,0,0.3,0c0.3,0.4-0.5,0.6-0.2,1.2
						c0.1,0.4,0.4,0.5,0.5,0.9c-0.2,0.1-0.3-0.2-0.3-0.2c-0.2,0.2-0.2,0.3-0.1,0.5c-0.1-0.1-0.2,0-0.3,0c0,0.1,0.3,0.2,0.1,0.3
						c-0.1-0.1-0.3-0.1-0.4-0.2c0.1,0.2,0.2,0.4,0.2,0.6c-0.2,0-0.2-0.2-0.3-0.2c0,0.2,0,0.5,0.3,0.7l0.1-0.1c0,0.1-0.2,0-0.3-0.1
						c-0.2-0.2,0.1-0.2,0.2-0.2l0,0.1c0.6,0,0-0.5,0.1-0.8l0.4,0.2l-0.3-0.3c0.1,0,0.4,0,0.4,0.1c0.2-0.1-0.1-0.2,0.1-0.3
						c0,0,0.1,0,0.1,0L28,65.8c0.1,0.1,0.3,0,0.2,0.1c0.3-0.3-0.2-0.6,0.1-0.6l0,0c-0.1-0.5-0.3-0.1-0.6-0.5l0.8-0.1l-0.3-0.1
						c0,0,0.1-0.1,0.2-0.1c-0.2-0.2-0.1,0-0.3-0.1c0.3-0.2,0-0.6,0.5-0.6c-0.2-0.1-0.2,0.2-0.3-0.1c0.5,0,0-0.3,0.2-0.4
						c0.3,0.1,0.1,0.3,0.4,0.1C28.4,63.2,29,63,29,62.8c-0.4-0.1-0.1-0.4-0.2-0.7c0.1,0,0.3-0.5,0.5-0.8l0.1,0
						C29,61.3,29.1,61,29,60.8c0.2,0,0.3,0.1,0.4,0.2l0-0.2c-0.1-0.1-0.2-0.1-0.2-0.3l0.3,0.1c0-0.3-0.2-0.5,0-0.8
						c-0.3-0.1-0.7,0.2-0.9-0.2c0.1,0,0.4,0,0.4,0.1c0,0-0.1-0.1,0-0.2l0.2,0.2c0.1-0.1-0.2-0.1-0.1-0.2c0.2,0,0.2-0.1,0.3,0
						c0,0-0.1,0.1,0,0.1c0.1-0.1,0.2-0.3,0.3-0.3c-0.1,0-0.3,0-0.3-0.1c0-0.3,0.2-0.1,0.4-0.2c-0.1-0.1,0-0.2-0.3-0.3
						c0-0.1,0.1-0.1,0.2-0.1c-0.1-0.1,0-0.6-0.3-0.5l0,0l0,0l0,0l0,0c-0.3-0.5,0.3-0.9,0.2-1.3l0.1,0c-0.1-0.3,0-0.6-0.2-0.8
						c0-0.1,0.2-0.2,0.3-0.1c-0.1-0.2-0.2-0.2,0-0.5c0.2,0.2,0.2-0.1,0.1,0.2c0.1-0.2,0.3-0.3,0-0.6c0.2,0.1,0.3-0.2,0.3-0.3L30,55
						c0-0.1,0-0.3,0-0.4l0.3,0.1c0.4-0.5-0.7-1,0-1.3c-0.2-0.1-0.2,0.3-0.4,0.2c0-0.2,0.5-0.5,0.5-0.6c0.2-0.3-0.5-0.3-0.4-0.7
						c-0.1,0-0.4,0.1-0.6-0.2c0-0.2,0.5-0.3,0.6-0.2c0,0.1,0,0.1-0.1,0.1c0,0.1,0.1,0.2,0.2,0.1l-0.1,0c0.1-0.1,0.1-0.5,0.3-0.4
						c-0.1-0.2-0.2-0.1-0.3,0.1c0.2-0.3,0-0.5,0.1-0.8c-0.1,0.1-0.2,0.1-0.2,0.1c0.1-0.5-0.2-0.2-0.3-0.5c0.2-0.2,0.4,0,0.3-0.3
						c0.1-0.2,0.3-0.1,0.4,0c-0.2-0.3,0.1-0.6,0.1-0.7l0.1,0.1c-0.1-0.1-0.1-0.2-0.1-0.2l-0.2,0.1c0-0.1,0-0.2,0.1-0.2
						c-0.2-0.1-0.4,0.1-0.6-0.1c0.1-0.1-0.2-0.3,0.1-0.4c-0.1,0.4,0.3-0.1,0.4,0.2c0-0.1-0.1-0.1,0-0.2c0,0,0.1,0,0.1,0
						c0.2-0.4-0.4-0.1-0.4-0.5c0.2,0,0.3-0.1,0.3-0.2c0,0.2-0.3,0.1-0.4,0c0.1-0.3-0.1-0.2-0.1-0.4l0,0.2c-0.2,0-0.2-0.1-0.3-0.3
						c0.1,0,0.1,0.1,0.2,0.1c-0.3-0.1,0.3-0.5,0-0.7c0.1-0.1,0.3-0.1,0.4-0.2c-0.3-0.2,0.2-0.4-0.1-0.6c-0.2,0.1-0.2,0.1-0.4,0
						c0.1,0.2,0.2,0.3,0.3,0.5l-0.4-0.3c0,0.1,0.2,0.3,0.2,0.4c-0.2-0.1-0.2-0.1-0.3,0c0.3-0.3-0.3-0.4-0.1-0.6l0.6-0.1
						c0.2-0.4-0.4-0.6-0.4-1.1l-0.1,0.2c-0.2,0-0.1-0.3-0.2-0.4c0.2,0,0.2-0.1,0.3-0.2c-0.1,0-0.1-0.3-0.5-0.3l0.2-0.3
						c0-0.4-0.7-0.3-0.7-0.6c0.2,0,0.3-0.2,0.5,0c0-0.1,0-0.2-0.2-0.2c0.1-0.1-0.3-0.2-0.2-0.4c-0.1,0-0.3,0-0.3-0.1
						c0,0,0.1,0,0.1,0c-0.1,0-0.2-0.2-0.4,0c0.5-0.5-0.3-1,0.1-1.4c-0.1-0.2-0.3-0.5-0.4-0.7c0.1,0,0.1,0,0.1,0
						c0.1-0.4-0.6,0-0.5-0.4c0.3-0.3,0.2,0.1,0.3,0c0.6-0.2-0.2-0.4,0.1-0.7l0.1,0c0.2-0.2-0.4-0.4-0.4-0.7c0,0,0.1,0,0.1,0
						c-0.4-0.1-0.6-0.5-0.7-0.7c0.3,0,0.2,0.1,0.4,0c-0.1-0.1-0.4,0.1-0.5-0.1c0.1-0.1,0.2-0.3,0.5-0.4l0.1,0.2
						c0.3-0.2-0.1-0.3,0-0.4l0.2,0c-0.1-0.4-0.5-0.3-0.6-0.7l-0.1,0.1c-0.4-0.1,0.2-0.2-0.1-0.4l0.4-0.1c-0.1-0.1-0.5-0.4-0.6-0.7
						c0.3,0.1,0.5,0.4,0.7,0.5c0-0.1-0.1-0.5-0.3-0.5c0,0.1,0.1,0.1,0.1,0.2c-0.3-0.1-0.5-0.3-0.5-0.6c0.8,0,0.1-0.8,0.7-1
						c-0.3-0.5,0.1-1,0-1.6c-0.6,0.2,0-0.2-0.6-0.1c0-0.1,0-0.2,0-0.2l0.4-0.4c0.2-0.1,0.1,0.1,0.3,0.1c0.1-0.3,0.3-0.1,0.4-0.3
						c-0.2,0-0.3-0.1-0.2-0.3l-0.3,0.2c-0.3-0.4,0.5-0.3,0.2-0.8l0.2,0.1c-0.1-0.2,0.1-0.8-0.4-1c0.1,0,0.2-0.1,0.3,0
						c0.1-0.5-0.4-1.2-0.1-1.6l0.1,0.1c0-0.1-0.3-0.2-0.1-0.3c0.1,0,0.1,0.1,0.2,0c0-0.1-0.2-0.3-0.1-0.4l0.2,0.1
						c0.3-0.5-0.3-0.8-0.3-1.3c0.4,0.1,0.6-0.3,0.7-0.5l0.1,0c0.1-0.6-0.2-1.1-0.3-1.7c0.5-0.3,0.4-1.1,0.7-1.7
						c-0.1,0.1-0.3-0.1-0.4-0.2c0.1-0.1-0.3-0.4,0.1-0.3l0,0c0.4,0,0.3-0.3,0.4-0.5l-0.5-0.1c0.8-0.5-0.1-1.5,0.6-1.7
						c-0.1-0.1-0.1-0.3-0.2-0.5l0.3,0c0.1-0.4,0.2-0.6,0.1-1l0.2,0.1c0-0.3-0.8-0.4-0.8-0.6l0.4-0.1c0-0.5,0.4-0.9,0-1.4
						c0.1,0,0.2,0,0.2,0.1c0-0.2,0.3-0.8-0.3-0.8c0.4,0,0-0.5-0.1-0.7l0.3,0c-0.4-0.2-0.5-0.2-0.6-0.5c0-0.1,0.2-0.1,0.2,0
						c0.1-0.2-0.3-0.2-0.1-0.5l0.2,0.1c0-0.2-0.1-0.2-0.3-0.3c-0.1-0.1,0.1-0.4,0.3-0.5c-0.2,0-0.4-0.1-0.3-0.3c0.1,0,0.2,0,0.2,0
						c0.2-0.4-0.3-0.6-0.1-0.9c0.1,0,0.1,0,0.2-0.1c0,0.3,0,0.6,0,0.5c0.3,0,0.3-0.3,0.7-0.1c-0.2-0.2-0.6-0.5-0.5-0.8
						c0,0,0,0,0.1,0l0,0c0-0.1,0-0.1-0.1-0.2c0-0.1,0.1-0.1,0.1-0.2c0.2,0,0.1-0.3,0.1-0.4c-0.3,0-0.2-0.1-0.5,0c0,0,0,0,0.1,0.1
						c0,0,0,0,0,0.1l0,0c0,0.1,0,0.2,0,0.3c-0.1-0.1-0.3-0.2-0.1-0.3c-0.2-0.1-0.4-0.1-0.5-0.1c0.4-0.2,0.6-0.5,0.8-0.6
						c-0.2-0.4-0.2-0.9-0.7-1.1c-0.1-0.1,0.1-0.1,0.2-0.2c0.1,0.1,0.1,0.1,0.1,0.2c-0.2-0.2-0.1-0.6-0.5-0.7
						c0.1-0.3,0.4,0.1,0.3-0.2l0.1,0c0.5-0.8-1.1-1.1-0.4-2c0,0.1-0.1,0.1-0.1,0.1c0.2-1-0.5-1.9-0.1-2.8c0.1-0.3-0.2-0.3-0.4-0.4
						l0.3-0.1l-0.4-0.2c-0.3-0.3,0.6-0.8,0.1-1.2L26.7,2c0-0.2-0.2-0.5,0-0.5c0,0-0.2,0-0.1-0.1l0.2,0l-0.3-0.4
						c0.1-0.3,0.6,0,0.6-0.5c-0.1-0.2-0.5-0.4-0.6-0.4c0,0.1-0.1,0.2-0.2,0.2L26,0.1c-0.5,0-1,0-1.2,0.4l0.3,0.2l-0.2,0.1l0-0.2
						c-0.2,0.2,0,0.2,0.1,0.3c-0.1,0-0.2,0.1-0.2,0.2l0.5,0.2c-0.2,0.1-0.4-0.1-0.4,0.1c0.2,0.1,0.4-0.2,0.6,0
						c-0.2,0.2-0.4,0.1-0.2,0.3c-0.1,0-0.2,0-0.3,0c0.2,0.1,0.1,0.4,0.4,0.4c-0.2,0.2,0.1,0.5-0.3,0.5c0.1,0,0.4,0.2,0.4,0.3
						c-0.6-0.2,0,0.5-0.5,0.5c0.5,0.1,0.3,0.6,0.6,0.9c0,0-0.1,0-0.1-0.1c0,0.2-0.2,0.2-0.2,0.4c0.4,0,0.5,0.2,0.8,0.3
						c-0.3,0.3-0.5-0.1-0.8,0c0.3-0.1,0.4,0.3,0.6,0.2c-0.2,0.2-0.1,0.2-0.4,0.3c0.5,0,0.1,0.1,0.4,0.2c-0.2,0.3-0.4,0.1-0.3,0.4
						C25.3,6.2,25.1,6,25.1,6z M26.6,12L26.6,12c0-0.1,0-0.1,0-0.1C26.5,11.9,26.5,12,26.6,12z M26.6,12.6c0-0.1,0-0.1,0-0.2
						c0.1,0,0.2,0,0.2,0C26.7,12.4,26.7,12.5,26.6,12.6z M28.5,11.3c0,0.1,0,0.1-0.1,0.1c0,0,0-0.1,0-0.1l0,0
						C28.4,11.3,28.4,11.3,28.5,11.3z"/>
					<path class="st0" d="M28.1,11.2C28.1,11.2,28.1,11.2,28.1,11.2C28,11.2,28,11.2,28.1,11.2L28.1,11.2L28.1,11.2z"/>
					<path class="st0" d="M29.5,58.1L29.5,58.1C29.4,58.1,29.4,58.2,29.5,58.1C29.4,58.1,29.4,58.1,29.5,58.1z"/>
					<polygon class="st0" points="25.9,19.6 26,19.6 26,19.6 					"/>
					<path class="st0" d="M28.1,60.9C28.1,60.9,28.1,60.9,28.1,60.9C28.1,60.9,28.1,60.9,28.1,60.9z"/>
					<path class="st0" d="M27.9,62.1l-0.1,0.2C27.8,62.2,27.9,62.1,27.9,62.1z"/>
					<path class="st0" d="M27.6,63c0,0,0.1,0,0.1,0l0,0L27.6,63z"/>
					<path class="st0" d="M27.9,48.2C27.9,48.1,27.9,48.1,27.9,48.2C27.8,48.1,27.9,48.1,27.9,48.2z"/>
					<path class="st0" d="M28.9,52.5c-0.1,0-0.1-0.1-0.1-0.1C28.7,52.5,28.7,52.5,28.9,52.5z"/>
					<polygon class="st0" points="26.5,43.5 26.6,43.5 26.5,43.5 					"/>
					<path class="st0" d="M28.8,52.2c-0.1,0.1,0,0.1,0,0.2C28.8,52.3,28.8,52.2,28.8,52.2z"/>
					<path class="st0" d="M26.7,67L26.7,67C26.7,67.1,26.7,67.1,26.7,67L26.7,67z"/>
					<path class="st0" d="M26.7,67.1L26.7,67.1C26.7,67.1,26.7,67.1,26.7,67.1z"/>
					<path class="st0" d="M26.8,67.2l0-0.1C26.7,67.2,26.7,67.2,26.8,67.2z"/>
					<path class="st0" d="M27.1,65.8L27.1,65.8C27,65.8,27,65.8,27.1,65.8z"/>
					<path class="st0" d="M27.1,65.4c0,0.1-0.3,0.2-0.2,0.3l0.1,0C26.8,65.7,27.2,65.5,27.1,65.4z"/>
					<path class="st0" d="M28.6,64.1l-0.1,0.3c0.1,0,0.3-0.1,0.3,0.1C29.2,64.1,28.5,64.5,28.6,64.1z"/>
					<path class="st0" d="M29,63.1c0,0.2,0.2,0,0.2,0C29.1,63,29.1,63,29,63.1z"/>
					<path class="st0" d="M29.9,55.9l0.3,0C30.1,55.8,30,55.9,29.9,55.9z"/>
					<polygon class="st0" points="28.6,54.5 28.4,54.6 28.7,54.6 					"/>
					<polygon class="st0" points="30.5,53.7 30.5,53.7 30.4,53.5 					"/>
					<path class="st0" d="M28.5,41.4l-0.3,0.1C28.3,41.6,28.6,41.6,28.5,41.4z"/>
					<path class="st0" d="M26.9,36.6c0.1-0.1,0.2-0.2,0.1-0.3C26.9,36.4,26.8,36.5,26.9,36.6z"/>
					<polygon class="st0" points="28.3,21.2 28.4,21.4 28.3,21.2 					"/>
				</g>
			</g>
		</g>
	</g>
</g>
<g>
	<g>
		<g>
			<g>
				<g>
					<path class="st0" d="M36.3,86.1c0-0.1,0-0.4,0-0.3l0,0.4L36.3,86.1z"/>
					<path class="st0" d="M35.9,85.2c-0.1,0.2-0.1,0.6-0.1,1c0.1-0.4,0.1-0.2,0.2-0.7c0.1,0,0.1,0.1,0.1,0.3c0-0.1,0.1,0.1,0.1-0.2
						c-0.1-0.3-0.2-0.3-0.2-0.1C35.9,85.4,35.9,85.3,35.9,85.2z"/>
					<path class="st0" d="M30.8,84.4L30.8,84.4C30.8,84.4,30.8,84.4,30.8,84.4z"/>
					<path class="st0" d="M27.6,84C27.7,84,27.7,83.9,27.6,84C27.7,83.9,27.6,84,27.6,84z"/>
					<path class="st0" d="M27.1,83.5C27.1,83.5,27.2,83.5,27.1,83.5C27.2,83.5,27.1,83.5,27.1,83.5z"/>
					<path class="st0" d="M30.8,84.4l-0.1-0.1C30.7,84.4,30.8,84.4,30.8,84.4z"/>
					<path class="st0" d="M35.2,86.3c0,0,0-0.1,0-0.1C35.2,86.2,35.2,86.2,35.2,86.3C35.2,86.2,35.2,86.2,35.2,86.3z"/>
					<path class="st0" d="M32.2,84.1L32.2,84.1c0,0,0-0.1,0.1-0.2L32.2,84.1z"/>
					<path class="st0" d="M33.3,84.1c0,0,0,0.3-0.1,0.5c0-0.1,0-0.2,0.1-0.2C33.3,84.3,33.3,84.2,33.3,84.1z"/>
					<path class="st0" d="M35,84.8L35,84.8C35,84.8,35,84.8,35,84.8z"/>
					<path class="st0" d="M31.5,84c0-0.1,0-0.1,0-0.1C31.5,83.9,31.5,84,31.5,84z"/>
					<path class="st0" d="M1.1,82.5C1.1,82.5,1.1,82.5,1.1,82.5C1.1,82.5,1.1,82.5,1.1,82.5z"/>
					<polygon class="st0" points="0.3,80.5 0.3,80.4 0.4,80.2 					"/>
					<path class="st0" d="M26.2,82.9L26.2,82.9C26.2,82.9,26.2,82.9,26.2,82.9z"/>
					<path class="st0" d="M17.1,82.2c0.1,0.3-0.2,0.4-0.1,0.8C17,82.9,17.2,82.5,17.1,82.2z"/>
					<path class="st0" d="M35.2,86.2C35.2,86.2,35.2,86.2,35.2,86.2C35.2,86.2,35.2,86.2,35.2,86.2z"/>
					<path class="st0" d="M17,83L17,83L17,83C17,83,17,83,17,83z"/>
					<path class="st0" d="M23.9,83c0,0.1,0,0.1,0,0.2C23.9,83.1,23.9,83,23.9,83z"/>
					<path class="st0" d="M25.5,83.6L25.5,83.6C25.5,83.6,25.5,83.6,25.5,83.6z"/>
					<path class="st0" d="M23,83.4C22.9,83.4,22.9,83.3,23,83.4C22.9,83.4,22.9,83.4,23,83.4C22.9,83.4,22.9,83.3,23,83.4z"/>
					<path class="st0" d="M22,83.3C22.1,83.3,22.1,83.4,22,83.3L22,83.3L22,83.3z"/>
					<path class="st0" d="M3.9,83c0-0.1,0-0.2,0-0.3C3.9,82.9,3.7,83,3.9,83z"/>
					<path class="st0" d="M35.2,86.1c0,0.1,0,0.1,0,0.2c0,0,0,0,0,0C35.2,86.2,35.2,86.1,35.2,86.1z"/>
					<path class="st0" d="M22.6,86.3l-0.1-0.1C22.5,86.2,22.6,86.3,22.6,86.3z"/>
					<path class="st0" d="M10.5,84.2L10.5,84.2C10.5,84.3,10.5,84.3,10.5,84.2z"/>
					<path class="st0" d="M22.1,86.2c0-0.1,0-0.2-0.1-0.3c0,0,0,0.1,0,0.1L22.1,86.2z"/>
					<path class="st0" d="M3.9,82.6L3.9,82.6L3.9,82.6z"/>
					<path class="st0" d="M2.8,83.3c0.1,0,0.2-0.4,0.3-0.7c0.2-0.1,0,0.4,0,0.6c0.1-0.1,0.3-0.5,0.4-0.5c0,0.1,0,0.1,0,0.2
						c0.2-0.3,0.3,0.1,0.6-0.4c0,0,0,0.1,0,0.1C3.9,82.4,4,82.2,4,82c0.1,0,0.2-0.3,0.1,0c0,0-0.1,0.1-0.1,0.2l0.1-0.1
						c0,0.5-0.1,0.1-0.2,0.5c0.2-0.1,0.4-0.4,0.5-0.3c-0.1,0.4-0.3,0.1-0.2,0.5l-0.1-0.2c0,0.7-0.1-0.1-0.1,0.7
						c0.2,0.2,0.3-0.2,0.4,0c0.1-0.2,0.1-0.4,0.2-0.6c0.4-0.4,0,1.1,0.3,0.6C5,83,5.1,82.5,5.2,82.8l-0.2,0.5
						c0.2,0.1,0.3-0.7,0.4-0.3c-0.1,0.2-0.2,0.1-0.2,0.2c0,0.4,0.2-0.3,0.3-0.2l-0.1,0.4C5.7,83.3,6,83,6.2,83
						c0,0.1-0.1,0.3-0.1,0.4c0.3-0.2,0.6,0.2,0.8,0.5l0.2-0.4c0,0,0,0.2,0,0.2c0.1,0.2,0.1-0.2,0.1-0.4c0.1,0,0,0.2,0,0.3
						c0.3-0.3,0.7-0.6,0.8-0.1L8,83.7c0.1,0.2,0.3-0.7,0.4-0.4l0,0.1c0.3,0.2,0.7,0,0.9,0.6c0.1-0.5,0.3,0.3,0.5-0.4
						c0.1,0.4,0,0.5,0.3,0.8c0.1,0,0.2-0.5,0.3-0.5l-0.1,0.4l0.2-0.4l0,0.5l0.1-0.1c0,0,0-0.2,0-0.3c0.2-0.2,0.3,0.3,0.2,0.5
						l0.4-0.3c0,0.2-0.1,0.2-0.2,0.3c0.2-0.4,0,0.4,0.2,0.1c0-0.1,0.1-0.2,0.1-0.3c0,0.3,0.2,0.3,0.4,0.2l-0.1,0.3
						c0.2,0.1,0.5,0,0.8,0c-0.1-0.1,0-0.6,0.1-0.6l0,0.4c0.1-0.3-0.1-0.2,0.1-0.5c0.1,0.1,0,0.5-0.1,0.6l0.1-0.1
						c0,0.1-0.1,0.2-0.1,0.3c0.1-0.3,0.1,0.5,0.3,0l0,0.1c0.3,0,0.4-0.1,0.6-0.1c0.1-0.4,0.1-0.3,0.2-0.5c0.1,0.1,0.3,0.4,0.5,0.4
						c0.2-0.2,0.1-0.3,0.2-0.5c0,0.3,0.2,0.3,0,0.5c0.2,0,0.3,0,0.6-0.2c0-0.1,0-0.2,0-0.3c0.1,0,0.1,0.2,0.1,0.3l0,0
						c0.4-0.4,0.6,1.1,1,0.4l0,0l0.3-0.3c0.1,0.1-0.1,0.2,0,0.5c0.4-0.5,0.4,0.1,0.7-0.2c0.1,1,0.7,0,0.8,0.7l0-0.2
						c0.1-0.2,0.1,0.1,0.1,0.2c0-0.2,0-0.2,0-0.3c0.6-0.2,1.1,0.5,1.6,0.7c0.2,0.1,0.3-1.2,0.4-0.6L19.6,86c0.5-0.5,0.8,0.1,1.3-0.3
						c0,0.1,0,0.2-0.1,0.2c0.1,0.3,0.3,0,0.3-0.2c0.1,0,0,0.2,0,0.4c0.1,0.2,0.3-0.4,0.3-0.1c0,0.1,0,0.1-0.1,0.1
						c0.1-0.1,0.3,0.1,0.2-0.3c0.1,0.2,0.3-0.1,0.4,0.1c0.1-0.4,0.2,0.2,0.3-0.3c-0.1,0.6,0.2,0.5,0.3,0.2c0,0.2,0.1,0.2,0,0.4
						c0.1,0,0.2-0.1,0.2-0.4c0.1,0.7,0.5-0.5,0.5,0.4c0.4-0.3,0.7-0.5,1-0.6c-0.1,0.6-0.3,0-0.4,0.6c0.3-0.2,0.5-0.7,0.8-0.5
						c0.1,0.1-0.1,0.2-0.1,0.3c0.3-0.2,0.5,0.1,0.8-0.2c0,0.1,0,0.1-0.1,0.2c0,0,0.1,0.1,0.1-0.2L25.5,86c0-0.4,0.3-0.8,0.3-1
						c-0.1,0.8,0.2,0.2,0,1.2c0,0,0.1-0.2,0.1-0.3c0,0.1,0,0.2,0,0.4c0.2-0.1,0.1-0.4,0.3-0.4c0,0.1,0,0.2-0.1,0.3
						c0.1-0.2,0.2-0.5,0.3-0.4c0,0.1,0,0.2,0,0.2c0.2,0,0.4-0.6,0.7-0.4c-0.1,0.6,0.1,0.2,0.1,0.7l0.1-0.1l0-0.2
						c0.1,0,0.2-0.3,0.3-0.2l-0.1,0.2l0.2-0.1l-0.1-0.2c0.1-0.2,0-0.6,0.2-0.5c0,0,0.1,0,0.2,0.3l0,0c0.1-0.2,0.1-0.3,0.2-0.2
						c0,0.2-0.1,0.5,0,0.6c0.1-0.4,0.3-0.1,0.4-0.5c0,0.1,0,0.4,0,0.4l0.1-0.3c0,0.1,0.1,0.2,0,0.4c0.2,0.1,0-0.6,0.2-0.3
						c0,0,0,0.1,0,0.1c0.2,0.2,0.4-0.2,0.6,0c0,0.5-0.2,0.1-0.1,0.5c0.3-0.1,0.6-0.6,0.8-0.4l0-0.1c0.1-0.7,0.2,0.3,0.3,0
						c0,0-0.1,0.4,0,0.3c0.2,0.1,0.4-0.2,0.6-0.4l0,0.2c0.1,0.2,0.3,0.1,0.4,0.2c0-0.2,0.1-0.1,0.1-0.4c0.3,1,0.7-0.5,0.9,0.3
						c0,0-0.1,0.2-0.1,0.2l0.3-0.2c0-0.3,0-0.2-0.1-0.4c0-0.2,0.1-0.3,0.2-0.3c-0.1,0.2,0,0.5,0,0.7c0-0.1,0-0.2,0-0.3
						c0.1,0.5,0-0.6,0.2-0.2l0,0.2c0.1-0.1,0.1-0.3,0.2-0.2c0,0.3-0.1,0.2-0.1,0.4c0.1,0,0.2-0.7,0.3-0.3c0,0.1-0.1,0.1-0.2,0.2
						c0.1,0.4,0.1,0.3,0.2,0.4l0,0l0.2,0.2l0-0.1c0.2-0.9,0.3-0.2,0.5-0.7c-0.2,0.6,0,0.3-0.1,0.7c0,0.1,0.1,0.2,0.1,0.3
						c0.1-0.3,0.1,0.3,0.3-0.2c0,0.1,0.1,0,0.1,0.3c0.1-0.1,0-0.2,0-0.4c0.2-0.4,0.4,0.5,0.6-0.1c0.2-0.2,0.3-0.7,0.4-0.9
						c0.1,0.2-0.1,0.5-0.1,0.5c0.1,0.2,0.2,0.2,0.3,0c0,0.1,0,0.2,0,0.3c0.1,0,0.1-0.5,0.2-0.3c0,0.1,0,0.4-0.1,0.5
						c0.1-0.1,0.2-0.3,0.3-0.5c0,0.2-0.1,0.3-0.1,0.5c0.1-0.1,0.3-0.2,0.3-0.5l-0.1-0.1c0,0,0,0.3,0,0.4c-0.1,0.3-0.1-0.1-0.1-0.3
						l0.1-0.1c-0.1-0.7-0.3,0.1-0.4,0.1l0.1-0.5l-0.1,0.4c0-0.1,0-0.4,0-0.5c-0.1-0.3-0.1,0.2-0.2-0.1c0,0,0-0.1,0-0.1l-0.1,0.2
						c0-0.1,0-0.4,0-0.3c-0.2-0.3-0.3,0.4-0.3,0l0,0c-0.2,0.2,0,0.4-0.2,0.9l-0.1-1l0,0.4c0,0-0.1,0-0.1-0.2c-0.1,0.3,0,0.2,0,0.4
						c-0.1-0.4-0.3,0.2-0.3-0.5c-0.1,0.3,0.1,0.2,0,0.4c0-0.7-0.1,0.1-0.2-0.2c0-0.3,0.1-0.2,0-0.5c-0.1,0.6-0.2-0.1-0.3,0
						c0,0.5-0.2,0.2-0.4,0.3c0-0.2-0.3-0.3-0.4-0.4l0-0.1c0,0.5-0.2,0.4-0.3,0.5c0-0.3,0-0.4,0.1-0.5l-0.1,0c0,0.2-0.1,0.2-0.1,0.3
						l0-0.4c-0.1,0-0.3,0.4-0.4,0.2c0,0.3,0.1,0.9-0.1,1.1c0-0.2,0-0.5,0.1-0.6c0,0-0.1,0.1-0.1,0.1l0.1-0.3
						c-0.1-0.1-0.1,0.3-0.1,0.2c0-0.3,0-0.2,0-0.4c0,0,0,0.1,0.1,0c-0.1,0-0.1-0.2-0.2-0.4c0,0.1,0,0.3-0.1,0.4
						c-0.1,0,0-0.3-0.1-0.4c0,0.2-0.1,0-0.1,0.4c0,0,0-0.2,0-0.3c-0.1,0.2-0.3,0-0.3,0.4l0,0c0,0,0,0,0,0h0h0
						c-0.2,0.4-0.5-0.2-0.7-0.1l0-0.1c-0.1,0.1-0.3,0.1-0.4,0.3c0,0-0.1-0.2-0.1-0.4c-0.1,0.1-0.1,0.2-0.3,0c0.1-0.2,0-0.2,0.1-0.2
						c-0.1-0.1-0.1-0.3-0.3,0c0.1-0.3-0.1-0.4-0.1-0.3l0.1,0.2c-0.1,0-0.1,0-0.2,0l0.1-0.4c-0.2-0.5-0.5,0.9-0.7,0
						c-0.1,0.3,0.1,0.2,0,0.6c-0.1-0.1-0.2-0.7-0.2-0.7c-0.2-0.2-0.2,0.6-0.4,0.4c0,0.2,0,0.6-0.1,0.7c-0.1-0.1-0.1-0.7,0-0.8
						c0,0,0,0,0,0.1c0-0.1,0.1-0.1,0.1-0.3l0,0.2c-0.1-0.2-0.2-0.2-0.2-0.4c-0.1,0.1-0.1,0.3,0,0.3c-0.1-0.2-0.2,0-0.4-0.2
						c0,0.1,0,0.3,0,0.3c-0.2-0.2-0.1,0.3-0.3,0.3c-0.1-0.2,0.1-0.6-0.1-0.4c-0.1-0.2,0-0.4,0.1-0.5c-0.2,0.3-0.3-0.2-0.3-0.3
						l0.1-0.1c-0.1,0.1-0.1,0.1-0.1,0.1l0,0.3c0-0.1-0.1-0.1-0.1-0.2c-0.1,0.2,0,0.5-0.1,0.8c0-0.2-0.2,0.2-0.2-0.3
						c0.2,0.2,0-0.4,0.2-0.5c0,0-0.1,0-0.1,0c0,0,0-0.1,0-0.1c-0.2-0.4-0.1,0.5-0.3,0.4c0-0.2,0-0.4,0-0.4c0.1,0,0,0.4-0.1,0.6
						c-0.1-0.2-0.1,0.1-0.2,0.1l0.1,0.1c0,0.2-0.1,0.2-0.2,0.3c0-0.2,0.1-0.1,0.1-0.2c-0.1,0.4-0.2-0.4-0.3-0.2c0-0.2,0-0.4,0-0.5
						C25,83.4,25,82.7,24.8,83c0,0.3,0,0.2-0.1,0.5l0.3-0.2l-0.2,0.4c0.1,0,0.2-0.2,0.2-0.1c-0.1,0.2-0.1,0.2-0.1,0.4
						c-0.1-0.5-0.2,0.3-0.3-0.1l0.1-0.8c-0.2-0.4-0.4,0.4-0.6,0.1l0.1,0.1c-0.1,0.3-0.2,0-0.2,0.1c0-0.3,0-0.4,0-0.5
						c0,0.2-0.2,0-0.2,0.5l-0.1-0.3c-0.2-0.2-0.3,0.7-0.5,0.6c0.1-0.3,0-0.5,0.2-0.6c-0.1,0-0.1-0.1-0.1,0.1c0-0.2-0.2,0.3-0.2,0.1
						c0,0.1-0.1,0.4-0.1,0.3c0-0.1,0-0.1,0-0.1c0,0.1-0.1,0.2-0.1,0.5c-0.1-0.8-0.5,0-0.6-0.7c-0.1,0.1-0.3,0.1-0.4,0.1
						c0-0.1,0-0.1,0-0.1c-0.1-0.3-0.2,0.7-0.3,0.4c-0.1-0.4,0.1-0.2,0.1-0.4c0.1-0.8-0.2,0.1-0.3-0.4l0,0c-0.1-0.3-0.3,0.3-0.4,0.2
						c0,0,0-0.1,0-0.1c-0.2,0.4-0.4,0.5-0.6,0.6c0.1-0.3,0.1-0.2,0.1-0.5c-0.1,0,0,0.5-0.2,0.6c0-0.2-0.1-0.4-0.1-0.7l0.1,0
						c0-0.5-0.2,0-0.2-0.1l0-0.2c-0.2,0-0.3,0.5-0.5,0.5l0,0.2c-0.2,0.5-0.1-0.3-0.2,0.1l0-0.5c-0.1,0.1-0.3,0.5-0.5,0.5
						c0.1-0.4,0.3-0.5,0.4-0.8c-0.1,0-0.3,0-0.3,0.3c0,0,0.1-0.2,0.1-0.1c-0.1,0.4-0.3,0.6-0.4,0.5c0.2-1-0.4-0.3-0.4-1.1
						c-0.3,0.3-0.5-0.2-0.8-0.2c0,0.8-0.1,0-0.2,0.8c-0.1,0-0.1,0-0.1,0l-0.2-0.5c0-0.2,0.1-0.2,0.1-0.3c-0.2-0.1,0-0.3-0.1-0.6
						c0,0.3-0.1,0.4-0.2,0.3l0.1,0.4c-0.3,0.4-0.1-0.7-0.4-0.3l0.1-0.2c-0.1,0.1-0.4-0.1-0.6,0.6c0-0.1,0-0.3,0.1-0.4
						c-0.3-0.1-0.7,0.6-0.9,0.2l0-0.2c-0.1,0-0.1,0.3-0.2,0.1c0-0.1,0-0.2,0-0.2c0,0.1-0.2,0.3-0.2,0.2l0.1-0.2
						c-0.2-0.3-0.5,0.5-0.7,0.6c0.1-0.6-0.1-0.8-0.2-0.9l0-0.1c-0.3-0.1-0.6,0.4-0.9,0.6c-0.1-0.6-0.6-0.4-0.8-0.7
						c0,0.1-0.1,0.4-0.1,0.5c0-0.1-0.3,0.4-0.2-0.2l0,0c0-0.5-0.1-0.4-0.2-0.4l-0.1,0.7c-0.1-1-0.8,0.2-0.8-0.7
						c-0.1,0.2-0.2,0.1-0.3,0.3l0.1-0.4c-0.2-0.1-0.3-0.2-0.5-0.1l0.1-0.3c-0.1,0-0.4,1-0.5,1l0.1-0.5c-0.2,0-0.4-0.6-0.7-0.1
						C9,80.9,9,80.8,9,80.8c-0.1,0-0.3-0.4-0.5,0.3c0.1-0.5-0.2-0.1-0.4,0.1l0.1-0.4c-0.2,0.4-0.2,0.6-0.4,0.7c0-0.1,0-0.3,0.1-0.2
						c-0.1-0.2-0.2,0.3-0.3,0.1l0.1-0.2c-0.1-0.1-0.1,0.1-0.2,0.3c-0.1,0.1-0.2-0.1-0.2-0.5c-0.1,0.2-0.2,0.4-0.2,0.3
						c0-0.1,0.1-0.2,0.1-0.2c-0.2-0.3-0.4,0.4-0.4,0c0-0.1,0-0.2,0-0.2C6.9,80.9,7.1,81,7,81c0.1-0.3,0-0.4,0.1-0.8
						c-0.2,0.2-0.4,0.7-0.5,0.5c0,0,0-0.1,0-0.1l0,0c0,0-0.1,0-0.1,0c0-0.1,0-0.1-0.1-0.1c0-0.3-0.1-0.2-0.2-0.2
						c-0.1,0.4-0.1,0.3-0.1,0.6c0,0,0,0,0.1,0c0,0,0,0,0,0l0,0c0,0,0.1,0,0.2,0c-0.1,0.2-0.2,0.3-0.2,0.1c-0.1,0.2-0.2,0.5-0.2,0.6
						C6.1,81,6,80.6,6,80.3c-0.2,0.2-0.5,0-0.8,0.7c-0.1,0.1,0-0.2,0-0.3c0-0.1,0.1,0,0.1-0.1c-0.1,0.1-0.3,0-0.5,0.5
						c-0.1-0.2,0.2-0.4,0-0.4l0.1-0.1c-0.2-0.8-0.9,1.1-1.1,0c0,0.1,0,0.1,0,0.2c-0.4-0.5-1.1,0.2-1.4-0.6c-0.1-0.2-0.2,0.1-0.3,0.3
						L2.2,80l-0.2,0.4c-0.3,0.3-0.1-1-0.5-0.5l0,0.3c-0.1-0.1-0.3,0.1-0.2-0.2c0,0-0.1,0.3-0.1,0.1l0-0.2l-0.3,0.3
						c-0.1-0.2,0.2-0.8,0-0.9c-0.1,0.1-0.4,0.5-0.4,0.7c0,0,0.1,0.1,0,0.3l-0.1,0.1C0.1,81-0.1,81.6,0,82.1l0.2-0.3l0,0.3l-0.1,0
						c0,0.3,0.1,0.1,0.2-0.1c0,0.2,0,0.3,0,0.3l0.3-0.5c0,0.2-0.2,0.4-0.1,0.6c0.1-0.2,0.1-0.5,0.2-0.7c0,0.3-0.1,0.5,0.1,0.3
						c0,0.2-0.1,0.2-0.1,0.3c0.1-0.2,0.2,0,0.3-0.3c0,0.3,0.3,0,0.1,0.5C1.1,82.3,1.3,82,1.4,82c-0.3,0.6,0.2,0.1,0,0.8
						c0.2-0.6,0.4-0.2,0.6-0.5c0,0-0.1,0.1-0.1,0.1c0.1,0.1,0.1,0.3,0.1,0.4c0.1-0.5,0.3-0.6,0.4-0.9c0,0.5-0.2,0.6-0.3,1
						c0.1-0.4,0.3-0.4,0.3-0.7c0,0.3,0,0.2,0,0.6c0.2-0.6,0.1-0.1,0.3-0.5c0.1,0.3-0.1,0.6,0.1,0.4C2.9,83.1,2.8,83.3,2.8,83.3z
						 M6.2,82.9L6.2,82.9C6.2,82.9,6.2,82.9,6.2,82.9C6.2,82.9,6.2,82.9,6.2,82.9z M6.5,82.9c0,0-0.1,0-0.1,0c0-0.1,0.1-0.3,0.1-0.2
						C6.4,82.8,6.5,82.8,6.5,82.9z M6.5,80.3c0.1,0,0.1,0,0,0.1c0,0,0,0-0.1,0l0,0C6.4,80.5,6.4,80.4,6.5,80.3z"/>
					<path class="st0" d="M6.3,80.8C6.3,80.8,6.3,80.8,6.3,80.8c0,0.1,0,0.1,0,0.1L6.3,80.8L6.3,80.8z"/>
					<path class="st0" d="M30.8,84.5L30.8,84.5C30.8,84.5,30.9,84.5,30.8,84.5C30.9,84.5,30.9,84.5,30.8,84.5z"/>
					<polygon class="st0" points="10.2,84.4 10.2,84.3 10.1,84.3 					"/>
					<path class="st0" d="M32.3,85.8C32.3,85.8,32.3,85.9,32.3,85.8C32.3,85.9,32.3,85.8,32.3,85.8z"/>
					<path class="st0" d="M33,85.9l0.1,0.1C33,86,33,85.9,33,85.9z"/>
					<path class="st0" d="M33.5,86.1c0-0.1,0-0.1,0-0.2l0,0L33.5,86.1z"/>
					<path class="st0" d="M25.4,86.1C25.4,86.1,25.4,86.1,25.4,86.1C25.3,86.2,25.3,86.1,25.4,86.1z"/>
					<path class="st0" d="M27.8,85.4c0,0.1-0.1,0.1-0.1,0.2C27.8,85.6,27.8,85.6,27.8,85.4z"/>
					<polygon class="st0" points="22.7,86.3 22.7,86.3 22.6,86.3 					"/>
					<path class="st0" d="M27.6,85.6c0,0.1,0.1,0.1,0.1,0C27.7,85.5,27.7,85.5,27.6,85.6z"/>
					<path class="st0" d="M35.7,86.3L35.7,86.3C35.7,86.3,35.7,86.3,35.7,86.3L35.7,86.3z"/>
					<path class="st0" d="M35.7,86.3L35.7,86.3C35.7,86.2,35.7,86.2,35.7,86.3z"/>
					<path class="st0" d="M35.8,86.1L35.8,86.1C35.7,86.2,35.8,86.2,35.8,86.1z"/>
					<path class="st0" d="M35,86.1l0,0.1C35,86.2,35,86.2,35,86.1z"/>
					<path class="st0" d="M34.8,86.2c0,0,0.1,0.3,0.2,0.2l0-0.1C35,86.5,34.8,85.9,34.8,86.2z"/>
					<path class="st0" d="M34,84.5l0.2,0.1c0-0.1-0.1-0.3,0-0.4C34,83.8,34.2,84.6,34,84.5z"/>
					<path class="st0" d="M33.5,84.3c0.1-0.1,0-0.2,0-0.3C33.4,84.1,33.4,84.2,33.5,84.3z"/>
					<path class="st0" d="M29.7,84.1l0-0.3C29.6,83.8,29.7,83.9,29.7,84.1z"/>
					<polygon class="st0" points="28.9,85.8 28.9,86 29,85.7 					"/>
					<polygon class="st0" points="28.6,83.4 28.6,83.4 28.5,83.5 					"/>
					<path class="st0" d="M22.2,83l0,0.4C22.3,83.3,22.3,82.9,22.2,83z"/>
					<path class="st0" d="M19.5,83.1c0-0.2-0.1-0.3-0.1-0.2C19.4,83,19.4,83.2,19.5,83.1z"/>
					<polygon class="st0" points="11.4,81.3 11.5,81.1 11.4,81.2 					"/>
				</g>
			</g>
		</g>
	</g>
</g>
<g>
	<g>
		<g>
			<g>
				<g>
					<path class="st0" d="M13.3,116.6c0.1,0,0.4,0,0.3,0l-0.4-0.1L13.3,116.6z"/>
					<path class="st0" d="M14.2,116.3c-0.2-0.1-0.6-0.2-1-0.2c0.4,0.1,0.2,0.1,0.7,0.2c0,0.1-0.1,0.1-0.3,0c0.1,0-0.1,0.1,0.2,0.1
						c0.3,0,0.4-0.1,0.1-0.2C14,116.3,14.1,116.3,14.2,116.3z"/>
					<path class="st0" d="M15.4,111.8L15.4,111.8C15.3,111.8,15.4,111.8,15.4,111.8z"/>
					<path class="st0" d="M16,109C16,109.1,16.1,109.1,16,109C16.1,109.1,16.1,109,16,109z"/>
					<path class="st0" d="M16.6,108.6C16.6,108.6,16.6,108.6,16.6,108.6C16.6,108.7,16.6,108.6,16.6,108.6z"/>
					<path class="st0" d="M15.4,111.8l0.1-0.1C15.4,111.7,15.4,111.8,15.4,111.8z"/>
					<path class="st0" d="M13.2,115.6c0,0,0.1,0,0.1,0.1C13.3,115.6,13.3,115.6,13.2,115.6L13.2,115.6z"/>
					<path class="st0" d="M15.5,113.1L15.5,113.1c0,0,0.1,0,0.2,0.1L15.5,113.1z"/>
					<path class="st0" d="M15.5,114.1c0,0-0.3-0.1-0.5-0.1c0.1,0,0.2,0.1,0.2,0.1C15.3,114,15.4,114.1,15.5,114.1z"/>
					<path class="st0" d="M14.7,115.5L14.7,115.5C14.7,115.5,14.7,115.5,14.7,115.5z"/>
					<path class="st0" d="M15.7,112.4c0.1,0,0.1,0,0.1,0C15.8,112.4,15.8,112.4,15.7,112.4z"/>
					<path class="st0" d="M17.8,85.4C17.8,85.4,17.9,85.4,17.8,85.4C17.8,85.4,17.8,85.4,17.8,85.4z"/>
					<polygon class="st0" points="19.8,84.5 19.8,84.6 20,84.6 					"/>
					<path class="st0" d="M17.2,107.8L17.2,107.8C17.2,107.9,17.2,107.9,17.2,107.8z"/>
					<path class="st0" d="M18.5,99.8c-0.3,0-0.4-0.2-0.8-0.2C17.8,99.6,18.2,99.8,18.5,99.8z"/>
					<path class="st0" d="M13.2,115.6C13.2,115.5,13.2,115.5,13.2,115.6C13.2,115.5,13.2,115.5,13.2,115.6z"/>
					<path class="st0" d="M17.7,99.6L17.7,99.6L17.7,99.6C17.7,99.6,17.7,99.6,17.7,99.6z"/>
					<path class="st0" d="M17.3,105.8c-0.1,0-0.1,0-0.2,0C17.2,105.8,17.3,105.8,17.3,105.8z"/>
					<path class="st0" d="M16.6,107.2L16.6,107.2C16.6,107.2,16.6,107.2,16.6,107.2z"/>
					<path class="st0" d="M17,104.9C17,104.9,17.1,104.9,17,104.9C17,104.9,17,104.9,17,104.9C17,104.9,17,104.9,17,104.9z"/>
					<path class="st0" d="M17.1,104.1C17.1,104.1,17.1,104.1,17.1,104.1L17.1,104.1L17.1,104.1z"/>
					<path class="st0" d="M17.6,87.9c0.1,0,0.2,0,0.3,0C17.7,87.9,17.6,87.7,17.6,87.9z"/>
					<path class="st0" d="M13.4,115.6c-0.1,0-0.1,0-0.2,0c0,0,0,0,0,0C13.3,115.6,13.4,115.6,13.4,115.6z"/>
					<path class="st0" d="M14.1,104.3l0.1-0.1C14.2,104.3,14.2,104.3,14.1,104.3z"/>
					<path class="st0" d="M16.6,93.7L16.6,93.7C16.6,93.7,16.6,93.7,16.6,93.7z"/>
					<path class="st0" d="M14.2,103.8c0.1,0,0.2,0,0.3,0c0,0,0,0-0.1,0L14.2,103.8z"/>
					<path class="st0" d="M17.9,87.9L17.9,87.9L17.9,87.9z"/>
					<path class="st0" d="M17.2,86.9c0,0.1,0.5,0.1,0.7,0.2c0.1,0.2-0.4,0-0.6,0c0.1,0.1,0.5,0.3,0.5,0.3c-0.1,0-0.1,0-0.2,0
						c0.4,0.2,0,0.3,0.4,0.5c0,0-0.1,0-0.1,0c0.2,0,0.5,0.1,0.7,0.1c0,0.1,0.3,0.2,0,0.1c0,0-0.1-0.1-0.2-0.1l0.1,0.1
						c-0.5,0-0.1-0.1-0.5-0.2c0.1,0.1,0.5,0.3,0.3,0.4c-0.4-0.1-0.1-0.2-0.5-0.2l0.2-0.1c-0.7,0,0.1-0.1-0.7-0.1
						c-0.2,0.2,0.2,0.2,0,0.4c0.2,0.1,0.4,0,0.6,0.1c0.4,0.3-1.1,0-0.6,0.3c0.3,0.1,0.8,0.2,0.5,0.3l-0.5-0.1
						c-0.1,0.2,0.7,0.2,0.3,0.3c-0.2-0.1-0.1-0.2-0.2-0.1c-0.4,0,0.3,0.1,0.2,0.2l-0.4-0.1c0,0.2,0.3,0.4,0.4,0.7
						c-0.1,0-0.3-0.1-0.4-0.1c0.2,0.3-0.1,0.5-0.5,0.7l0.4,0.2c0,0-0.2,0-0.2,0c-0.2,0.1,0.2,0,0.4,0.1c0,0.1-0.2,0-0.3,0
						c0.3,0.2,0.6,0.6,0.2,0.7l-0.1-0.1c-0.2,0.1,0.7,0.3,0.4,0.4l-0.1,0c-0.2,0.3,0.1,0.7-0.5,0.8c0.5,0.1-0.3,0.2,0.5,0.4
						c-0.4,0.1-0.5,0-0.8,0.2c0,0.1,0.5,0.2,0.5,0.3l-0.4-0.1l0.4,0.2l-0.5,0l0.1,0.1c0,0,0.2,0,0.3,0c0.2,0.2-0.3,0.2-0.5,0.2
						l0.3,0.3c-0.2,0-0.2-0.1-0.3-0.1c0.4,0.2-0.4-0.1-0.1,0.2c0.1,0,0.2,0.1,0.3,0.1c-0.3,0-0.3,0.2-0.2,0.3l-0.3-0.1
						c-0.1,0.2,0,0.5,0,0.7c0.1-0.1,0.6,0.1,0.6,0.1l-0.4-0.1c0.2,0.1,0.2,0,0.5,0.1c-0.1,0.1-0.5,0-0.6-0.1l0.1,0.1
						c-0.1,0-0.2-0.1-0.3-0.1c0.2,0.1-0.5,0.1,0,0.2l-0.1,0c0,0.2,0.1,0.4,0.1,0.6c0.4,0.1,0.3,0.1,0.5,0.2
						c-0.1,0.1-0.5,0.2-0.5,0.4c0.2,0.2,0.3,0.1,0.5,0.2c-0.3-0.1-0.3,0.1-0.5,0c0,0.2,0,0.3,0.2,0.6c0.1,0,0.2,0,0.3,0
						c0,0.1-0.2,0.1-0.3,0l0,0c0.4,0.4-1.1,0.5-0.4,0.8l0,0l0.3,0.3c-0.1,0.1-0.2-0.1-0.5-0.1c0.5,0.4-0.2,0.4,0.2,0.7
						c-1,0,0,0.6-0.7,0.7l0.2,0c0.2,0.1-0.1,0-0.2,0.1c0.2,0,0.2,0,0.3,0c0.2,0.5-0.5,0.9-0.8,1.4c-0.1,0.2,1.2,0.3,0.6,0.5
						l-0.4-0.1c0.4,0.5-0.2,0.7,0.2,1.2c-0.1,0-0.2-0.1-0.2-0.1c-0.3,0-0.1,0.3,0.2,0.3c0,0-0.2,0-0.4,0c-0.2,0,0.4,0.3,0,0.2
						c-0.1,0-0.1,0-0.1-0.1c0.1,0.1-0.1,0.2,0.3,0.2c-0.2,0.1,0.1,0.3-0.1,0.3c0.4,0.1-0.2,0.2,0.3,0.3c-0.6-0.1-0.5,0.1-0.3,0.3
						c-0.2-0.1-0.2,0-0.4,0c0,0.1,0.1,0.2,0.4,0.2c-0.7,0,0.5,0.5-0.4,0.4c0.3,0.3,0.4,0.6,0.5,0.9c-0.6-0.1,0-0.3-0.6-0.4
						c0.2,0.3,0.7,0.5,0.5,0.7c-0.1,0-0.2-0.1-0.3-0.1c0.2,0.3-0.1,0.5,0.1,0.7c-0.1,0-0.1,0-0.1-0.1c0,0-0.1,0.1,0.2,0.1l-0.1-0.1
						c0.4,0,0.8,0.3,1,0.4c-0.7-0.2-0.2,0.2-1.2-0.1c0,0,0.2,0.1,0.3,0.1c-0.1,0-0.2,0-0.4,0c0.1,0.2,0.4,0.2,0.4,0.3
						c-0.1,0-0.2-0.1-0.3-0.1c0.2,0.1,0.5,0.2,0.3,0.3c-0.1,0-0.2,0-0.2-0.1c0,0.2,0.6,0.5,0.3,0.6c-0.5-0.2-0.2,0-0.7,0l0.1,0.1
						l0.2,0c0,0.1,0.3,0.3,0.1,0.3l-0.2-0.1l0.1,0.2l0.2-0.1c0.2,0.1,0.6,0.1,0.5,0.2c0,0,0,0.1-0.3,0.1l0,0
						c0.1,0.1,0.3,0.2,0.2,0.2c-0.2,0-0.5-0.1-0.6-0.1c0.4,0.1,0.1,0.3,0.5,0.4c-0.1,0-0.3-0.1-0.4-0.1l0.3,0.1c-0.1,0-0.2,0-0.4,0
						c-0.1,0.1,0.6,0,0.3,0.2c0,0-0.1,0-0.1-0.1c-0.2,0.2,0.2,0.4,0,0.5c-0.5,0-0.1-0.2-0.5-0.2c0.1,0.2,0.5,0.6,0.4,0.8l0.1,0
						c0.7,0.1-0.4,0.1-0.1,0.3c0,0-0.4-0.1-0.3-0.1c-0.1,0.1,0.1,0.3,0.3,0.6l-0.2-0.1c-0.2,0.1-0.1,0.2-0.2,0.3
						c0.2,0.1,0.1,0.1,0.4,0.1c-1,0.2,0.5,0.6-0.4,0.8c0,0-0.1-0.1-0.1-0.1l0.1,0.2c0.3,0,0.2,0,0.4,0c0.2,0.1,0.3,0.1,0.3,0.2
						c-0.2-0.1-0.5-0.1-0.7,0c0.1,0,0.2,0,0.3,0c-0.5,0.1,0.6,0.1,0.2,0.2l-0.2,0c0.1,0.1,0.3,0.2,0.2,0.2c-0.3,0-0.2-0.1-0.4-0.1
						c0,0.1,0.6,0.3,0.3,0.3c-0.1-0.1-0.1-0.1-0.2-0.2c-0.4,0-0.3,0.1-0.4,0.1l0,0l-0.2,0.1l0.1,0c0.9,0.2,0.1,0.3,0.7,0.5
						c-0.5-0.2-0.3-0.1-0.7-0.1c-0.1,0-0.2,0.1-0.4,0c0.3,0.1-0.3,0.1,0.2,0.2c-0.1,0,0,0.1-0.3,0c0.1,0.1,0.2,0,0.4,0
						c0.4,0.2-0.6,0.3,0,0.6c0.2,0.2,0.6,0.3,0.8,0.5c-0.2,0-0.5-0.1-0.5-0.1c-0.2,0.1-0.2,0.1,0,0.2c-0.1,0-0.2,0-0.3,0
						c0,0.1,0.5,0.1,0.3,0.2c-0.1,0-0.4-0.1-0.5-0.1c0.1,0.1,0.3,0.2,0.4,0.3c-0.2,0-0.3-0.1-0.5-0.1c0.1,0.1,0.2,0.3,0.5,0.3l0.1,0
						c0,0-0.3,0-0.4,0c-0.3-0.1,0.1-0.1,0.3-0.1l0.1,0.1c0.7,0-0.1-0.3,0-0.4l0.5,0.1l-0.4-0.2c0.1,0,0.4,0,0.5,0.1
						c0.3-0.1-0.2-0.1,0.1-0.1c0,0,0.1,0,0.1,0l-0.2-0.1c0.1,0,0.4,0,0.3,0.1c0.3-0.1-0.4-0.3,0-0.3l0,0c-0.2-0.2-0.4-0.1-0.8-0.3
						l1,0l-0.4-0.1c0,0,0.1-0.1,0.2,0c-0.3-0.1-0.2,0-0.4-0.1c0.4-0.1-0.1-0.3,0.5-0.3c-0.3-0.1-0.2,0.1-0.4-0.1
						c0.7,0-0.1-0.1,0.2-0.2c0.3,0.1,0.1,0.1,0.5,0.1c-0.6-0.1,0.2-0.2,0-0.3c-0.5-0.1-0.2-0.2-0.3-0.3c0.2,0,0.3-0.2,0.5-0.3l0.1,0
						c-0.5-0.1-0.4-0.2-0.5-0.3c0.3,0,0.4,0.1,0.5,0.1l0-0.1c-0.1,0-0.2-0.1-0.3-0.1l0.4,0.1c0-0.1-0.4-0.3-0.1-0.4
						c-0.3-0.1-0.9,0-1.1-0.2c0.2,0,0.5,0.1,0.6,0.1c0,0-0.1-0.1-0.1-0.1l0.3,0.1c0.1-0.1-0.2-0.1-0.2-0.1c0.3,0,0.2,0,0.4,0
						c0,0-0.1,0,0,0.1c0.1-0.1,0.2-0.1,0.4-0.1c-0.1,0-0.3,0-0.4-0.1c0-0.1,0.3,0,0.5,0c-0.2-0.1,0-0.1-0.4-0.2c0,0,0.2,0,0.3,0
						c-0.2-0.1,0-0.3-0.4-0.3l0,0c0,0,0,0,0,0l0,0l0,0c-0.3-0.3,0.3-0.4,0.1-0.6l0.1,0c-0.1-0.1,0-0.3-0.3-0.4c0,0,0.2,0,0.4,0
						c-0.1-0.1-0.2-0.1,0-0.2c0.2,0.1,0.2,0,0.1,0.1c0.1-0.1,0.3-0.1,0-0.3c0.3,0.1,0.4,0,0.3-0.1l-0.2,0c0-0.1,0-0.1,0-0.2l0.4,0.1
						c0.6-0.2-0.8-0.6,0.1-0.6c-0.3-0.1-0.2,0.1-0.6,0c0.1-0.1,0.7-0.1,0.7-0.2c0.3-0.1-0.6-0.2-0.4-0.4c-0.2,0-0.6-0.1-0.7-0.2
						c0.1-0.1,0.7,0,0.8,0.1c0,0,0,0-0.1,0c0,0,0.1,0.1,0.3,0.1l-0.2,0c0.2,0,0.2-0.2,0.4-0.1c-0.1-0.1-0.2-0.1-0.3,0
						c0.2-0.1,0-0.2,0.2-0.3c-0.1,0-0.3,0-0.3,0c0.2-0.2-0.3-0.1-0.3-0.3c0.2,0,0.5,0.1,0.4-0.1c0.2-0.1,0.4,0,0.5,0.1
						c-0.3-0.2,0.2-0.2,0.3-0.3l0.1,0.1c-0.1-0.1-0.1-0.1-0.1-0.1l-0.3,0c0.1,0,0.1-0.1,0.2,0c-0.2-0.1-0.5-0.1-0.8-0.2
						c0.2,0-0.1-0.2,0.3-0.1c-0.2,0.1,0.4,0.1,0.4,0.2c0,0,0-0.1,0-0.1c0,0,0.1,0,0.1,0c0.4-0.1-0.4-0.2-0.4-0.3
						c0.2,0.1,0.4,0,0.4,0c0,0.1-0.4,0-0.5-0.1c0.2-0.1-0.1-0.1-0.1-0.2l-0.1,0.1c-0.2-0.1-0.2-0.1-0.2-0.2c0.2,0,0.1,0.1,0.2,0.1
						c-0.4-0.2,0.4-0.1,0.2-0.3c0.2,0,0.4,0.1,0.5,0c-0.3-0.2,0.3-0.1,0.1-0.3c-0.3,0-0.2,0-0.5-0.1l0.2,0.3l-0.4-0.2
						c0,0.1,0.2,0.2,0.1,0.2c-0.2-0.1-0.2-0.1-0.4-0.1c0.5,0-0.2-0.2,0.1-0.3l0.8,0.1c0.4-0.1-0.3-0.4-0.1-0.5l-0.1,0
						c-0.3-0.1,0-0.1-0.1-0.2c0.3,0.1,0.4,0,0.5,0c-0.2,0,0-0.2-0.5-0.3l0.3,0c0.2-0.1-0.7-0.3-0.6-0.5c0.3,0.1,0.5,0.1,0.6,0.2
						c0-0.1,0.1-0.1-0.1-0.1c0.2,0-0.3-0.2-0.1-0.2c-0.1,0-0.4-0.1-0.3-0.2c0.1,0,0.1,0,0.1,0c-0.1,0-0.2-0.1-0.4-0.1
						c0.8,0,0-0.5,0.7-0.5c-0.1-0.1-0.1-0.3-0.1-0.4c0.1,0,0.1,0,0.1,0c0.3-0.1-0.7-0.2-0.4-0.4c0.4,0,0.2,0.1,0.4,0.1
						c0.8,0.1-0.1-0.2,0.4-0.2l0,0c0.3,0-0.3-0.3-0.2-0.4c0,0,0.1,0,0.1,0c-0.4-0.2-0.5-0.4-0.6-0.6c0.3,0.1,0.2,0.1,0.5,0.1
						c0-0.1-0.5-0.1-0.6-0.2c0.2,0,0.4-0.1,0.7,0l0,0.1c0.5,0,0-0.2,0.1-0.2l0.2,0c0-0.2-0.5-0.3-0.5-0.5l-0.2,0
						c-0.5-0.2,0.3,0-0.1-0.2l0.5,0.1c-0.1-0.1-0.4-0.3-0.5-0.5c0.4,0.1,0.5,0.3,0.7,0.5c0-0.1,0-0.2-0.2-0.3c0,0,0.2,0.1,0.1,0.1
						c-0.4-0.2-0.6-0.3-0.5-0.4c1,0.2,0.3-0.3,1.1-0.3c-0.3-0.3,0.2-0.4,0.2-0.7c-0.8-0.1,0-0.1-0.8-0.2c0-0.1,0-0.1,0-0.1l0.5-0.1
						c0.2,0,0.2,0.1,0.3,0.1c0.1-0.1,0.3,0,0.6,0c-0.3,0-0.4-0.1-0.3-0.2l-0.4,0c-0.4-0.3,0.7,0,0.3-0.3l0.2,0.1
						c-0.1-0.1,0.1-0.4-0.5-0.6c0.1,0,0.3,0,0.4,0.1c0.1-0.2-0.6-0.7-0.1-0.8l0.2,0.1c0-0.1-0.3-0.2-0.1-0.2c0.1,0,0.2,0.1,0.2,0
						c-0.1,0-0.3-0.2-0.2-0.2l0.2,0.1c0.3-0.2-0.4-0.5-0.5-0.7c0.6,0.1,0.8,0,0.9-0.1l0.1,0c0.1-0.3-0.4-0.6-0.5-0.9
						c0.6,0,0.4-0.5,0.8-0.7c-0.1,0-0.4-0.1-0.5-0.2c0.1,0-0.4-0.2,0.2-0.1l0,0c0.5,0.1,0.4-0.1,0.4-0.2L19,94.7
						c1-0.1-0.2-0.7,0.7-0.7c-0.2-0.1-0.1-0.2-0.3-0.3l0.4,0.1c0.1-0.2,0.2-0.2,0.1-0.5l0.3,0.1c0-0.1-1-0.4-1-0.5l0.5,0.1
						c0-0.2,0.5-0.3,0.1-0.6c0.1,0,0.2,0.1,0.2,0.1c0-0.1,0.4-0.3-0.3-0.4c0.5,0.1,0.1-0.2-0.1-0.4l0.4,0.1
						c-0.4-0.2-0.6-0.2-0.7-0.4c0.1,0,0.3,0,0.2,0c0.2-0.1-0.3-0.1-0.1-0.2l0.2,0.1c0-0.1-0.1-0.1-0.3-0.2c-0.1-0.1,0.1-0.2,0.5-0.1
						c-0.2-0.1-0.4-0.2-0.3-0.2c0.1,0,0.2,0.1,0.2,0.1c0.3-0.1-0.4-0.3,0-0.4c0.1,0,0.2,0,0.2,0c0,0.1-0.1,0.3-0.1,0.2
						c0.3,0.1,0.4,0,0.8,0.1c-0.2-0.1-0.7-0.4-0.6-0.5c0,0,0.1,0,0.1,0l0,0c0,0,0,0,0-0.1c0.1,0,0.1,0,0.1-0.1
						c0.3,0,0.2-0.1,0.2-0.2c-0.4-0.1-0.3-0.1-0.6-0.1c0,0,0,0,0,0.1c0,0,0,0,0,0l0,0c0,0,0,0.1,0,0.1c-0.2-0.1-0.3-0.2-0.1-0.2
						c-0.2-0.1-0.5-0.1-0.6-0.2c0.5,0,0.8-0.1,1.1-0.1c-0.2-0.2-0.1-0.4-0.7-0.7c-0.1-0.1,0.2,0,0.3,0c0.1,0,0,0.1,0.1,0.1
						c-0.2-0.1,0-0.3-0.5-0.4c0.2-0.1,0.4,0.1,0.4,0l0.1,0c0.8-0.2-1.1-0.8-0.1-1c-0.1,0-0.1,0-0.2,0c0.5-0.4-0.3-1,0.5-1.3
						c0.2-0.1-0.1-0.2-0.4-0.3l0.4,0L20,86c-0.3-0.2,1-0.2,0.4-0.5l-0.3,0c0.1-0.1-0.1-0.3,0.2-0.2c0,0-0.3-0.1-0.1-0.1l0.2,0L20,85
						c0.2-0.1,0.8,0.1,0.9-0.1c-0.1-0.1-0.6-0.3-0.7-0.3c0,0-0.1,0.1-0.3,0l-0.1-0.1c-0.6-0.1-1.2-0.2-1.6-0.1l0.3,0.2l-0.3,0l0-0.1
						c-0.3,0,0,0.1,0.1,0.2c-0.2,0-0.3,0-0.3,0l0.6,0.2c-0.2,0-0.5-0.1-0.6-0.1c0.3,0.1,0.5,0,0.7,0.1c-0.3,0-0.5,0-0.3,0.1
						c-0.2,0-0.3,0-0.3-0.1c0.2,0.1,0.1,0.2,0.4,0.3c-0.3,0,0.1,0.2-0.5,0.1c0.1,0,0.4,0.2,0.4,0.2c-0.7-0.2-0.1,0.2-0.8,0.1
						c0.6,0.2,0.2,0.3,0.5,0.5c0,0-0.1,0-0.1-0.1c-0.1,0.1-0.2,0.1-0.4,0.1c0.5,0.1,0.6,0.2,0.9,0.3c-0.5,0-0.6-0.2-1.1-0.2
						c0.4,0.1,0.4,0.2,0.7,0.3c-0.3,0-0.2,0-0.6,0c0.6,0.1,0.1,0.1,0.5,0.2c-0.3,0.1-0.6-0.1-0.4,0.1C17.4,87.1,17.2,86.9,17.2,86.9
						z M17.8,90L17.8,90C17.8,89.9,17.8,89.9,17.8,90C17.8,89.9,17.8,89.9,17.8,90z M17.8,90.2c0,0,0-0.1,0-0.1c0.1,0,0.3,0,0.2,0.1
						C18,90.1,17.9,90.2,17.8,90.2z M20.4,90.1c0,0,0,0-0.1,0c0,0,0,0,0-0.1l0,0C20.3,90.1,20.3,90.1,20.4,90.1z"/>
					<path class="st0" d="M19.9,90C19.9,90,19.9,90,19.9,90c-0.1,0-0.1,0-0.1,0L19.9,90L19.9,90z"/>
					<path class="st0" d="M15.3,111.8L15.3,111.8C15.3,111.8,15.3,111.8,15.3,111.8C15.3,111.8,15.3,111.8,15.3,111.8z"/>
					<polygon class="st0" points="16.5,93.4 16.6,93.4 16.5,93.4 					"/>
					<path class="st0" d="M13.9,113C13.9,113,13.8,113,13.9,113C13.8,113,13.8,113,13.9,113z"/>
					<path class="st0" d="M13.7,113.6l-0.1,0.1C13.7,113.6,13.7,113.6,13.7,113.6z"/>
					<path class="st0" d="M13.5,114c0.1,0,0.1,0,0.2,0l0,0L13.5,114z"/>
					<path class="st0" d="M14.1,106.8C14.1,106.8,14.1,106.8,14.1,106.8C14.1,106.7,14.1,106.8,14.1,106.8z"/>
					<path class="st0" d="M14.6,109.1c-0.1,0-0.1-0.1-0.2-0.1C14.4,109,14.4,109,14.6,109.1z"/>
					<polygon class="st0" points="14.1,104.4 14.1,104.4 14.1,104.3 					"/>
					<path class="st0" d="M14.5,108.9C14.4,108.9,14.4,108.9,14.5,108.9C14.5,108.9,14.5,108.9,14.5,108.9z"/>
					<path class="st0" d="M13.1,116L13.1,116C13.1,116,13.2,116,13.1,116L13.1,116z"/>
					<path class="st0" d="M13.2,116L13.2,116C13.2,116,13.2,116,13.2,116z"/>
					<path class="st0" d="M13.3,116.1L13.3,116.1C13.2,116,13.2,116.1,13.3,116.1z"/>
					<path class="st0" d="M13.4,115.4l-0.1,0C13.2,115.4,13.3,115.4,13.4,115.4z"/>
					<path class="st0" d="M13.3,115.2c0,0-0.3,0.1-0.2,0.1l0.1,0C13,115.3,13.6,115.3,13.3,115.2z"/>
					<path class="st0" d="M15,114.6l-0.1,0.1c0.1,0,0.3,0,0.4,0C15.7,114.7,15,114.8,15,114.6z"/>
					<path class="st0" d="M15.3,114.2c0.1,0.1,0.2,0,0.3,0C15.5,114.2,15.4,114.1,15.3,114.2z"/>
					<path class="st0" d="M15.7,110.8l0.3,0.1C16,110.8,15.9,110.9,15.7,110.8z"/>
					<polygon class="st0" points="14.1,109.9 13.9,110 14.2,110 					"/>
					<polygon class="st0" points="16.5,109.9 16.6,110 16.5,109.8 					"/>
					<path class="st0" d="M17.4,104.3l-0.4-0.1C17.1,104.3,17.5,104.4,17.4,104.3z"/>
					<path class="st0" d="M17.5,101.8c0.2,0,0.3,0,0.2-0.1C17.6,101.8,17.4,101.8,17.5,101.8z"/>
					<polygon class="st0" points="19.6,94.7 19.7,94.8 19.6,94.6 					"/>
				</g>
			</g>
		</g>
	</g>
</g>
<g>
	<g>
		<g>
			<g>
				<g>
					<path class="st0" d="M28.4,96.9c0,0.1,0,0.4,0,0.3l0.1-0.4L28.4,96.9z"/>
					<path class="st0" d="M28.7,97.7c0.1-0.2,0.2-0.6,0.2-1c-0.1,0.4-0.1,0.2-0.2,0.7c-0.1,0-0.1-0.1-0.1-0.3c0,0.1-0.1-0.1-0.1,0.2
						c0,0.3,0.1,0.4,0.2,0.1C28.7,97.6,28.7,97.7,28.7,97.7z"/>
					<path class="st0" d="M31.9,100.5L31.9,100.5C32,100.4,31.9,100.5,31.9,100.5z"/>
					<path class="st0" d="M31.5,103.1C31.5,103,31.5,103,31.5,103.1C31.4,103,31.5,103,31.5,103.1z"/>
					<path class="st0" d="M30.9,103.2C30.9,103.2,30.9,103.2,30.9,103.2C30.9,103.2,30.9,103.2,30.9,103.2z"/>
					<path class="st0" d="M31.9,100.5l-0.1,0.1C32,100.5,31.9,100.5,31.9,100.5z"/>
					<path class="st0" d="M29.5,96.8c0,0,0,0.1-0.1,0.1C29.5,96.9,29.5,96.9,29.5,96.8L29.5,96.8z"/>
					<path class="st0" d="M31.2,99.7L31.2,99.7c0,0-0.1,0.1-0.2,0.1L31.2,99.7z"/>
					<path class="st0" d="M30.6,99.3c0,0,0.2-0.3,0.3-0.4c-0.1,0.1-0.1,0.2-0.2,0.2C30.7,99.2,30.7,99.3,30.6,99.3z"/>
					<path class="st0" d="M29.5,98.3L29.5,98.3C29.5,98.3,29.5,98.3,29.5,98.3z"/>
					<path class="st0" d="M31.4,100.2c0,0-0.1,0-0.1,0.1C31.3,100.2,31.4,100.2,31.4,100.2z"/>
					<path class="st0" d="M29.7,95.4C29.7,95.4,29.7,95.4,29.7,95.4C29.7,95.4,29.7,95.4,29.7,95.4z"/>
					<polygon class="st0" points="31.6,96.6 31.6,96.6 31.6,96.8 					"/>
					<path class="st0" d="M30.1,103.6L30.1,103.6C30.1,103.5,30.1,103.5,30.1,103.6z"/>
					<path class="st0" d="M24.5,106.7c-0.1,0.3-0.3,0.4-0.3,0.7C24.2,107.3,24.4,106.9,24.5,106.7z"/>
					<path class="st0" d="M29.5,96.9C29.6,96.9,29.6,96.9,29.5,96.9C29.6,96.8,29.6,96.8,29.5,96.9z"/>
					<path class="st0" d="M24.1,107.4L24.1,107.4L24.1,107.4C24.1,107.5,24.1,107.5,24.1,107.4z"/>
					<path class="st0" d="M29,105c0,0,0.1,0.1,0.1,0.1C29.1,105,29.1,105,29,105z"/>
					<path class="st0" d="M30.4,104.4L30.4,104.4C30.4,104.4,30.4,104.4,30.4,104.4z"/>
					<path class="st0" d="M28.7,105.8C28.6,105.8,28.6,105.8,28.7,105.8C28.6,105.8,28.6,105.9,28.7,105.8
						C28.6,105.8,28.6,105.8,28.7,105.8z"/>
					<path class="st0" d="M28,106.3C28,106.3,28,106.3,28,106.3L28,106.3L28,106.3z"/>
					<path class="st0" d="M27.2,97c0.1,0.1,0.2,0.2,0.2,0.2C27.2,97,27.3,96.9,27.2,97z"/>
					<path class="st0" d="M29.5,97c0-0.1,0-0.1,0.1-0.2c0,0,0,0,0,0C29.5,96.9,29.5,97,29.5,97z"/>
					<path class="st0" d="M30.2,108.2l-0.2,0C30.1,108.3,30.2,108.3,30.2,108.2z"/>
					<path class="st0" d="M22.5,102.3L22.5,102.3C22.4,102.2,22.4,102.2,22.5,102.3z"/>
					<path class="st0" d="M29.7,108.6c-0.1-0.1-0.2-0.1-0.2-0.2c0,0,0,0.1,0,0.1L29.7,108.6z"/>
					<path class="st0" d="M27.4,97.2L27.4,97.2L27.4,97.2z"/>
					<path class="st0" d="M27.8,95.9c-0.1,0.1,0.2,0.4,0.3,0.7c-0.1,0.2-0.3-0.3-0.4-0.4c0,0.2,0.1,0.6,0.1,0.6
						c0-0.1-0.1-0.1-0.1-0.2c0.1,0.4-0.3,0.2-0.1,0.7c0,0-0.1-0.1-0.1-0.1c0.2,0.2,0.3,0.4,0.4,0.5c0,0,0.1,0.3-0.1,0.1
						c0,0,0-0.1-0.1-0.2l0,0.1c-0.3-0.3,0-0.2-0.2-0.5c0,0.2,0.1,0.6-0.1,0.5c-0.3-0.3,0.1-0.3-0.2-0.5l0.2,0
						c-0.5-0.5,0.1,0-0.4-0.6c-0.3,0-0.1,0.3-0.3,0.4c0.1,0.2,0.2,0.3,0.3,0.5c0,0.5-0.9-0.7-0.7-0.1c0.1,0.3,0.5,0.7,0.2,0.6
						l-0.3-0.4c-0.2,0.1,0.4,0.6,0,0.5c-0.1-0.2,0-0.2,0-0.3c-0.4-0.2,0.1,0.3,0,0.3L25.8,98c-0.1,0.2-0.1,0.6-0.2,0.8
						c-0.1-0.1-0.1-0.2-0.3-0.3c-0.1,0.4-0.5,0.4-0.9,0.5l0.2,0.3c0,0-0.2-0.1-0.2-0.2c-0.2,0,0.2,0.2,0.2,0.3
						c0,0.1-0.2-0.1-0.3-0.2c0.1,0.4,0.2,0.9-0.3,0.8L24,100c-0.2,0,0.5,0.6,0.1,0.5l0-0.1c-0.4,0.2-0.3,0.7-0.9,0.6
						c0.4,0.3-0.4,0.2,0.2,0.6c-0.4,0-0.5-0.2-0.9,0c-0.1,0.1,0.3,0.3,0.4,0.5l-0.3-0.2l0.3,0.3l-0.5-0.2l0,0.1c0,0,0.2,0,0.3,0.1
						c0.1,0.2-0.4,0.2-0.6,0.1l0.1,0.5c-0.1-0.1-0.2-0.2-0.2-0.2c0.3,0.3-0.4-0.2-0.1,0.2c0.1,0,0.2,0.1,0.3,0.2
						c-0.3,0-0.3,0.1-0.3,0.3l-0.2-0.1c-0.2,0.2-0.1,0.5-0.2,0.8c0.2,0,0.6,0.2,0.6,0.2l-0.4-0.1c0.2,0.1,0.2,0,0.4,0.2
						c-0.1,0.1-0.5-0.1-0.6-0.2l0.1,0.2c-0.1,0-0.2-0.1-0.3-0.2c0.2,0.1-0.5,0.1-0.1,0.3l-0.1,0c-0.1,0.3,0,0.4,0,0.7
						c0.3,0.1,0.2,0.2,0.5,0.3c-0.2,0.2-0.5,0.4-0.6,0.7c0.2,0.2,0.3,0.1,0.5,0.2c-0.3,0-0.3,0.3-0.6,0.2c0,0.4,0,0.5,0.4,0.8
						c0.1-0.1,0.2-0.1,0.3-0.1c0.1,0.1-0.1,0.2-0.3,0.2l0,0c0.3,0.2,0.2,0.5,0.1,0.8c0,0.3,0,0.7,0.4,0.6l0,0c0.2,0,0.4,0,0.6,0
						c0.1,0.2-0.3,0.1-0.3,0.4c0.4-0.1,0.5,0,0.6,0.2c0.1,0.1,0.3,0.3,0.5,0.1c-0.1,0.5,0.2,0.6,0.5,0.6c0.3,0,0.6-0.1,0.8,0.3
						l0-0.2c0.1-0.2,0.1,0.1,0.2,0.2c0-0.2-0.1-0.2,0-0.3c0.7-0.2,1.4,0.3,2.2,0.3c0.3,0-0.2-1.2,0.3-0.7l0,0.4
						c0.3-0.6,1-0.3,1.2-0.9c0,0.1,0.1,0.2,0,0.2c0.2,0.2,0.3-0.1,0.2-0.4c0.1,0,0.1,0.2,0.2,0.3c0.2,0.1,0-0.5,0.2-0.2
						c0,0,0,0.1,0,0.1c0-0.2,0.3-0.1,0-0.4c0.2,0.1,0.2-0.3,0.4-0.2c-0.1-0.4,0.3,0,0.1-0.5c0.3,0.5,0.5,0.3,0.4,0
						c0.1,0.2,0.2,0.1,0.3,0.3c0.1-0.1,0.1-0.2-0.1-0.5c0.6,0.5,0-0.7,0.6,0c0.1-0.5,0.2-0.8,0.4-1.1c0.4,0.5-0.2,0.3,0.2,0.7
						c0.1-0.4-0.1-0.9,0.2-1c0.1,0,0.1,0.2,0.2,0.3c0.1-0.4,0.5-0.4,0.4-0.8c0,0,0.1,0.1,0.1,0.1c0-0.1,0.2,0-0.1-0.2l0,0.1
						c-0.3-0.2-0.5-0.7-0.6-0.8c0.5,0.6,0.3-0.1,1,0.6c0-0.1-0.1-0.2-0.2-0.3c0.1,0,0.2,0,0.3,0.2c0-0.3-0.3-0.4-0.1-0.5
						c0.1,0.1,0.1,0.1,0.2,0.2c-0.1-0.2-0.3-0.4-0.1-0.5c0.1,0.1,0.2,0.1,0.1,0.1c0.1-0.2-0.3-0.7,0-0.8c0.5,0.3,0.2,0,0.6,0.2
						l-0.1-0.2l-0.2,0c0.1-0.1-0.2-0.4,0-0.4l0.1,0.2l0-0.3l-0.2,0.1c-0.2-0.2-0.6-0.2-0.4-0.3c0,0,0-0.1,0.3-0.1l0,0
						c-0.1-0.1-0.3-0.2-0.1-0.3c0.2,0,0.5,0.2,0.6,0.2c-0.4-0.2,0-0.3-0.4-0.5c0.1,0,0.3,0.1,0.4,0.1l-0.3-0.1c0.1,0,0.2,0,0.4,0
						c0.1-0.2-0.6-0.1-0.3-0.2c0,0,0.1,0,0.1,0.1c0.2-0.2-0.1-0.4,0-0.6c0.5,0,0.1,0.2,0.5,0.2c-0.1-0.3-0.5-0.6-0.4-0.9l-0.1,0.1
						c-0.7,0,0.3-0.2,0-0.3c0.1,0,0.4,0,0.3,0c0.1-0.2-0.2-0.4-0.5-0.6l0.2,0c0.1-0.1,0-0.3,0.1-0.5c-0.2,0-0.2-0.1-0.4,0.1
						c0.4-0.3,0.2-0.5,0-0.6c-0.2-0.1-0.5-0.1-0.2-0.5c0,0,0.2,0,0.2,0c-0.1-0.1-0.2-0.1-0.3-0.2c-0.2,0.2-0.1,0.1-0.3,0.3
						C32.1,99,32,99.1,31.9,99c0.2,0,0.4-0.3,0.4-0.5c-0.1,0.1-0.1,0.1-0.2,0.2c0.3-0.5-0.5,0.4-0.3,0l0.1-0.1c-0.1,0-0.3,0.1-0.3,0
						c0.2-0.3,0.2-0.1,0.3-0.3c-0.1-0.1-0.6,0.4-0.4,0.1c0.1-0.1,0.1,0,0.2-0.1c0.2-0.4,0.1-0.3,0-0.4l0,0c0-0.1-0.1-0.2-0.1-0.3
						l0,0.1c-0.6,0.7-0.3,0-0.8,0.4c0.4-0.4,0.2-0.3,0.3-0.6c0-0.1,0-0.3,0-0.4c-0.2,0.3-0.1-0.3-0.4,0.1c0-0.1-0.1,0,0-0.3
						c-0.2,0.1,0,0.2-0.1,0.4c-0.3,0.3-0.3-0.6-0.7-0.1c-0.3,0.2-0.4,0.6-0.6,0.8c0-0.2,0.1-0.4,0.1-0.4c-0.1-0.2-0.2-0.2-0.3-0.1
						c0-0.1,0-0.2,0-0.3c-0.1,0-0.1,0.4-0.2,0.2c0-0.1,0.1-0.4,0.2-0.5c-0.1,0.1-0.2,0.3-0.3,0.4c0-0.2,0.1-0.3,0.2-0.5
						C29.1,97,29,97,28.9,97.4l0.1,0.1c0,0,0-0.3,0.1-0.4c0.1-0.3,0.1,0.1,0.1,0.3L29,97.5c0,0.7,0.3-0.1,0.4,0L29.3,98l0.2-0.4
						c0,0.1,0,0.4-0.1,0.5c0,0.3,0.1-0.2,0.1,0.1c0,0,0,0.1,0,0.1l0.1-0.1c0,0.1-0.1,0.4-0.1,0.3c0.1,0.3,0.3-0.3,0.3,0.1l0,0
						c0.3-0.1,0.1-0.4,0.4-0.8c0,0.3-0.1,0.7-0.2,1l0.1-0.4c0,0,0.1,0.1,0,0.2c0.2-0.2,0-0.2,0.2-0.4c0,0.4,0.4-0.1,0.1,0.5
						c0.1-0.3,0-0.3,0.2-0.4c-0.2,0.6,0.2-0.1,0.1,0.3c-0.2,0.3-0.2,0.1-0.2,0.4c0.3-0.5,0.1,0.2,0.2,0.1C31,98.7,31,99,31.2,99
						c-0.1,0.1,0,0.3,0,0.5l-0.1,0.1c0.3-0.3,0.4-0.2,0.5-0.2c-0.2,0.2-0.3,0.2-0.4,0.3c0,0,0,0,0,0c0.1-0.1,0.2-0.1,0.3-0.1
						l-0.3,0.2c0.1,0,0.4-0.1,0.3,0.1c0.3-0.1,0.7-0.6,1-0.5c-0.2,0.1-0.4,0.2-0.5,0.2c0,0,0.2,0,0.1,0l-0.3,0.1
						c-0.1,0.1,0.2-0.1,0.2,0c-0.2,0.1-0.1,0.1-0.3,0.2c0,0,0.1-0.1,0-0.1c0,0.1-0.1,0.2-0.3,0.3c0.1-0.1,0.3-0.1,0.4-0.1
						c0.1,0.1-0.3,0.1-0.4,0.2c0.2,0,0,0.1,0.4,0c0,0-0.2,0.1-0.3,0.1c0.2,0,0.1,0.2,0.5,0.1l0,0c0,0,0,0,0,0l0,0l0,0
						c0.4,0.1-0.1,0.4,0,0.6l-0.1,0c0.2,0.1,0.1,0.2,0.4,0.3c0,0-0.2,0.1-0.4,0.1c0.1,0.1,0.2,0.1,0,0.2c-0.2-0.1-0.2,0-0.2-0.1
						c-0.1,0.1-0.3,0.1,0,0.2c-0.3-0.1-0.4,0-0.3,0.1l0.2,0c0,0.1,0,0.1,0,0.2l-0.4-0.1c-0.5,0.1,0.8,0.5-0.1,0.5
						c0.3,0.1,0.2-0.1,0.6,0.1c-0.1,0.1-0.7,0-0.7,0c-0.3,0,0.6,0.3,0.4,0.4c0.1,0,0.5,0.2,0.6,0.3c-0.1,0.1-0.6-0.1-0.7-0.2
						c0,0,0,0,0.1,0c0-0.1-0.1-0.1-0.3-0.1l0.1,0.1c-0.2,0-0.2,0.1-0.4,0c0.1,0.1,0.2,0.1,0.3,0.1c-0.3,0-0.1,0.2-0.3,0.2
						c0.1,0,0.3,0.1,0.2,0.1c-0.3,0.1,0.2,0.2,0.2,0.4c-0.2-0.1-0.5-0.3-0.4-0.1c-0.2,0-0.4-0.2-0.5-0.3c0.2,0.2-0.3,0.1-0.3,0.1
						l-0.1-0.1c0,0.1,0,0.1,0,0.1l0.3,0.2c-0.1,0-0.1,0-0.2-0.1c0.1,0.1,0.4,0.3,0.6,0.5c-0.2-0.1,0,0.2-0.3,0
						c0.2,0-0.3-0.2-0.3-0.4c0,0,0,0.1-0.1,0.1c0,0-0.1-0.1-0.1-0.1c-0.4-0.1,0.3,0.3,0.2,0.4c-0.2-0.2-0.4-0.3-0.3-0.2
						c0,0,0.3,0.2,0.4,0.4c-0.2,0,0,0.2,0,0.2l0.1,0c0.2,0.2,0.1,0.2,0.1,0.3c-0.1-0.1,0-0.1-0.1-0.2c0.2,0.3-0.4-0.2-0.3,0.1
						c-0.1-0.1-0.3-0.3-0.4-0.3c0.1,0.3-0.3-0.1-0.2,0.1c0.2,0.2,0.2,0.1,0.3,0.4l0-0.3l0.2,0.4c0.1,0,0-0.2,0-0.2
						c0.1,0.2,0.1,0.2,0.3,0.3c-0.4-0.3,0,0.3-0.3,0.2l-0.5-0.6c-0.3-0.2,0,0.5-0.2,0.5l0.1,0.1c0.2,0.3-0.1,0.1-0.1,0.3
						c-0.2-0.2-0.2-0.3-0.4-0.4c0.1,0.1-0.1,0.1,0.2,0.5l-0.3-0.2c-0.2,0,0.3,0.7,0.1,0.7c-0.1-0.3-0.3-0.4-0.3-0.6c0,0-0.1,0,0,0.2
						c-0.1-0.1,0.1,0.4-0.1,0.2c0,0.1,0.2,0.3,0.1,0.4c0,0-0.1-0.1-0.1-0.1c0.1,0.1,0,0.2,0.2,0.4c-0.6-0.6-0.4,0.3-0.9-0.2
						c-0.1,0.1-0.2,0.3-0.2,0.3c0-0.1-0.1-0.1,0-0.1c-0.2-0.1,0.3,0.7,0,0.5c-0.3-0.3,0-0.2-0.1-0.4c-0.4-0.7-0.1,0.2-0.5-0.2l0-0.1
						c-0.2-0.2-0.1,0.4-0.2,0.4c0,0,0-0.1,0-0.1c0.1,0.4,0,0.6-0.1,0.8c-0.1-0.3,0-0.2-0.1-0.5c0,0.1,0.2,0.5,0.1,0.6
						c-0.1-0.2-0.2-0.3-0.4-0.6l0.1-0.1c-0.2-0.4-0.1,0.1-0.2,0l-0.1-0.2c-0.1,0.1,0,0.6-0.2,0.6l0.1,0.1c0,0.5-0.1-0.3-0.2,0.1
						l-0.1-0.5c0,0.1-0.1,0.5-0.3,0.6c0-0.4,0.1-0.6,0.2-0.8c-0.1,0-0.2,0.1-0.2,0.3c0-0.1,0-0.2,0.1-0.1c0,0.4-0.1,0.6-0.2,0.6
						c0-1-0.4-0.2-0.4-1c-0.1,0.2-0.2,0.1-0.3,0.1c0-0.1,0-0.2-0.1-0.2c-0.2,0.7,0,0-0.3,0.8c-0.1,0-0.1,0-0.1,0
						c0-0.2,0.1-0.3,0.1-0.5c0.1-0.2,0.1-0.1,0.2-0.3c0-0.1,0.2-0.3,0.3-0.5c-0.2,0.2-0.2,0.3-0.2,0.2c-0.1,0.1-0.1,0.2-0.2,0.3
						c-0.3,0.3,0.4-0.6,0.1-0.3l0.2-0.2c-0.1,0.1,0,0-0.6,0.4c0.1-0.1,0.3-0.2,0.3-0.2c0,0-0.1,0-0.3,0c-0.2,0-0.3,0-0.1-0.1l0.2,0
						c-0.1,0-0.4,0.1-0.2,0c0.1,0,0.2,0,0.2,0c-0.1,0-0.4,0-0.2,0l0.2,0c0.3-0.1-0.5-0.1-0.6-0.3c0.6,0.1,0.8,0.1,0.9,0.1l0.1,0
						c0.1-0.2-0.3-0.6-0.4-0.9c0.6,0.1,0.4-0.4,0.9-0.5c-0.1,0-0.4-0.2-0.4-0.3c0.1,0-0.3-0.3,0.2-0.1l0,0c0.5,0.2,0.4,0,0.5-0.1
						l-0.6-0.3c1,0.2,0-0.8,0.8-0.5c-0.1-0.1-0.1-0.2-0.2-0.3l0.3,0.2c0.2-0.1,0.2-0.1,0.3-0.4l0.2,0.2c0.1-0.1-0.8-0.7-0.8-0.8
						l0.5,0.3c0.1-0.2,0.6-0.1,0.3-0.5c0.1,0.1,0.2,0.2,0.2,0.2c0.1-0.1,0.5-0.1-0.1-0.5c0.4,0.3,0.2-0.1,0.1-0.4l0.3,0.2
						c-0.3-0.4-0.4-0.5-0.4-0.6c0.1,0,0.2,0.2,0.1,0.1c0.2,0-0.2-0.3,0-0.3l0.1,0.2c0.1-0.1,0-0.1-0.2-0.4c-0.1-0.2,0.2-0.1,0.5,0.1
						c-0.1-0.1-0.3-0.4-0.2-0.4c0.1,0.1,0.1,0.1,0.2,0.2c0.3,0-0.1-0.5,0.2-0.3c0.1,0.1,0.1,0.1,0.2,0.1c-0.1,0.1-0.2,0.2-0.2,0.1
						c0.2,0.2,0.4,0.2,0.6,0.6c-0.1-0.2-0.4-0.7-0.2-0.7c0,0,0.1,0,0.1,0.1l0,0c0,0,0,0,0-0.1c0.1,0,0.1,0,0.1,0
						c0.2,0.2,0.2,0,0.2,0c-0.2-0.3-0.2-0.3-0.4-0.5c0,0,0,0,0,0.1c0,0,0,0,0,0l0,0c0,0-0.1,0.1-0.1,0.1c-0.1-0.2-0.2-0.3,0-0.2
						c-0.1-0.2-0.3-0.4-0.3-0.5c0.4,0.3,0.7,0.4,0.9,0.7c0-0.3,0.2-0.4-0.1-1c0-0.1,0.2,0.1,0.3,0.2c0,0.1,0,0.1,0,0.2
						c0-0.2,0.2-0.2-0.1-0.6c0.2,0.1,0.2,0.4,0.3,0.2l0.1,0.1c0.7,0.4-0.2-1.3,0.6-0.7c-0.1,0-0.1-0.1-0.1-0.1
						c0.6,0.1,0.6-0.8,1.3-0.4c0.2,0.1,0-0.2,0-0.5l0.2,0.3l-0.1-0.5c0-0.4,0.7,0.8,0.6,0.1l-0.1-0.2c0.1,0,0.2-0.2,0.3,0
						c0,0-0.1-0.3,0-0.1l0.1,0.2l0.1-0.4c0.2,0.1,0.3,0.8,0.5,0.7c0-0.1,0-0.6,0-0.8c0,0-0.1-0.1-0.2-0.3l0-0.1
						c-0.2-0.6-0.3-1.2-0.6-1.5l0,0.4l-0.1-0.3l0.1-0.1c-0.2-0.2-0.1,0-0.1,0.2c-0.1-0.1-0.1-0.2-0.2-0.3l0.1,0.6
						c-0.1-0.2-0.1-0.5-0.2-0.6c0,0.3,0.3,0.5,0.2,0.7c-0.2-0.2-0.2-0.4-0.2-0.2c-0.1-0.1-0.1-0.2-0.1-0.3c0,0.2-0.2,0.2-0.1,0.5
						c-0.2-0.3-0.2,0.2-0.4-0.3c0,0.1,0.1,0.5,0,0.5c-0.2-0.7-0.3,0.1-0.5-0.6c0.2,0.6-0.2,0.4-0.2,0.8c0,0,0-0.1,0-0.1
						c-0.1,0-0.2-0.2-0.3-0.2c0.2,0.5,0.1,0.6,0.2,0.9c-0.3-0.4-0.2-0.6-0.5-1c0.2,0.4,0,0.5,0.2,0.7c-0.2-0.2-0.1-0.1-0.4-0.4
						c0.3,0.6,0,0.1,0.1,0.5C28,96.4,28,96.1,28,96.3C27.8,96.2,27.8,95.9,27.8,95.9z M25.7,98.9L25.7,98.9
						C25.7,98.9,25.7,98.9,25.7,98.9C25.7,98.9,25.7,98.9,25.7,98.9z M25.5,99.1C25.5,99.1,25.5,99.1,25.5,99.1
						c0.2,0,0.3,0.1,0.3,0.1C25.7,99.2,25.6,99.2,25.5,99.1z M27.6,100.6c0,0.1-0.1,0-0.1,0c0,0,0,0,0-0.1l0,0
						C27.5,100.5,27.6,100.5,27.6,100.6z"/>
					<path class="st0" d="M27.3,100.2C27.3,100.2,27.3,100.2,27.3,100.2C27.3,100.1,27.3,100.1,27.3,100.2L27.3,100.2L27.3,100.2z"
						/>
					<path class="st0" d="M32,100.4L32,100.4C32,100.4,32,100.4,32,100.4C32,100.4,32,100.4,32,100.4z"/>
					<polygon class="st0" points="22.5,101.9 22.6,101.9 22.5,101.9 					"/>
					<path class="st0" d="M32.4,98.5C32.4,98.5,32.4,98.5,32.4,98.5C32.4,98.5,32.4,98.5,32.4,98.5z"/>
					<path class="st0" d="M31.8,97.9l0-0.2C31.8,97.9,31.8,97.9,31.8,97.9z"/>
					<path class="st0" d="M31.4,97.5c0,0.1-0.1,0.1-0.1,0.1l0,0L31.4,97.5z"/>
					<path class="st0" d="M32.2,106C32.2,106,32.2,106,32.2,106C32.2,106.1,32.2,106.1,32.2,106z"/>
					<path class="st0" d="M32.9,103.3c0.1,0,0.1,0.1,0.1,0.1C33.1,103.4,33.1,103.4,32.9,103.3z"/>
					<polygon class="st0" points="30.2,108.2 30.2,108.2 30.2,108.2 					"/>
					<path class="st0" d="M33,103.5c0.1,0,0.1-0.1,0-0.1C33,103.4,32.9,103.5,33,103.5z"/>
					<path class="st0" d="M29.1,96.7L29.1,96.7C29,96.7,29,96.7,29.1,96.7L29.1,96.7z"/>
					<path class="st0" d="M29,96.7L29,96.7C29,96.8,29,96.8,29,96.7z"/>
					<path class="st0" d="M28.9,96.9L28.9,96.9C29,96.8,28.9,96.8,28.9,96.9z"/>
					<path class="st0" d="M29.7,97l0-0.1C29.7,96.9,29.7,96.9,29.7,97z"/>
					<path class="st0" d="M29.9,97c0,0-0.1-0.3-0.2-0.2l0,0.1C29.8,96.7,29.9,97.2,29.9,97z"/>
					<path class="st0" d="M30.3,98.8l-0.1-0.1c0,0.1,0,0.3-0.1,0.3C30.1,99.4,30.2,98.7,30.3,98.8z"/>
					<path class="st0" d="M30.6,99.1c-0.1,0-0.1,0.2-0.1,0.3C30.6,99.3,30.6,99.3,30.6,99.1z"/>
					<path class="st0" d="M31.8,101.4l-0.3,0C31.5,101.5,31.6,101.4,31.8,101.4z"/>
					<polygon class="st0" points="33.5,102.3 33.7,102.2 33.4,102.1 					"/>
					<polygon class="st0" points="31.1,102.2 31,102.2 31.1,102.3 					"/>
					<path class="st0" d="M27.9,105.9l0.2,0.3C28.1,106.2,27.9,105.8,27.9,105.9z"/>
					<path class="st0" d="M26,107.2c-0.1-0.2-0.2-0.3-0.2-0.1C25.9,107.1,25.9,107.3,26,107.2z"/>
					<polygon class="st0" points="25,104.1 25.1,104.2 25.1,104.1 					"/>
				</g>
			</g>
		</g>
	</g>
</g>
<g>
	<g>
		<g>
			<g>
				<g>
					<path class="st0" d="M39.8,121.6c0.1,0,0.4-0.1,0.3-0.1l-0.4,0.1L39.8,121.6z"/>
					<path class="st0" d="M40.6,121.1c-0.2,0-0.6,0-1,0.1c0.4,0,0.2,0,0.7-0.1c0.1,0-0.1,0.1-0.3,0.1c0.1,0-0.1,0.1,0.2,0
						c0.3-0.1,0.3-0.2,0-0.2C40.4,121.2,40.5,121.1,40.6,121.1z"/>
					<path class="st0" d="M40.5,117.4L40.5,117.4C40.5,117.4,40.5,117.4,40.5,117.4z"/>
					<path class="st0" d="M40.3,115.1C40.3,115.1,40.3,115.1,40.3,115.1C40.4,115.1,40.3,115.1,40.3,115.1z"/>
					<path class="st0" d="M40.7,114.6C40.7,114.6,40.7,114.6,40.7,114.6C40.7,114.6,40.7,114.6,40.7,114.6z"/>
					<path class="st0" d="M40.5,117.4l0.1-0.1C40.5,117.3,40.5,117.3,40.5,117.4z"/>
					<path class="st0" d="M39.4,120.8c0,0,0.1,0,0.1,0C39.5,120.8,39.5,120.8,39.4,120.8L39.4,120.8z"/>
					<path class="st0" d="M41,118.3L41,118.3c0.1,0,0.1,0,0.2,0L41,118.3z"/>
					<path class="st0" d="M41.2,119c0,0-0.3,0-0.5,0.1c0.1,0,0.2,0,0.3,0C41.1,119.1,41.1,119.1,41.2,119z"/>
					<path class="st0" d="M40.9,120.4L40.9,120.4C40.9,120.4,40.9,120.4,40.9,120.4z"/>
					<path class="st0" d="M41,117.7c0.1,0,0.1,0,0.1,0C41.1,117.7,41,117.7,41,117.7z"/>
					<path class="st0" d="M35.1,96.5C35.2,96.5,35.2,96.5,35.1,96.5C35.2,96.5,35.1,96.5,35.1,96.5z"/>
					<polygon class="st0" points="36.9,95.5 36.9,95.5 37.1,95.4 					"/>
					<path class="st0" d="M41,113.8L41,113.8C41.1,113.8,41.1,113.8,41,113.8z"/>
					<path class="st0" d="M39.7,107.4c-0.3,0.1-0.4-0.1-0.8,0.1C39.1,107.4,39.5,107.5,39.7,107.4z"/>
					<path class="st0" d="M39.5,120.8C39.5,120.8,39.5,120.8,39.5,120.8C39.5,120.8,39.5,120.8,39.5,120.8z"/>
					<path class="st0" d="M38.9,107.5L38.9,107.5L38.9,107.5C38.9,107.5,38.9,107.5,38.9,107.5z"/>
					<path class="st0" d="M40.5,112.2c-0.1,0-0.1,0-0.2,0C40.4,112.3,40.5,112.2,40.5,112.2z"/>
					<path class="st0" d="M40.2,113.5L40.2,113.5C40.2,113.5,40.2,113.5,40.2,113.5z"/>
					<path class="st0" d="M39.9,111.7C39.9,111.7,40,111.6,39.9,111.7C39.9,111.6,39.9,111.6,39.9,111.7
						C39.9,111.6,40,111.7,39.9,111.7z"/>
					<path class="st0" d="M39.8,111C39.8,111,39.8,111,39.8,111L39.8,111L39.8,111z"/>
					<path class="st0" d="M35.5,98.5c0.1,0,0.2,0,0.3-0.1C35.6,98.5,35.5,98.4,35.5,98.5z"/>
					<path class="st0" d="M39.6,120.8c-0.1,0-0.1,0-0.2,0c0,0,0,0,0,0C39.6,120.8,39.6,120.8,39.6,120.8z"/>
					<path class="st0" d="M37.1,112.1l0-0.1C37.1,112,37.1,112.1,37.1,112.1z"/>
					<path class="st0" d="M36.1,103.3L36.1,103.3C36.1,103.3,36.1,103.3,36.1,103.3z"/>
					<path class="st0" d="M37,111.7c0.1,0,0.2-0.1,0.2-0.1c0,0-0.1,0-0.1,0L37,111.7z"/>
					<path class="st0" d="M35.9,98.5L35.9,98.5L35.9,98.5z"/>
					<path class="st0" d="M34.9,97.9c0,0.1,0.5,0,0.7,0c0.1,0.1-0.3,0.1-0.6,0.2c0.1,0.1,0.6,0.1,0.6,0.1c-0.1,0-0.1,0-0.2,0
						c0.4,0,0,0.2,0.5,0.3c0,0-0.1,0-0.1,0c0.2,0,0.5-0.1,0.7-0.1c0,0,0.3,0.1,0,0.1c0,0-0.1,0-0.2,0l0.1,0c-0.4,0.1-0.2,0-0.5,0
						c0.2,0.1,0.5,0.1,0.4,0.2c-0.4,0.1-0.2-0.2-0.5,0l0.2-0.1c-0.7,0.2,0-0.1-0.7,0.1c-0.1,0.2,0.2,0.1,0.1,0.3c0.2,0,0.4,0,0.6,0
						c0.5,0.2-1.1,0.3-0.5,0.4c0.3,0,0.9,0,0.6,0.1l-0.5,0c0,0.1,0.7,0,0.4,0.2c-0.2,0-0.2-0.1-0.2-0.1c-0.4,0.1,0.3,0,0.3,0.1
						l-0.4,0.1c0.1,0.1,0.4,0.3,0.5,0.4c-0.1,0-0.3,0-0.4,0c0.2,0.2,0,0.5-0.2,0.7l0.4,0c0,0-0.2,0.1-0.2,0c-0.1,0.1,0.2,0,0.4,0
						c0,0-0.2,0.1-0.3,0.1c0.3,0.1,0.7,0.3,0.3,0.5l-0.1,0c-0.1,0.1,0.8,0,0.5,0.2l-0.1,0c-0.1,0.3,0.2,0.5-0.3,0.8
						c0.6,0-0.2,0.3,0.5,0.2c-0.4,0.2-0.5,0.2-0.7,0.4c0,0.1,0.5,0,0.6,0.1l-0.4,0.1l0.4,0l-0.5,0.1l0.1,0c0,0,0.2-0.1,0.3-0.1
						c0.2,0.1-0.2,0.3-0.5,0.3l0.4,0.2c-0.2,0-0.2,0-0.3,0c0.4,0.1-0.4,0.1,0,0.1c0.1,0,0.2,0,0.3,0c-0.2,0.1-0.2,0.2-0.1,0.3
						l-0.3,0c0,0.2,0.2,0.3,0.2,0.5c0.1-0.1,0.6-0.1,0.6-0.1l-0.4,0.1c0.3,0,0.2-0.1,0.5,0c0,0.1-0.5,0.1-0.6,0.1l0.2,0.1
						c-0.1,0-0.2,0-0.4,0c0.3,0-0.4,0.2,0.1,0.2l-0.1,0c0,0.2,0.2,0.3,0.2,0.4c0.4,0,0.3,0,0.6,0c-0.1,0.1-0.4,0.3-0.3,0.4
						c0.2,0.1,0.3,0,0.5,0c-0.3,0.1-0.3,0.2-0.5,0.1c0.1,0.2,0.1,0.2,0.4,0.4c0.1,0,0.2-0.1,0.3-0.1c0.1,0-0.1,0.1-0.3,0.1l0,0
						c0.5,0.2-0.9,0.7-0.2,0.8l0,0l0.4,0.1c0,0.1-0.3,0-0.4,0.1c0.6,0.1,0,0.3,0.4,0.5c-1,0.3,0.1,0.5-0.5,0.7l0.2,0
						c0.2,0-0.1,0.1-0.2,0.1c0.2,0,0.2-0.1,0.3-0.1c0.3,0.3-0.2,0.8-0.4,1.3c0,0.2,1.2-0.1,0.7,0.2l-0.4,0c0.6,0.2,0.1,0.6,0.6,0.8
						c-0.1,0-0.2,0-0.2,0c-0.3,0.1,0,0.2,0.3,0.2c0,0-0.2,0-0.3,0.1c-0.2,0.1,0.4,0.1,0.1,0.2c0,0-0.1,0-0.1,0c0.2,0,0,0.2,0.3,0.1
						c-0.2,0.1,0.2,0.2,0,0.3c0.4,0-0.2,0.2,0.4,0.1c-0.6,0.1-0.4,0.3-0.2,0.3c-0.2,0-0.2,0.1-0.4,0.1c0,0.1,0.1,0.1,0.4,0.1
						c-0.7,0.3,0.6,0.2-0.3,0.4c0.4,0.2,0.6,0.4,0.8,0.5c-0.6,0.1-0.1-0.2-0.7-0.1c0.3,0.2,0.8,0.2,0.7,0.4c-0.1,0.1-0.3,0-0.4,0
						c0.3,0.2,0,0.4,0.4,0.5c-0.1,0-0.1,0-0.2,0c0,0-0.1,0.1,0.2,0l-0.1,0c0.4-0.1,0.8,0,1,0c-0.8,0.1-0.2,0.2-1.1,0.3
						c0.1,0,0.2,0,0.4,0c0,0-0.1,0.1-0.4,0.1c0.2,0.1,0.4,0,0.4,0.1c-0.1,0-0.2,0-0.3,0c0.3,0,0.5,0,0.4,0.1c-0.1,0-0.2,0-0.2,0
						c0.1,0.2,0.7,0.2,0.5,0.4c-0.6,0-0.2,0.1-0.6,0.2l0.2,0.1l0.2-0.1c0,0.1,0.4,0.1,0.2,0.2l-0.2,0l0.1,0.1l0.2-0.1
						c0.3,0,0.6-0.1,0.5,0c-0.1,0,0,0.1-0.3,0.2l0,0c0.2,0,0.3,0,0.2,0.1c-0.1,0-0.5,0.1-0.6,0.1c0.4,0,0.1,0.2,0.6,0.1
						c-0.1,0-0.4,0-0.4,0.1l0.3,0c-0.1,0.1-0.1,0.1-0.3,0.1c0,0.1,0.6-0.1,0.4,0c0,0-0.1,0-0.1,0c-0.1,0.2,0.3,0.2,0.1,0.4
						c-0.5,0.1-0.1-0.1-0.5,0c0.1,0.2,0.6,0.3,0.6,0.5l0,0c0.7-0.1-0.3,0.2,0,0.2c-0.1,0-0.4,0-0.3,0c-0.1,0.1,0.2,0.2,0.5,0.4
						l-0.2,0c-0.1,0.1-0.1,0.2-0.1,0.3c0.2,0,0.2,0,0.4,0c-0.9,0.4,0.6,0.3-0.2,0.7c0,0-0.2,0-0.2,0l0.2,0.1
						c0.3-0.1,0.2-0.1,0.4-0.1c0.2,0,0.3,0,0.3,0.1c-0.2,0-0.5,0.1-0.6,0.2c0.1,0,0.2,0,0.3-0.1c-0.5,0.2,0.6-0.1,0.3,0.1l-0.2,0
						c0.1,0,0.3,0,0.3,0.1c-0.3,0.1-0.2,0-0.5,0c0,0.1,0.7,0,0.3,0.1c-0.1,0-0.1-0.1-0.2-0.1c-0.4,0.2-0.3,0.1-0.3,0.2l0,0l-0.2,0.2
						l0.1-0.1c0.9-0.1,0.2,0.2,0.8,0.2c-0.6,0-0.3,0-0.7,0.1c-0.1,0.1-0.2,0.1-0.3,0.1c0.3,0-0.2,0.1,0.2,0.1c-0.1,0,0,0.1-0.3,0.1
						c0.1,0.1,0.2-0.1,0.4-0.1c0.4,0-0.5,0.4,0.2,0.4c0.3,0.1,0.7,0,0.9,0.1c-0.2,0.1-0.5,0.1-0.5,0.1c-0.2,0.1-0.1,0.2,0,0.2
						c-0.1,0-0.2,0-0.3,0.1c0,0,0.5-0.1,0.3,0.1c-0.1,0-0.4,0-0.5,0c0.1,0,0.4,0.1,0.5,0.1c-0.2,0.1-0.3,0-0.5,0
						c0.1,0.1,0.2,0.2,0.6,0.1l0.1-0.1c0,0-0.3,0.1-0.4,0.1c-0.3,0,0.1-0.1,0.2-0.1l0.1,0c0.7-0.2-0.2-0.2-0.1-0.3l0.5-0.1l-0.5,0
						c0.1,0,0.4-0.1,0.5-0.1c0.2-0.1-0.2,0,0.1-0.1c0,0,0.1,0,0.1,0l-0.2,0c0.1,0,0.4-0.1,0.3,0c0.3-0.2-0.4-0.1,0-0.2l0,0
						c-0.2-0.1-0.4,0.1-0.9,0l0.9-0.3l-0.4,0.1c0,0,0-0.1,0.2-0.1c-0.3,0-0.2,0-0.4,0.1c0.3-0.2-0.2-0.2,0.4-0.3
						c-0.3,0-0.2,0.1-0.4,0.1c0.7-0.2-0.1-0.1,0.2-0.2c0.3,0,0.2,0.1,0.5-0.1c-0.6,0.1,0.1-0.2,0-0.2c-0.5,0.1-0.2-0.1-0.4-0.2
						c0.2,0,0.2-0.3,0.4-0.4l0.1,0c-0.5,0.1-0.4,0-0.5-0.1c0.3-0.1,0.4-0.1,0.5,0l0-0.1c-0.2,0-0.2,0-0.3,0l0.4-0.1
						c0-0.1-0.5-0.1-0.2-0.3c-0.3,0.1-0.9,0.3-1.1,0.2c0.2,0,0.5-0.1,0.6-0.1c0,0-0.2,0-0.1,0l0.3,0c0.1-0.1-0.3,0-0.2,0
						c0.3,0,0.2-0.1,0.4-0.1c0,0-0.1,0.1,0,0.1c0-0.1,0.2-0.1,0.4-0.2c-0.1,0-0.3,0.1-0.4,0c0-0.1,0.3-0.1,0.4-0.2
						c-0.2,0,0-0.1-0.4,0c0,0,0.2-0.1,0.3-0.1c-0.2,0-0.1-0.2-0.5-0.1l0,0c0,0,0,0,0,0l0,0l0,0c-0.4-0.1,0.2-0.4,0-0.5l0.1,0
						c-0.2-0.1-0.1-0.2-0.4-0.2c0,0,0.2-0.1,0.4-0.1c-0.1-0.1-0.3,0-0.1-0.2c0.2,0,0.2-0.1,0.2,0c0.1-0.1,0.3-0.2-0.1-0.2
						c0.3,0,0.4-0.1,0.3-0.2l-0.2,0.1c-0.1,0,0-0.1,0-0.1L41,116c0.5-0.3-0.9-0.2-0.1-0.5c-0.3,0-0.2,0.1-0.5,0.2
						c0-0.1,0.6-0.3,0.6-0.3c0.2-0.2-0.6,0-0.5-0.2c-0.1,0-0.6,0.1-0.7,0.1c0-0.1,0.6-0.2,0.7-0.2c0,0,0,0-0.1,0c0.1,0,0.1,0,0.3,0
						l-0.2,0c0.1-0.1,0.1-0.2,0.4-0.2c-0.2,0-0.3,0-0.3,0.1c0.2-0.2,0-0.2,0.1-0.3c-0.1,0-0.3,0.1-0.3,0.1c0.2-0.2-0.3,0-0.4-0.1
						c0.2-0.1,0.6-0.1,0.3-0.2c0.1-0.1,0.4-0.1,0.5-0.1c-0.3-0.1,0.2-0.2,0.2-0.3l0.1,0c-0.1,0-0.1,0-0.1-0.1l-0.3,0.1
						c0,0,0-0.1,0.2-0.1c-0.2,0-0.5,0.1-0.8,0.1c0.1-0.1-0.2-0.1,0.2-0.2c-0.1,0.2,0.4-0.1,0.5,0c-0.1,0-0.1,0,0-0.1
						c0,0,0.1,0,0.1,0c0.3-0.2-0.5,0-0.5-0.1c0.2,0,0.4-0.1,0.4-0.1c0,0.1-0.4,0.1-0.6,0.1c0.2-0.1-0.1-0.1-0.1-0.1l-0.1,0.1
						c-0.2,0-0.2,0-0.3-0.1c0.2,0,0.1,0,0.2,0c-0.4,0,0.4-0.2,0.1-0.3c0.1-0.1,0.4-0.1,0.5-0.1c-0.3-0.1,0.3-0.2,0-0.2
						c-0.3,0.1-0.2,0.1-0.5,0.1l0.2,0.1l-0.5,0c0,0.1,0.2,0.1,0.2,0.1c-0.3,0-0.2,0-0.4,0.1c0.4-0.2-0.3-0.1,0-0.2l0.8-0.1
						c0.3-0.2-0.4-0.2-0.3-0.4l-0.1,0.1c-0.3,0-0.1-0.1-0.2-0.1c0.3,0,0.3-0.1,0.5-0.1c-0.2,0,0-0.1-0.5-0.1l0.3-0.1
						c0.1-0.2-0.7,0-0.7-0.2c0.3,0,0.5-0.1,0.7,0c0,0,0-0.1-0.1-0.1c0.2-0.1-0.4-0.1-0.1-0.1c-0.1,0-0.4,0-0.4,0c0.1,0,0.1,0,0.1,0
						c-0.1,0-0.2,0-0.5,0c0.8-0.3-0.1-0.4,0.5-0.6c-0.1-0.1-0.2-0.2-0.2-0.3c0.1,0,0.1,0,0.1,0c0.2-0.2-0.7,0-0.5-0.1
						c0.4-0.1,0.2,0,0.4,0c0.8-0.2-0.1-0.1,0.3-0.3l0.1,0c0.3-0.1-0.3-0.1-0.3-0.2c0,0,0.1,0,0.1,0c-0.4,0-0.6-0.1-0.7-0.2
						c0.3,0,0.2,0,0.5-0.1c-0.1,0-0.5,0.1-0.6,0c0.2-0.1,0.3-0.2,0.7-0.2l0,0.1c0.5-0.1,0-0.1,0-0.2l0.2,0c-0.1-0.1-0.6-0.1-0.6-0.2
						l-0.1,0c-0.5,0,0.3-0.1-0.1-0.1l0.5-0.1c-0.1,0-0.5-0.1-0.6-0.2c0.4,0,0.6,0.1,0.8,0.1c0-0.1-0.1-0.2-0.3-0.2
						c0.1,0,0.2,0,0.1,0.1c-0.4,0-0.6-0.1-0.6-0.2c1-0.1,0.2-0.3,1-0.5c-0.4-0.1,0.1-0.4,0-0.6c-0.8,0.2,0-0.1-0.8,0.1
						c-0.1,0,0-0.1,0-0.1l0.4-0.2c0.2-0.1,0.2,0,0.4,0c0-0.1,0.3-0.1,0.5-0.2c-0.3,0.1-0.4,0-0.3-0.1l-0.3,0.1
						c-0.4-0.1,0.6-0.2,0.2-0.3l0.3,0c-0.2-0.1,0-0.3-0.7-0.3c0.1,0,0.3-0.1,0.4,0c0.1-0.2-0.7-0.3-0.4-0.6l0.2,0
						c-0.1,0-0.4,0-0.2-0.1c0.1,0,0.2,0,0.2,0c-0.1,0-0.4-0.1-0.2-0.1l0.2,0c0.2-0.2-0.6-0.2-0.7-0.4c0.6-0.1,0.7-0.3,0.8-0.3l0.1,0
						c0-0.2-0.5-0.3-0.8-0.5c0.6-0.2,0.2-0.5,0.5-0.7c-0.1,0-0.4,0.1-0.5,0c0.1-0.1-0.4-0.1,0.1-0.1l0,0c0.5-0.1,0.4-0.2,0.4-0.3
						l-0.7,0.1c1-0.3-0.4-0.5,0.4-0.7c-0.2,0-0.2-0.1-0.4-0.1l0.4,0c0.1-0.1,0.1-0.2,0-0.4l0.3,0c0-0.1-1.1,0-1.1-0.1l0.5-0.1
						c0-0.2,0.4-0.4-0.1-0.5c0.1,0,0.2,0,0.3,0c0-0.1,0.3-0.4-0.4-0.2c0.5-0.1,0-0.2-0.2-0.2l0.4,0c-0.5,0-0.6,0-0.7-0.1
						c0,0,0.3-0.1,0.2,0c0.2-0.1-0.3,0-0.2-0.2l0.2,0c0-0.1-0.1-0.1-0.4-0.1c-0.2,0,0.1-0.2,0.4-0.2c-0.2,0-0.5,0-0.4-0.1
						c0.1,0,0.2,0,0.2,0c0.2-0.2-0.4-0.2-0.1-0.3c0.1,0,0.2,0,0.2,0c0,0.1,0,0.2,0,0.2c0.3,0,0.4-0.1,0.8-0.1
						c-0.3,0-0.8-0.1-0.7-0.2c0,0,0.1,0,0.1,0l0,0c0,0,0,0-0.1-0.1c0.1,0,0.1-0.1,0.1-0.1c0.3,0,0.1-0.1,0.1-0.2
						c-0.4,0-0.3,0-0.6,0.1c0,0,0,0,0.1,0c0,0,0,0,0,0l0,0c0,0,0,0.1,0,0.1c-0.2,0-0.3,0-0.2-0.1c-0.2,0-0.5,0-0.6,0
						c0.5-0.1,0.8-0.3,1.1-0.3c-0.2-0.1-0.2-0.3-0.9-0.3c-0.1,0,0.2-0.1,0.3-0.1c0.1,0,0.1,0,0.2,0c-0.2-0.1-0.1-0.2-0.6-0.2
						c0.2-0.1,0.4,0,0.4-0.1l0.1,0c0.7-0.4-1.3-0.3-0.3-0.7c-0.1,0-0.1,0-0.2,0.1c0.4-0.4-0.5-0.7,0.2-1.1c0.1-0.1-0.2-0.1-0.4-0.1
						l0.4-0.1l-0.5-0.1c-0.3-0.1,0.9-0.3,0.3-0.5l-0.3,0c0-0.1-0.2-0.2,0.1-0.2c0,0-0.3,0-0.1,0l0.2,0l-0.4-0.1
						c0.1-0.1,0.8-0.1,0.8-0.2c-0.1-0.1-0.6-0.1-0.7-0.1c0,0-0.1,0.1-0.3,0.1l-0.1-0.1c-0.6,0-1.2,0.1-1.6,0.2l0.4,0.1l-0.3,0.1
						l0-0.1c-0.3,0.1,0,0.1,0.1,0.1c-0.2,0-0.3,0-0.3,0.1l0.6,0.1c-0.2,0-0.5,0-0.6,0.1c0.3,0,0.5-0.1,0.7,0
						c-0.3,0.1-0.5,0.1-0.3,0.1c-0.2,0-0.3,0-0.3,0c0.2,0,0.1,0.1,0.4,0.1c-0.3,0.1,0.1,0.2-0.5,0.2c0.1,0,0.5,0.1,0.5,0.1
						c-0.7,0,0,0.2-0.8,0.2c0.6,0,0.3,0.2,0.6,0.3c0,0-0.1,0-0.1,0c0,0.1-0.2,0.1-0.3,0.2c0.5,0,0.6,0.1,1,0.1
						c-0.5,0.1-0.6,0-1.1,0.1c0.4,0,0.4,0.1,0.8,0c-0.3,0.1-0.1,0.1-0.6,0.1c0.6-0.1,0.1,0,0.5,0.1c-0.3,0.1-0.6,0.1-0.4,0.2
						C35.1,97.9,34.9,97.9,34.9,97.9z M36.3,100.1L36.3,100.1C36.2,100.1,36.2,100.1,36.3,100.1C36.2,100.1,36.2,100.1,36.3,100.1z
						 M36.3,100.3C36.3,100.3,36.3,100.3,36.3,100.3c0.1-0.1,0.3-0.1,0.3-0.1C36.5,100.2,36.4,100.3,36.3,100.3z M38.8,99.6
						C38.8,99.6,38.7,99.7,38.8,99.6c-0.1,0-0.1,0-0.1,0l0,0C38.6,99.6,38.7,99.6,38.8,99.6z"/>
					<path class="st0" d="M38.3,99.6C38.3,99.6,38.3,99.6,38.3,99.6c-0.1,0-0.1,0-0.1,0L38.3,99.6L38.3,99.6z"/>
					<path class="st0" d="M40.4,117.4L40.4,117.4C40.4,117.4,40.4,117.4,40.4,117.4C40.4,117.4,40.4,117.4,40.4,117.4z"/>
					<polygon class="st0" points="35.9,103.1 36,103.1 35.9,103.1 					"/>
					<path class="st0" d="M39.4,118.7C39.4,118.7,39.3,118.7,39.4,118.7C39.3,118.7,39.4,118.7,39.4,118.7z"/>
					<path class="st0" d="M39.4,119.2l-0.1,0.1C39.4,119.2,39.4,119.2,39.4,119.2z"/>
					<path class="st0" d="M39.3,119.6c0.1,0,0.1,0,0.2,0l0,0L39.3,119.6z"/>
					<path class="st0" d="M37.8,114C37.8,114,37.8,114,37.8,114C37.7,113.9,37.8,114,37.8,114z"/>
					<path class="st0" d="M39,115.5c-0.1,0-0.1,0-0.2,0C38.8,115.5,38.8,115.6,39,115.5z"/>
					<polygon class="st0" points="37.1,112.1 37.1,112.1 37.1,112.1 					"/>
					<path class="st0" d="M38.8,115.4C38.7,115.5,38.7,115.5,38.8,115.4C38.8,115.5,38.8,115.4,38.8,115.4z"/>
					<path class="st0" d="M39.5,121.2L39.5,121.2C39.5,121.2,39.5,121.2,39.5,121.2L39.5,121.2z"/>
					<path class="st0" d="M39.5,121.2L39.5,121.2C39.6,121.2,39.6,121.2,39.5,121.2z"/>
					<path class="st0" d="M39.7,121.2L39.7,121.2C39.6,121.2,39.6,121.2,39.7,121.2z"/>
					<path class="st0" d="M39.5,120.7l-0.1,0C39.4,120.7,39.5,120.7,39.5,120.7z"/>
					<path class="st0" d="M39.5,120.5c0,0-0.3,0.1-0.2,0.2l0.1,0C39.2,120.7,39.7,120.5,39.5,120.5z"/>
					<path class="st0" d="M41,119.6l-0.1,0.1c0.1,0,0.3-0.1,0.4-0.1C41.6,119.4,40.9,119.8,41,119.6z"/>
					<path class="st0" d="M41.1,119.2c0.1,0.1,0.2,0,0.3-0.1C41.2,119.1,41.2,119.1,41.1,119.2z"/>
					<path class="st0" d="M40.6,116.5l0.3-0.1C40.8,116.4,40.8,116.5,40.6,116.5z"/>
					<polygon class="st0" points="38.8,116.3 38.6,116.4 38.9,116.4 					"/>
					<polygon class="st0" points="41,115.6 41.1,115.6 41,115.5 					"/>
					<path class="st0" d="M40.1,111.1l-0.4,0.1C39.8,111.2,40.3,111.1,40.1,111.1z"/>
					<path class="st0" d="M39.4,109.2c0.2-0.1,0.3-0.1,0.1-0.1C39.5,109.1,39.4,109.2,39.4,109.2z"/>
					<polygon class="st0" points="39.2,103.2 39.4,103.3 39.3,103.2 					"/>
				</g>
			</g>
		</g>
	</g>
</g>
<g>
	<g>
		<g>
			<g>
				<g>
					<path class="st0" d="M39.8,102.6c0,0.1,0.1,0.4,0.1,0.3l-0.1-0.4L39.8,102.6z"/>
					<path class="st0" d="M40.2,103.3c0-0.2,0-0.6-0.2-1c0.1,0.4,0,0.2,0.1,0.7c0,0.1-0.1-0.1-0.1-0.3c0,0.1-0.1-0.1,0,0.2
						c0.1,0.3,0.2,0.3,0.2,0C40.2,103.1,40.2,103.3,40.2,103.3z"/>
					<path class="st0" d="M43.6,103L43.6,103C43.6,103,43.6,103,43.6,103z"/>
					<path class="st0" d="M45.6,102.3C45.6,102.3,45.6,102.3,45.6,102.3C45.6,102.4,45.6,102.3,45.6,102.3z"/>
					<path class="st0" d="M46.2,102.5C46.2,102.5,46.2,102.5,46.2,102.5C46.2,102.5,46.2,102.6,46.2,102.5z"/>
					<path class="st0" d="M43.6,103l0.1,0.1C43.6,102.9,43.6,103,43.6,103z"/>
					<path class="st0" d="M40.4,102.2c0,0,0,0.1,0,0.1C40.4,102.3,40.4,102.3,40.4,102.2L40.4,102.2z"/>
					<path class="st0" d="M42.8,103.6L42.8,103.6c0,0.1,0,0.1,0,0.2L42.8,103.6z"/>
					<path class="st0" d="M42.2,103.9c0,0-0.1-0.3-0.1-0.5c0,0.1,0,0.2,0,0.2C42.1,103.7,42.1,103.8,42.2,103.9z"/>
					<path class="st0" d="M40.9,103.6L40.9,103.6C40.9,103.7,40.9,103.6,40.9,103.6z"/>
					<path class="st0" d="M43.4,103.5c0,0,0,0.1,0.1,0.1C43.4,103.6,43.4,103.6,43.4,103.5z"/>
					<path class="st0" d="M36.1,97.3C36.1,97.3,36.1,97.3,36.1,97.3C36.1,97.3,36.1,97.3,36.1,97.3z"/>
					<polygon class="st0" points="35.3,95.5 35.4,95.4 35.4,95.2 					"/>
					<path class="st0" d="M47.1,102.5L47.1,102.5C47.1,102.6,47.1,102.6,47.1,102.5z"/>
					<path class="st0" d="M46.9,95.1c-0.1,0.3-0.3,0.3-0.4,0.6C46.5,95.6,46.8,95.3,46.9,95.1z"/>
					<path class="st0" d="M40.4,102.3C40.4,102.3,40.4,102.3,40.4,102.3C40.4,102.2,40.4,102.2,40.4,102.3z"/>
					<path class="st0" d="M46.4,95.8L46.4,95.8L46.4,95.8C46.4,95.8,46.4,95.8,46.4,95.8z"/>
					<path class="st0" d="M48.4,101c-0.1,0-0.1-0.1-0.1-0.1C48.3,101,48.4,101,48.4,101z"/>
					<path class="st0" d="M47,101.7L47,101.7C47.1,101.7,47,101.7,47,101.7z"/>
					<path class="st0" d="M48.5,100C48.5,100,48.5,100,48.5,100C48.5,99.9,48.5,99.9,48.5,100C48.5,100,48.5,100,48.5,100z"/>
					<path class="st0" d="M48.7,99.1C48.7,99.1,48.7,99.1,48.7,99.1L48.7,99.1L48.7,99.1z"/>
					<path class="st0" d="M38.1,97.1c0-0.1,0-0.2-0.1-0.3C38,97,38,97.1,38.1,97.1z"/>
					<path class="st0" d="M40.4,102.4c0-0.1,0-0.1,0-0.2c0,0,0,0,0,0C40.4,102.3,40.4,102.4,40.4,102.4z"/>
					<path class="st0" d="M45.8,98.9L45.8,98.9C45.8,98.9,45.8,98.9,45.8,98.9z"/>
					<path class="st0" d="M42.2,96.8L42.2,96.8C42.1,96.8,42.2,96.8,42.2,96.8z"/>
					<path class="st0" d="M45.8,98.8c0.1,0,0.2,0,0.3,0c0,0-0.1,0-0.1,0L45.8,98.8z"/>
					<path class="st0" d="M38,96.7L38,96.7L38,96.7z"/>
					<path class="st0" d="M37.4,97.7c0.1,0,0-0.5,0-0.7c0.1-0.1,0.1,0.4,0.1,0.6c0.1-0.1,0.1-0.6,0.1-0.6c0,0.1,0,0.1,0,0.2
						c0-0.4,0.2,0,0.3-0.5c0,0,0,0.1,0,0.1c0-0.2-0.1-0.5-0.1-0.7c0,0,0.1-0.3,0.1,0c0,0,0,0.1,0,0.2l0-0.1c0.1,0.4,0,0.2,0,0.5
						c0.1-0.2,0.1-0.5,0.2-0.4c0.1,0.4-0.1,0.2,0,0.5l-0.1-0.2c0.1,0.7-0.1,0,0.1,0.7c0.1,0.1,0.1-0.2,0.3-0.1c0-0.2,0-0.4,0-0.6
						c0.1-0.5,0.2,1.1,0.3,0.5c0-0.3,0-0.9,0.1-0.6l0,0.5c0.1,0,0-0.7,0.2-0.4c0,0.2-0.1,0.2-0.1,0.2c0.1,0.4,0-0.3,0.1-0.3l0.1,0.4
						c0.1-0.1,0.2-0.4,0.4-0.5c0,0.1,0,0.3,0,0.4c0.2-0.2,0.4,0,0.6,0.3l0-0.4c0,0,0,0.2,0,0.2c0.1,0.1,0-0.2,0-0.4
						c0,0,0.1,0.2,0.1,0.3c0.1-0.3,0.3-0.7,0.4-0.3l0,0.1c0.1,0.1,0.1-0.8,0.2-0.4l0,0.1c0.2,0.2,0.4-0.2,0.6,0.4
						c0-0.6,0.2,0.2,0.2-0.5c0.1,0.4,0.1,0.5,0.2,0.8c0,0,0.1-0.5,0.1-0.6l0,0.4l0.1-0.4l0,0.5l0.1-0.1c0,0,0-0.2,0-0.3
						c0.1-0.2,0.2,0.3,0.2,0.5l0.2-0.3c0,0.2,0,0.2-0.1,0.3c0.1-0.4,0,0.4,0.1,0.1c0-0.1,0-0.2,0-0.3c0,0.2,0.1,0.3,0.2,0.2l0,0.3
						c0.1,0.1,0.3-0.1,0.4-0.1c0-0.1,0.1-0.6,0.1-0.6l0,0.4c0.1-0.3,0-0.2,0.1-0.5c0,0.1,0,0.5-0.1,0.6l0.1-0.1c0,0.1,0,0.2-0.1,0.3
						c0.1-0.3,0,0.4,0.1,0l0,0.1c0.1,0,0.2-0.1,0.3-0.1c0.1-0.4,0.1-0.3,0.2-0.5c0.1,0.1,0.1,0.4,0.2,0.4c0.1-0.2,0.1-0.3,0.2-0.5
						c-0.1,0.3,0,0.3-0.1,0.5c0.1,0,0.2,0,0.4-0.2c0-0.1,0-0.2,0.1-0.3c0,0,0,0.2,0,0.3l0,0c0.4-0.4,0,1,0.3,0.5l0,0l0.3-0.3
						c0,0.1-0.1,0.2-0.2,0.4c0.4-0.4,0.1,0.2,0.4-0.1c-0.5,0.9,0.3,0.1,0,0.7l0.1-0.2c0.2-0.2-0.1,0.1-0.1,0.2
						c0.1-0.1,0.1-0.2,0.2-0.3c0.4-0.1,0.1,0.6,0,0.8c0,0.1,1-0.6,0.6-0.3l-0.4,0.2c0.2-0.1,0.2-0.1,0.2,0c0,0,0,0.1,0.2,0.1
						c-0.1,0-0.2,0-0.2,0c-0.3,0.1,0,0,0.2,0c0,0-0.2,0-0.4,0c-0.2,0,0.4,0,0.1,0c-0.1,0-0.1,0-0.1,0c0.2,0,0,0,0.3,0
						c-0.2,0,0.2,0.1-0.1,0.1c0.4,0.1-0.2,0,0.4,0.1c-0.6-0.2-0.5-0.1-0.2,0C46,98.9,46,99,45.8,98.9c0,0,0.1,0.1,0.4,0.2
						c-0.6-0.3,0.4,0.4-0.3-0.1c0.2,0.2,0.3,0.5,0.3,0.7c-0.4-0.4,0.1-0.1-0.4-0.6c0.1,0.2,0.4,0.6,0.2,0.6c-0.1,0-0.2-0.2-0.2-0.3
						c0.1,0.3-0.2,0.1-0.1,0.4c0,0-0.1-0.1-0.1-0.1c0,0-0.1,0,0.1,0.2l0-0.1c0.3,0.3,0.4,0.7,0.5,0.9c-0.4-0.6-0.2-0.1-0.7-0.9
						c0,0.1,0.1,0.2,0.2,0.3c-0.1,0-0.1-0.1-0.2-0.3c0,0.2,0.2,0.4,0.1,0.4c-0.1-0.1-0.1-0.2-0.2-0.3c0.1,0.2,0.2,0.5,0.1,0.4
						c0-0.1-0.1-0.2-0.1-0.2c-0.1,0.1,0.2,0.7-0.1,0.5c-0.2-0.5-0.1-0.1-0.4-0.6l0,0.2l0.1,0.2c-0.1,0,0,0.4-0.1,0.3l0-0.2l-0.1,0.1
						l0.2,0.1c0.1,0.3,0.3,0.5,0.1,0.5c0-0.1-0.1,0-0.2-0.2l0,0c0,0.2,0.1,0.3,0,0.2c-0.1-0.1-0.2-0.5-0.3-0.6
						c0.2,0.4-0.1,0.2,0,0.6c0-0.1-0.1-0.3-0.2-0.4l0.1,0.3c-0.1-0.1-0.1-0.1-0.2-0.3c-0.1,0,0.3,0.5,0.1,0.4c0,0,0-0.1,0-0.1
						c-0.2-0.1-0.1,0.3-0.3,0.2c-0.2-0.4,0-0.1-0.2-0.5c-0.1,0.1-0.1,0.7-0.2,0.6l0,0c0.3,0.6-0.2-0.3-0.2,0.1
						c0-0.1-0.1-0.4-0.1-0.3c-0.1-0.1-0.1,0.2-0.2,0.5l0-0.2c-0.1-0.1-0.2,0-0.3-0.1c0,0.2,0,0.2,0.1,0.4c-0.6-0.9-0.2,0.7-0.7-0.1
						c0,0,0-0.2,0-0.2l-0.1,0.2c0.1,0.3,0.1,0.2,0.2,0.4c0,0.2,0,0.3,0,0.3c0-0.2-0.2-0.5-0.2-0.6c0,0.1,0.1,0.2,0.1,0.3
						c-0.3-0.5,0.2,0.6,0,0.3l0-0.2c0,0.1,0,0.3,0,0.3c-0.1-0.3,0-0.2-0.1-0.4c-0.1,0,0.1,0.7-0.1,0.4c0-0.1,0-0.1,0-0.2
						c-0.2-0.4-0.2-0.3-0.2-0.3l0,0l-0.2-0.1l0.1,0.1c0.2,0.9-0.1,0.2,0,0.8c-0.1-0.6-0.1-0.3-0.2-0.7c-0.1-0.1-0.1-0.2-0.2-0.3
						c0,0.3-0.2-0.2-0.1,0.2c0-0.1-0.1,0-0.1-0.3c0,0.1,0.1,0.2,0.1,0.4c0,0.4-0.4-0.4-0.3,0.2c-0.1,0.3,0,0.7,0,0.9
						c-0.1-0.2-0.1-0.5-0.1-0.5c-0.1-0.2-0.1-0.1-0.2,0c0-0.1-0.1-0.2-0.1-0.3c0,0,0.1,0.5,0,0.3c0-0.1-0.1-0.4-0.1-0.5
						c0,0.1,0,0.4-0.1,0.5c-0.1-0.2,0-0.3-0.1-0.5c0,0.1-0.1,0.2-0.1,0.6l0.1,0.1c0,0-0.1-0.3-0.1-0.4c0-0.3,0.1,0.1,0.1,0.2l0,0.1
						c0.2,0.7,0.1-0.2,0.2-0.1l0.1,0.5l0-0.5c0.1,0.1,0.1,0.4,0.1,0.5c0.1,0.2,0-0.2,0.1,0.1c0,0,0,0.1,0,0.1l0-0.2
						c0,0.1,0.1,0.4,0.1,0.3c0.2,0.3,0.1-0.4,0.2-0.1l0,0c0.1-0.2-0.1-0.4-0.1-0.9l0.3,0.9l-0.1-0.4c0,0,0.1,0,0.1,0.2
						c0-0.3-0.1-0.2-0.1-0.4c0.2,0.3,0.2-0.2,0.3,0.4c-0.1-0.3-0.1-0.2-0.1-0.4c0.2,0.6,0.1-0.1,0.2,0.1c0.1,0.3,0,0.2,0.1,0.5
						c-0.1-0.6,0.2,0.1,0.2,0c-0.1-0.5,0.1-0.2,0.1-0.4c0,0.2,0.3,0.2,0.4,0.3l0,0.1c-0.1-0.5,0-0.4,0-0.5c0.1,0.3,0.1,0.4,0.1,0.5
						l0.1,0c0-0.1,0-0.2,0-0.3l0.1,0.3c0.1,0,0-0.5,0.2-0.3c-0.1-0.3-0.4-0.8-0.4-1.1c0.1,0.2,0.2,0.5,0.2,0.5c0,0,0-0.2,0-0.1
						l0.1,0.3c0.1,0.1-0.1-0.2,0-0.2c0.1,0.2,0.1,0.2,0.2,0.4c0,0-0.1-0.1-0.1,0c0.1,0,0.2,0.1,0.3,0.3c-0.1-0.1-0.1-0.3-0.1-0.4
						c0.1,0,0.1,0.3,0.2,0.4c0-0.2,0.1,0-0.1-0.4c0,0,0.1,0.2,0.1,0.3c0-0.2,0.2-0.1,0-0.5l0,0c0,0,0,0,0,0l0,0l0,0
						c0-0.4,0.4,0.1,0.4-0.1l0.1,0.1c0-0.2,0.1-0.2,0.1-0.4c0,0,0.2,0.2,0.2,0.3c0-0.1,0-0.2,0.1-0.1c0,0.2,0.1,0.2,0,0.2
						c0.1,0.1,0.2,0.2,0.2-0.1c0.1,0.3,0.2,0.3,0.2,0.2l-0.2-0.2c0-0.1,0.1-0.1,0.1,0l0.2,0.4c0.4,0.4-0.1-0.9,0.4-0.2
						c-0.1-0.3-0.2-0.1-0.3-0.5c0.1,0,0.5,0.5,0.5,0.5c0.2,0.2-0.2-0.6,0-0.5c-0.1-0.1-0.3-0.5-0.3-0.7c0.1,0,0.4,0.5,0.4,0.7
						c0,0,0,0-0.1-0.1c0,0.1,0,0.1,0.1,0.3l-0.1-0.1c0.1,0.1,0.2,0.1,0.3,0.3c0-0.2-0.1-0.2-0.2-0.3c0.2,0.1,0.1-0.1,0.3,0
						c-0.1-0.1-0.2-0.2-0.1-0.2c0.2,0.1-0.1-0.3,0-0.4c0.2,0.2,0.3,0.5,0.3,0.3c0.1,0.1,0.2,0.3,0.3,0.5c-0.1-0.3,0.3,0.1,0.4,0.1
						l0,0.1c0-0.1,0-0.1,0-0.1l-0.2-0.2c0.1,0,0.1,0,0.2,0.1c-0.1-0.2-0.3-0.4-0.4-0.7c0.1,0.1,0-0.2,0.3,0.1
						c-0.2,0,0.2,0.3,0.2,0.5c0-0.1,0-0.1,0.1,0c0,0,0,0.1,0,0.1c0.3,0.2-0.2-0.4-0.1-0.5c0.1,0.2,0.3,0.3,0.3,0.3
						c-0.1,0-0.2-0.3-0.3-0.5c0.2,0.1,0-0.2,0.1-0.2l-0.1,0c-0.1-0.2-0.1-0.2-0.1-0.3c0.1,0.1,0,0.1,0.1,0.2
						c-0.2-0.4,0.4,0.2,0.3-0.1c0.1,0.1,0.3,0.3,0.4,0.4c-0.1-0.3,0.3,0.1,0.3-0.1c-0.2-0.2-0.2-0.1-0.3-0.4l0,0.3l-0.2-0.4
						c0,0,0,0.2,0,0.2c-0.1-0.2-0.1-0.2-0.3-0.3c0.4,0.3-0.1-0.3,0.2-0.1l0.5,0.6c0.4,0.1-0.1-0.5,0.2-0.5l-0.1,0
						c-0.2-0.2,0-0.1,0-0.3c0.2,0.2,0.3,0.2,0.4,0.3c-0.2-0.1,0.1-0.1-0.3-0.4c0.1,0,0.2,0.1,0.3,0.1c0.2-0.1-0.5-0.6-0.4-0.6
						c0.2,0.2,0.4,0.2,0.5,0.4c0-0.1,0.1-0.1-0.1-0.2c0.2,0-0.2-0.3,0-0.2c-0.1-0.1-0.3-0.2-0.3-0.2c0.1,0,0.1,0,0.1,0
						c-0.1,0-0.1-0.1-0.4-0.2c0.4,0.1,0.4-0.1,0.4-0.2c0-0.1,0-0.2,0.3-0.3c-0.1-0.1-0.1-0.3-0.2-0.4c0.1,0,0.1,0,0.1,0
						c0.2-0.2-0.7-0.1-0.5-0.2c0.4-0.1,0.2,0.1,0.4,0c0.8-0.1-0.1-0.2,0.3-0.4l0.1,0c0.3-0.2-0.4-0.2-0.4-0.3c0,0,0.1,0,0.1,0
						c-0.4,0-0.6-0.1-0.8-0.1c0.3-0.1,0.2,0,0.5-0.2c-0.1,0-0.5,0.2-0.6,0.2c0.1-0.1,0.2-0.3,0.5-0.4l0.1,0.1
						c0.4-0.3-0.1-0.1-0.1-0.2l0.2-0.1c-0.2-0.1-0.6,0.2-0.7,0l-0.1,0.1c-0.5,0.2,0.2-0.2-0.2-0.1l0.4-0.3c-0.1,0-0.5,0.2-0.7,0.2
						c0.3-0.2,0.6-0.3,0.8-0.3c0-0.1-0.2-0.1-0.4,0c0.1,0,0.2-0.1,0.1,0c-0.4,0.2-0.6,0.3-0.6,0.2c0.7-0.7,0-0.4,0.4-1
						c-0.4,0.1-0.2-0.4-0.5-0.5c-0.4,0.7-0.1,0-0.5,0.6c-0.1,0-0.1,0-0.1-0.1l0.1-0.5c0.1-0.2,0.1-0.1,0.2-0.3
						c-0.1-0.1,0.1-0.3,0.2-0.5c-0.1,0.3-0.3,0.3-0.3,0.2L46.6,95c-0.4,0.3,0.2-0.7-0.2-0.4l0.2-0.2c-0.2,0.1-0.3-0.2-0.7,0.4
						c0-0.1,0.1-0.3,0.2-0.3c-0.2-0.2-0.7,0.4-0.7,0l0.1-0.2c-0.1,0-0.2,0.3-0.2,0.1c0-0.1,0.1-0.2,0.1-0.2c0,0.1-0.2,0.3-0.2,0.2
						l0.1-0.2c-0.1-0.3-0.5,0.4-0.7,0.5c0.2-0.6,0-0.8,0-0.9l0-0.1c-0.2-0.1-0.5,0.4-0.8,0.6c0-0.6-0.4-0.3-0.6-0.7
						c0,0.1-0.1,0.4-0.1,0.5c0-0.1-0.2,0.4-0.1-0.1l0,0c0-0.5-0.1-0.4-0.2-0.4l-0.1,0.7c-0.1-1-0.6,0.3-0.6-0.6
						c-0.1,0.2-0.1,0.2-0.2,0.3l0-0.4c-0.1-0.1-0.2-0.1-0.4-0.1l0-0.3c-0.1,0-0.1,1.1-0.2,1.1l0-0.5c-0.2,0-0.4-0.5-0.5,0
						c0-0.1,0-0.2,0-0.3c-0.1,0-0.3-0.4-0.2,0.4c0-0.5-0.2,0-0.2,0.2l0-0.4c0,0.5,0,0.6-0.1,0.7c0,0,0-0.3,0-0.2
						c-0.1-0.2,0,0.3-0.1,0.2l0-0.2c-0.1,0-0.1,0.1-0.1,0.4c0,0.1-0.2-0.1-0.2-0.4c0,0.2,0,0.5-0.1,0.4c0-0.1,0-0.2,0-0.2
						c-0.2-0.2-0.2,0.4-0.3,0.1c0-0.1,0-0.2,0-0.2c0.1,0,0.2,0,0.2,0c0-0.3-0.1-0.4-0.1-0.8c0,0.3-0.1,0.8-0.2,0.7c0,0,0-0.1,0-0.1
						l0,0c0,0,0,0,0,0.1c0-0.1-0.1-0.1-0.1-0.1c0-0.3-0.1-0.1-0.2-0.1c0,0.4,0,0.3,0.1,0.6c0,0,0,0,0-0.1c0,0,0,0,0,0l0,0
						c0,0,0.1,0,0.1,0c0,0.2,0,0.3-0.1,0.1c0,0.2,0,0.5,0,0.6c-0.1-0.5-0.2-0.8-0.3-1.1c-0.1,0.2-0.3,0.2-0.3,0.9
						c0,0.1-0.1-0.2-0.1-0.3c0-0.1,0-0.1,0-0.2c-0.1,0.2-0.2,0.1-0.2,0.6c-0.1-0.2,0-0.4-0.1-0.4l0-0.1c-0.3-0.7-0.3,1.3-0.6,0.3
						c0,0.1,0,0.1,0,0.2c-0.3-0.4-0.6,0.4-0.9-0.2c-0.1-0.1-0.1,0.2-0.1,0.4l0-0.4l-0.1,0.5c-0.1,0.3-0.2-1-0.4-0.3l0,0.3
						c-0.1-0.1-0.2,0.1-0.2-0.2c0,0,0,0.3,0,0.1l0-0.2l-0.2,0.3c-0.1-0.2,0.1-0.8-0.1-0.9c-0.1,0.1-0.2,0.6-0.2,0.7c0,0,0,0.1,0,0.3
						l-0.1,0.1c-0.1,0.6-0.2,1.2-0.1,1.6l0.1-0.4l0,0.3l-0.1,0c0,0.3,0.1,0,0.1-0.1c0,0.2,0,0.3,0,0.3l0.1-0.6c0,0.2-0.1,0.5,0,0.6
						c0.1-0.3,0-0.5,0.1-0.7c0,0.3,0,0.5,0.1,0.3c0,0.2,0,0.3,0,0.3c0.1-0.2,0.1-0.1,0.2-0.4c0,0.3,0.2-0.1,0.2,0.5
						c0-0.1,0.1-0.4,0.2-0.5c-0.1,0.7,0.2,0,0.2,0.8c0.1-0.6,0.2-0.3,0.4-0.6c0,0,0,0.1,0,0.1c0.1,0.1,0.1,0.2,0.1,0.4
						c0-0.5,0.1-0.6,0.1-0.9c0.1,0.5,0,0.6,0,1.1c0-0.4,0.1-0.4,0.1-0.8c0.1,0.3,0.1,0.1,0.1,0.6c0-0.6,0.1-0.1,0.1-0.5
						c0.1,0.3,0.1,0.6,0.1,0.4C37.5,97.4,37.4,97.7,37.4,97.7z M39.5,96.4L39.5,96.4C39.5,96.4,39.5,96.4,39.5,96.4
						C39.5,96.4,39.5,96.4,39.5,96.4z M39.7,96.4C39.6,96.3,39.6,96.3,39.7,96.4c-0.1-0.1-0.1-0.3-0.1-0.3
						C39.6,96.2,39.6,96.3,39.7,96.4z M39.1,93.9C39.1,93.8,39.1,93.9,39.1,93.9c0,0.1,0,0.1,0,0.1l0,0C39.1,94,39.1,93.9,39.1,93.9
						z"/>
					<path class="st0" d="M39.1,94.4C39.1,94.4,39.1,94.4,39.1,94.4c0,0.1,0,0.1,0,0.1L39.1,94.4L39.1,94.4z"/>
					<path class="st0" d="M43.5,102.9L43.5,102.9C43.5,102.9,43.5,102.9,43.5,102.9C43.5,102.9,43.5,102.9,43.5,102.9z"/>
					<polygon class="st0" points="42,96.9 42,96.9 42,96.9 					"/>
					<path class="st0" d="M42.2,102.1C42.2,102.1,42.2,102,42.2,102.1C42.2,102,42.2,102.1,42.2,102.1z"/>
					<path class="st0" d="M41.8,102.1l-0.1-0.1C41.7,102.1,41.8,102.1,41.8,102.1z"/>
					<path class="st0" d="M41.4,102.1c0,0.1,0,0.1,0,0.2l0,0L41.4,102.1z"/>
					<path class="st0" d="M45.5,99.7C45.5,99.7,45.5,99.7,45.5,99.7C45.5,99.6,45.5,99.7,45.5,99.7z"/>
					<path class="st0" d="M44.8,101.1c0-0.1,0-0.1,0-0.2C44.7,101,44.7,101,44.8,101.1z"/>
					<polygon class="st0" points="45.8,98.9 45.8,98.9 45.8,98.9 					"/>
					<path class="st0" d="M44.9,100.9C44.8,100.9,44.8,100.9,44.9,100.9C44.8,101,44.9,101,44.9,100.9z"/>
					<path class="st0" d="M40.1,102.3L40.1,102.3C40.1,102.3,40.1,102.3,40.1,102.3L40.1,102.3z"/>
					<path class="st0" d="M40.1,102.3L40.1,102.3C40.1,102.3,40.1,102.3,40.1,102.3z"/>
					<path class="st0" d="M40.1,102.4L40.1,102.4C40.1,102.3,40.1,102.3,40.1,102.4z"/>
					<path class="st0" d="M40.5,102.3l0-0.1C40.5,102.2,40.5,102.3,40.5,102.3z"/>
					<path class="st0" d="M40.6,102.3c0,0-0.1-0.3-0.2-0.2l0,0.1C40.5,102,40.7,102.5,40.6,102.3z"/>
					<path class="st0" d="M41.6,103.7l-0.1-0.1c0.1,0.1,0.1,0.3,0.1,0.4C41.8,104.3,41.4,103.7,41.6,103.7z"/>
					<path class="st0" d="M42,103.8c0,0.1,0.1,0.2,0.1,0.3C42.1,103.9,42.1,103.9,42,103.8z"/>
					<path class="st0" d="M44.4,102.9l0.1,0.3C44.5,103.1,44.5,103.1,44.4,102.9z"/>
					<polygon class="st0" points="44.1,101.1 44,101 44.1,101.2 					"/>
					<polygon class="st0" points="45.4,103.1 45.4,103.2 45.4,103 					"/>
					<path class="st0" d="M49,99.3l-0.4,0C48.7,99.3,49.1,99.4,49,99.3z"/>
					<path class="st0" d="M48,96.9c0.2-0.1,0.2-0.3,0-0.2C48,96.8,47.9,96.9,48,96.9z"/>
					<polygon class="st0" points="42.6,93.7 42.7,93.6 42.6,93.7 					"/>
				</g>
			</g>
		</g>
	</g>
</g>
</svg>
