<?xml version="1.0" encoding="utf-8"?>
<!-- Generator: Adobe Illustrator 22.0.0, SVG Export Plug-In . SVG Version: 6.00 Build 0)  -->
<svg version="1.1" id="_x3C_레이어_x3E_" xmlns="http://www.w3.org/2000/svg" xmlns:xlink="http://www.w3.org/1999/xlink"
	 x="0px" y="0px" viewBox="0 0 121 69.5" style="enable-background:new 0 0 121 69.5;" xml:space="preserve">
<style type="text/css">
	.st0{fill:#FFFFFF;}
</style>
<g>
	<polygon class="st0" points="26.4,15.9 26.4,7.9 13.5,7.9 13.5,0 0,0 0,1.2 12.2,1.2 12.2,9.1 25.2,9.1 25.2,17.2 38.4,17.2 
		38.4,24.6 39.6,24.6 39.6,24.3 39.6,15.9 	"/>
	<polygon class="st0" points="107.5,44.9 107.5,52.8 94.6,52.8 94.6,60.9 81.4,60.9 81.4,69.5 82.6,69.5 82.6,69.2 82.6,62.1 
		95.8,62.1 95.8,54 108.8,54 108.8,46.1 121,46.1 121,44.9 	"/>
	<g>
		<path class="st0" d="M1.9,37.3v5.2h8.6v-0.4v-4.8H1.9z M3.2,41.2v-2.7h6.1v2.7H3.2z"/>
		<polygon class="st0" points="9.3,28.9 9.3,32.4 7,32.4 7,33.7 9.3,33.7 9.3,36.7 10.6,36.7 10.6,28.9 		"/>
		<path class="st0" d="M5.1,29.5v2.4H1.2v-2.4H0v6.8h6.3v-0.4v-6.4H5.1z M1.2,35.1v-1.9h3.8v1.9H1.2z"/>
		<polygon class="st0" points="22.9,28.9 22.9,33.7 21.2,33.7 21.2,34.9 22.9,34.9 22.9,42.7 24.2,42.7 24.2,28.9 		"/>
		<path class="st0" d="M16.7,30.7c-2,0-3.6,1.6-3.6,3.6c0,2,1.6,3.6,3.6,3.6c2,0,3.6-1.6,3.6-3.6C20.4,32.3,18.7,30.7,16.7,30.7z
			 M16.7,31.9c1.3,0,2.4,1.1,2.4,2.4c0,1.3-1.1,2.4-2.4,2.4c-1.3,0-2.4-1.1-2.4-2.4C14.3,33,15.4,31.9,16.7,31.9z"/>
		<polygon class="st0" points="37,33.5 37,28.9 35.5,28.9 35.5,42.7 37,42.7 37,35 38.8,35 38.8,33.5 		"/>
		<path class="st0" d="M30,30.5c-2.1,0-3.7,1.7-3.7,3.8c0,2.1,1.7,3.7,3.7,3.7c2.1,0,3.7-1.7,3.8-3.7C33.7,32.2,32,30.5,30,30.5z
			 M30,36.5c-1.2,0-2.3-1-2.3-2.3c0-1.2,1-2.3,2.3-2.3c1.2,0,2.3,1,2.3,2.3C32.2,35.5,31.2,36.5,30,36.5z"/>
		<rect x="39.8" y="39.4" class="st0" width="12.6" height="1.5"/>
		<polygon class="st0" points="42.6,35.3 42.6,34.2 50.6,34.2 50.6,32.7 42.6,32.7 42.6,31.6 50.6,31.6 50.6,30.1 41.1,30.1 
			41.1,36.8 50.7,36.8 50.7,35.3 		"/>
		<rect x="54.1" y="39.5" class="st0" width="12.6" height="1.2"/>
		<path class="st0" d="M65.8,35.7c0,0-1.2-0.3-2.4-1c-1.2-0.7-2.3-1.8-2.3-3.3V30h0h-1.2l0,0v1.4c0,0,0,0,0,0c0,1.5-1.1,2.5-2.3,3.3
			c-1.2,0.7-2.4,1-2.4,1l-0.4,0.1L55,37l0.4-0.1c0.1,0,1.5-0.4,2.9-1.2c0.8-0.5,1.6-1.2,2.2-2.1c0.5,0.9,1.4,1.6,2.2,2.1
			c1.4,0.8,2.7,1.2,2.9,1.2l0.4,0.1l0.1-0.4l0.2-0.8L65.8,35.7z"/>
		<rect x="68.4" y="39.5" class="st0" width="12.6" height="1.2"/>
		<polygon class="st0" points="71.1,35.4 71.1,34.1 79.2,34.1 79.2,32.8 71.1,32.8 71.1,31.4 79.2,31.4 79.2,30.2 69.9,30.2 
			69.9,36.7 79.4,36.7 79.4,35.4 		"/>
		<rect x="91.9" y="28.9" class="st0" width="1.2" height="13.8"/>
		<path class="st0" d="M90.6,37.6l-0.4,0.2l0,0c0,0-1.5,0.6-5.2,0.6h-1.1v-3.1h5.2v-5h-6.5v1.2h5.2V34h-5.2v5.6H85c0,0,0,0,0,0
			c4.1,0,5.6-0.6,5.7-0.7l0.4-0.2L90.6,37.6z"/>
		<rect x="95" y="39.5" class="st0" width="12.6" height="1.2"/>
		<polygon class="st0" points="97.6,35.4 97.6,34.1 105.7,34.1 105.7,32.8 97.6,32.8 97.6,31.4 105.7,31.4 105.7,30.2 96.4,30.2 
			96.4,36.7 105.9,36.7 105.9,35.4 		"/>
	</g>
	<g>
		<path class="st0" d="M79.2,21.4h0.2h0.2v1.1c0.2-0.2,0.4-0.4,0.6-0.4c0.3,0,0.5,0.1,0.7,0.3c0.2,0.2,0.3,0.5,0.3,0.8
			c0,0.4-0.1,0.7-0.3,0.9c-0.2,0.2-0.4,0.3-0.7,0.3c-0.3,0-0.5-0.1-0.6-0.3l0,0v0.3h-0.4V21.4z M80.2,24.2c0.2,0,0.3-0.1,0.4-0.2
			c0.1-0.1,0.2-0.4,0.2-0.6c0-0.3,0-0.5-0.1-0.6c-0.1-0.1-0.2-0.2-0.5-0.2c-0.2,0-0.4,0.1-0.5,0.2c-0.1,0.2-0.1,0.4-0.1,0.7
			c0,0.2,0.1,0.4,0.2,0.6C79.8,24.2,80,24.2,80.2,24.2z"/>
		<path class="st0" d="M82.9,24.6c-0.3,0-0.6-0.1-0.7-0.3c-0.2-0.2-0.3-0.5-0.3-0.8c0-0.4,0.1-0.7,0.3-0.9c0.2-0.2,0.4-0.3,0.8-0.3
			c0.3,0,0.5,0.1,0.7,0.3c0.2,0.2,0.3,0.5,0.3,0.9l0,0.1h-1.6c0,0.2,0.1,0.4,0.2,0.5c0.1,0.1,0.3,0.2,0.5,0.2c0.1,0,0.3,0,0.4-0.1
			c0.1-0.1,0.2-0.2,0.2-0.3h0.4c-0.1,0.2-0.2,0.4-0.3,0.6C83.4,24.5,83.2,24.6,82.9,24.6z M83.6,23.2c0-0.2-0.1-0.4-0.2-0.5
			c-0.1-0.1-0.3-0.2-0.4-0.2c-0.2,0-0.4,0.1-0.5,0.2c-0.1,0.1-0.1,0.3-0.2,0.5H83.6z"/>
		<path class="st0" d="M85,24.2c-0.2-0.2-0.3-0.5-0.3-0.9c0-0.4,0.1-0.6,0.3-0.9c0.2-0.2,0.4-0.3,0.8-0.3c0.3,0,0.6,0.1,0.8,0.3
			c0.2,0.2,0.3,0.5,0.3,0.9c0,0.4-0.1,0.6-0.3,0.9c-0.2,0.2-0.4,0.3-0.8,0.3C85.4,24.6,85.2,24.5,85,24.2z M86.2,24
			c0.1-0.2,0.2-0.4,0.2-0.6c0-0.3-0.1-0.5-0.2-0.6c-0.1-0.2-0.3-0.2-0.5-0.2c-0.2,0-0.4,0.1-0.5,0.2c-0.1,0.2-0.2,0.4-0.2,0.6
			c0,0.3,0.1,0.5,0.2,0.6c0.1,0.2,0.3,0.2,0.5,0.2C85.9,24.2,86.1,24.2,86.2,24z"/>
		<path class="st0" d="M87.6,22.3h0.2H88v0.3l0.1-0.1c0.2-0.2,0.4-0.3,0.6-0.3c0.2,0,0.4,0.1,0.5,0.2c0.1,0.1,0.1,0.1,0.1,0.2
			l0.1-0.1c0.2-0.2,0.4-0.3,0.6-0.3c0.2,0,0.4,0.1,0.5,0.2c0.1,0.1,0.2,0.3,0.2,0.5v1.6h-0.2h-0.2v-1.4c0-0.2,0-0.3-0.1-0.4
			c-0.1-0.1-0.2-0.1-0.3-0.1c-0.2,0-0.3,0.1-0.4,0.2c-0.1,0.1-0.1,0.3-0.1,0.5v1.3h-0.2h-0.2V23c0-0.1,0-0.2-0.1-0.3
			c-0.1-0.1-0.2-0.1-0.3-0.1c-0.2,0-0.3,0.1-0.4,0.2C88,22.9,88,23.1,88,23.3v1.2h-0.2h-0.2V22.3z"/>
		<path class="st0" d="M91.5,23.1h1v0.4h-1V23.1z"/>
		<path class="st0" d="M94.4,24.6c-0.3,0-0.6-0.1-0.7-0.3c-0.2-0.2-0.3-0.5-0.3-0.8c0-0.4,0.1-0.7,0.3-0.9c0.2-0.2,0.4-0.3,0.8-0.3
			c0.3,0,0.5,0.1,0.7,0.3c0.2,0.2,0.3,0.5,0.3,0.9l0,0.1h-1.6c0,0.2,0.1,0.4,0.2,0.5c0.1,0.1,0.3,0.2,0.5,0.2c0.1,0,0.3,0,0.4-0.1
			c0.1-0.1,0.2-0.2,0.2-0.3h0.4c-0.1,0.2-0.2,0.4-0.3,0.6C94.8,24.5,94.6,24.6,94.4,24.6z M95,23.2c0-0.2-0.1-0.4-0.2-0.5
			c-0.1-0.1-0.2-0.2-0.4-0.2c-0.2,0-0.4,0.1-0.5,0.2c-0.1,0.1-0.1,0.3-0.2,0.5H95z"/>
		<path class="st0" d="M96.4,24.2c-0.2-0.2-0.3-0.5-0.3-0.9c0-0.4,0.1-0.6,0.3-0.9s0.4-0.3,0.7-0.3c0.3,0,0.6,0.1,0.8,0.3
			s0.3,0.5,0.3,0.9c0,0.4-0.1,0.6-0.3,0.9c-0.2,0.2-0.4,0.3-0.8,0.3C96.9,24.6,96.6,24.5,96.4,24.2z M97.6,24
			c0.1-0.2,0.2-0.4,0.2-0.6c0-0.3-0.1-0.5-0.2-0.6c-0.1-0.2-0.3-0.2-0.5-0.2c-0.2,0-0.4,0.1-0.5,0.2c-0.1,0.2-0.2,0.4-0.2,0.6
			c0,0.3,0.1,0.5,0.2,0.6c0.1,0.2,0.3,0.2,0.5,0.2C97.4,24.2,97.5,24.2,97.6,24z"/>
		<path class="st0" d="M101.3,24.6c-0.2,0-0.4-0.1-0.5-0.2c-0.1-0.1-0.2-0.3-0.2-0.5c0-0.2,0.1-0.4,0.2-0.5c0.1-0.1,0.3-0.2,0.5-0.2
			l0.5-0.1c0,0,0.1,0,0.1,0c0,0,0.1,0,0.1-0.1c0,0,0-0.1,0-0.1v0c0-0.1,0-0.2-0.1-0.3c-0.1-0.1-0.2-0.1-0.4-0.1
			c-0.2,0-0.3,0-0.4,0.1c-0.1,0.1-0.1,0.2-0.2,0.3h-0.3c0-0.2,0.1-0.4,0.3-0.6c0.2-0.1,0.4-0.2,0.7-0.2c0.3,0,0.5,0.1,0.6,0.2
			c0.1,0.1,0.2,0.3,0.2,0.5v1.2c0,0,0,0.1,0,0.1c0,0,0.1,0,0.1,0c0,0,0,0,0,0c0,0,0,0,0.1,0v0.3c0,0-0.1,0-0.1,0c0,0-0.1,0-0.1,0
			c-0.1,0-0.2,0-0.3-0.1c0-0.1-0.1-0.1-0.1-0.2c0,0-0.1,0.1-0.1,0.1C101.8,24.5,101.5,24.6,101.3,24.6z M102,23.6v-0.2
			c-0.1,0-0.1,0.1-0.2,0.1l-0.3,0.1c-0.2,0-0.3,0.1-0.4,0.1c-0.1,0.1-0.1,0.1-0.1,0.2c0,0.1,0,0.2,0.1,0.3c0.1,0.1,0.2,0.1,0.3,0.1
			c0.2,0,0.4-0.1,0.5-0.2c0.1-0.1,0.2-0.2,0.2-0.3c0,0,0,0,0-0.1C102,23.7,102,23.7,102,23.6z"/>
		<path class="st0" d="M103.5,22.3h0.2h0.2v0.4c0-0.1,0.1-0.1,0.1-0.2c0.1-0.2,0.3-0.3,0.5-0.3c0,0,0.1,0,0.1,0v0.4l-0.1,0
			c-0.2,0-0.4,0.1-0.5,0.2c-0.1,0.1-0.2,0.3-0.2,0.5v1.2h-0.2h-0.2V22.3z"/>
		<path class="st0" d="M106.1,24.5c-0.1,0-0.2,0-0.3,0c-0.2,0-0.3,0-0.3-0.1c-0.1-0.1-0.1-0.2-0.1-0.4v-1.5h-0.3v-0.3h0.3v-0.6h0.4
			v0.6h0.4v0.3h-0.4V24c0,0,0,0.1,0.1,0.1c0,0,0.1,0,0.2,0h0.1V24.5z"/>
		<path class="st0" d="M109.8,22.9c0-0.1-0.1-0.2-0.2-0.3c-0.1-0.1-0.2-0.1-0.4-0.1c-0.2,0-0.3,0-0.4,0.1c-0.1,0.1-0.1,0.1-0.1,0.2
			c0,0.1,0,0.1,0.1,0.2c0.1,0,0.2,0.1,0.3,0.1l0.4,0.1c0.2,0.1,0.4,0.1,0.5,0.2c0.1,0.1,0.1,0.2,0.1,0.4c0,0.2-0.1,0.4-0.2,0.5
			c-0.2,0.1-0.4,0.2-0.6,0.2c-0.3,0-0.5-0.1-0.7-0.2c-0.2-0.1-0.2-0.3-0.3-0.6h0.4c0,0.2,0.1,0.3,0.2,0.3c0.1,0.1,0.2,0.1,0.4,0.1
			c0.2,0,0.3,0,0.4-0.1c0.1-0.1,0.1-0.2,0.1-0.3c0-0.1,0-0.1-0.1-0.2c-0.1,0-0.2-0.1-0.3-0.1l-0.4-0.1c-0.2,0-0.4-0.1-0.4-0.2
			c-0.1-0.1-0.1-0.2-0.1-0.4c0-0.2,0.1-0.4,0.2-0.5c0.1-0.1,0.4-0.2,0.6-0.2c0.3,0,0.5,0.1,0.6,0.2c0.2,0.1,0.2,0.3,0.2,0.5H109.8z"
			/>
		<path class="st0" d="M111.9,24.5c-0.1,0-0.2,0-0.3,0c-0.2,0-0.3,0-0.3-0.1c-0.1-0.1-0.1-0.2-0.1-0.4v-1.5h-0.3v-0.3h0.3v-0.6h0.4
			v0.6h0.4v0.3h-0.4V24c0,0,0,0.1,0.1,0.1c0,0,0.1,0,0.2,0h0.1V24.5z"/>
		<path class="st0" d="M112.8,22.3h0.2h0.2v0.4c0-0.1,0.1-0.1,0.1-0.2c0.1-0.2,0.3-0.3,0.5-0.3c0,0,0.1,0,0.1,0v0.4l-0.1,0
			c-0.2,0-0.4,0.1-0.5,0.2c-0.1,0.1-0.2,0.3-0.2,0.5v1.2H113h-0.2V22.3z"/>
		<path class="st0" d="M115.5,24.6c-0.3,0-0.6-0.1-0.7-0.3c-0.2-0.2-0.3-0.5-0.3-0.8c0-0.4,0.1-0.7,0.3-0.9c0.2-0.2,0.4-0.3,0.8-0.3
			c0.3,0,0.5,0.1,0.7,0.3c0.2,0.2,0.3,0.5,0.3,0.9l0,0.1h-1.6c0,0.2,0.1,0.4,0.2,0.5c0.1,0.1,0.3,0.2,0.5,0.2c0.1,0,0.3,0,0.4-0.1
			c0.1-0.1,0.2-0.2,0.2-0.3h0.4c-0.1,0.2-0.2,0.4-0.3,0.6C116,24.5,115.7,24.6,115.5,24.6z M116.1,23.2c0-0.2-0.1-0.4-0.2-0.5
			c-0.1-0.1-0.3-0.2-0.4-0.2c-0.2,0-0.4,0.1-0.5,0.2c-0.1,0.1-0.1,0.3-0.2,0.5H116.1z"/>
		<path class="st0" d="M118.3,24.6c-0.3,0-0.6-0.1-0.7-0.3c-0.2-0.2-0.3-0.5-0.3-0.8c0-0.4,0.1-0.7,0.3-0.9c0.2-0.2,0.4-0.3,0.8-0.3
			c0.3,0,0.5,0.1,0.7,0.3c0.2,0.2,0.3,0.5,0.3,0.9l0,0.1h-1.6c0,0.2,0.1,0.4,0.2,0.5c0.1,0.1,0.3,0.2,0.5,0.2c0.1,0,0.3,0,0.4-0.1
			c0.1-0.1,0.2-0.2,0.2-0.3h0.4c-0.1,0.2-0.2,0.4-0.3,0.6C118.8,24.5,118.5,24.6,118.3,24.6z M118.9,23.2c0-0.2-0.1-0.4-0.2-0.5
			c-0.1-0.1-0.3-0.2-0.4-0.2c-0.2,0-0.4,0.1-0.5,0.2c-0.1,0.1-0.1,0.3-0.2,0.5H118.9z"/>
		<path class="st0" d="M121,24.5c-0.1,0-0.2,0-0.3,0c-0.2,0-0.3,0-0.3-0.1c-0.1-0.1-0.1-0.2-0.1-0.4v-1.5H120v-0.3h0.3v-0.6h0.4v0.6
			h0.4v0.3h-0.4V24c0,0,0,0.1,0.1,0.1c0,0,0.1,0,0.2,0h0.1V24.5z"/>
	</g>
</g>
</svg>
